<svg xmlns="http://www.w3.org/2000/svg">
<defs>
<font id="GTSectra-MediumItalic" horiz-adv-x="620" >
  <font-face 
    font-family="GT Sectra Medium"
    font-weight="500"
    font-style="italic"
    font-stretch="normal"
    units-per-em="1000"
    panose-1="0 0 6 0 0 0 0 0 0 0"
    ascent="750"
    descent="-250"
    x-height="483"
    cap-height="701"
    bbox="-359 -246 1103 939"
    underline-thickness="50"
    underline-position="-200"
    slope="-12"
    unicode-range="U+000D-FB02"
  />
<missing-glyph horiz-adv-x="639" 
d="M467 -29l-30 1l-24 18h-14l-8 8l7 76l-4 47l-61 1l-3 -52l-2 -56v-20l-15 -6l-8 6l-30 -10h-32l-1 11l11 11l50 21l-6 96l-98 -6l-147 140l-4 115l-13 10l-10 36v26l15 8l-3 78l92 -62l9 47l10 36l22 35l28 35l39 29l78 29h22l-68 22l4 17h7l79 -20l-4 51l16 12h32l19 -5
l29 -25l32 -8l32 -10l15 -13v-20l-20 -31l30 -28l28 -32l18 -34l15 -41l9 -54l-3 -41l-8 -35l-12 -31l-3 -156l-21 -7l-50 70l-27 -7l-19 -140l-32 4l-7 -4l-4 -94l30 -19l16 -14zM213 540h5l36 24h32l18 -12l8 3l4 14l7 5l10 -4v-18h8l10 22l11 8l-5 6l-3 8l1 21l-30 -10
l-10 -8l-8 5l4 21l14 10l11 11l38 -2l12 13l-4 8h-49l-45 -13l-53 -26l-29 -23l-25 -34l29 12l13 -15l-17 -20l-10 -3zM393 608l3 17l-7 17l-8 -9v-19zM441 564h13l6 6l-9 18l17 28l-15 9v5l-25 7v-20l-13 -5v-9l-9 -6l-3 -12l5 -6l19 11l8 -2zM520 406l18 12h23l6 11l-18 6
l-5 9l9 42h7l14 -20l17 -1l-8 37l-19 50l-20 36l-23 28l-34 21h-11l17 -19l25 -10l11 -11l3 -33l-25 13l-15 -29l12 -8v-19l15 3l-12 26l15 -5l10 -20l-5 -12l-8 -7h-23l-3 11l-12 2l1 -22h-14l14 -18l-7 -10l-21 5l-3 -27l41 6l8 17l22 -2l6 -28l-16 -13v-15zM466 514l2 7
l-2 9l-8 -4v-9zM189 498l59 12l-4 12zM371 491l3 4l-48 25l-4 -12zM77 254v180l57 -32l7 10l-68 38v18l59 -34l43 -28l28 -14l3 10l-103 64l-13 7l-41 33l2 -78l19 -17v-5h-21l19 -14l1 -11l-20 7l18 -18l-4 -7l3 -97zM232 432l11 5l16 12l6 12l2 13l-22 -4l6 -10l-12 -13

<glyph glyph-name="fi" unicode="fi" horiz-adv-x="569" 
d="M-128 -235l19 95h112q31 36 39 86l81 461h-97l5 19l42 37h60l7 46q18 96 74 131l125 75h227l-17 -86h-259q-32 -29 -38 -78l-16 -92h169l68 30l42 -40l-68 -386l82 52l18 -26l-145 -104l-67 35l70 396l-52 -9h-127l-74 -430q-16 -86 -91 -135l-117 -77h-72z" />
    <glyph glyph-name="fl" unicode="fl" horiz-adv-x="566" 
d="M-128 -235l19 95h112q31 36 39 86l81 461h-97l5 19l42 37h60l7 46q18 96 74 131l125 75h183l33 -28l-110 -624l83 52l18 -26l-146 -104l-68 35l68 387h-174l-74 -430q-16 -86 -91 -135l-117 -77h-72zM236 459h174l34 191l-74 -21h-80q-32 -29 -38 -78z" />
    <glyph glyph-name="f_f" unicode="ff" horiz-adv-x="618" 
d="M-128 -235l19 95h112q31 36 39 86l81 461h-97l5 19l42 37h60l7 46q18 96 74 131l125 75h163l-128 -86h-84q-32 -29 -38 -78l-16 -92h184l8 50q16 95 74 131l125 75h93l-17 -86h-125q-30 -26 -39 -78l-16 -92h112l-11 -52h-110l-75 -430q-14 -84 -90 -135l-118 -77h-66
l19 95h107q31 36 39 86l81 461h-185l-74 -430q-16 -86 -91 -135l-117 -77h-72z" />
    <glyph glyph-name="f_f_i" unicode="ffi" horiz-adv-x="857" 
d="M-128 -235l19 95h112q31 36 39 86l81 461h-97l5 19l42 37h60l7 46q18 96 74 131l125 75h163l-128 -86h-84q-32 -29 -38 -78l-16 -92h184l8 50q16 95 74 131l125 75h227l-17 -86h-259q-30 -26 -39 -78l-16 -92h170l68 30l41 -40l-67 -386l81 52l19 -26l-146 -104l-67 35
l70 396l-52 -9h-126l-75 -430q-14 -84 -90 -135l-118 -77h-66l19 95h107q31 36 39 86l81 461h-185l-74 -430q-16 -86 -91 -135l-117 -77h-72z" />
    <glyph glyph-name="f_f_l" unicode="ffl" horiz-adv-x="854" 
d="M-128 -235l19 95h112q31 36 39 86l81 461h-97l5 19l42 37h60l7 46q18 96 74 131l125 75h163l-128 -86h-84q-32 -29 -38 -78l-16 -92h184l8 50q16 95 74 131l125 75h183l32 -28l-109 -624l82 52l19 -26l-146 -104l-68 35l68 387h-174l-75 -430q-14 -84 -90 -135l-118 -77
h-66l19 95h107q31 36 39 86l81 461h-185l-74 -430q-16 -86 -91 -135l-117 -77h-72zM523 459h175l33 191l-73 -21h-80q-30 -26 -39 -78z" />
    <glyph glyph-name="T_h.liga" unicode="Th" horiz-adv-x="1014" 
d="M860 -15l-67 35l56 315q11 60 -31 60q-33 0 -84 -34l-46 -30l-58 -331h-105l111 631l17 24l-80 -8l-149 3l-96 -598l87 -13l-11 -40l-146 3l-145 -3l1 40l93 13l95 598l-129 -3l-66 -133h-45l28 187l283 -3l284 3l62 14l32 -28l-49 -280l-17 -34l176 116q60 0 84.5 -32.5
t15.5 -86.5l-55 -307l81 52l19 -26z" />
    <glyph glyph-name="f_b.liga" unicode="fb" horiz-adv-x="789" 
d="M-128 -235l19 95h112q31 36 39 86l81 461h-97l5 19l42 37h60l7 46q18 96 74 131l125 75h183l33 -28l-49 -279l-20 -47l150 128q61 -12 97.5 -58t36.5 -125q0 -96 -48 -174t-135 -114l-77 -33q-98 7 -174 47l108 618l-74 -21h-80q-32 -29 -38 -78l-16 -92h111l-11 -52
h-110l-74 -430q-16 -86 -91 -135l-117 -77h-72zM569 52q43 25 65 85t22 124q0 57 -17.5 92t-43.5 46l-103 -73l-42 -235q62 -39 119 -39z" />
    <glyph glyph-name="f_f_b.liga" unicode="ffb" horiz-adv-x="1077" 
d="M-128 -235l19 95h112q31 36 39 86l81 461h-97l5 19l42 37h60l7 46q18 96 74 131l125 75h163l-128 -86h-84q-32 -29 -38 -78l-16 -92h184l8 50q16 95 74 131l125 75h183l32 -28l-48 -279l-20 -47l149 128q62 -12 98.5 -58t36.5 -125q0 -96 -48 -174t-135 -114l-77 -33
q-97 7 -175 47l108 618l-73 -21h-80q-30 -26 -39 -78l-16 -92h112l-11 -52h-110l-75 -430q-14 -84 -90 -135l-118 -77h-66l19 95h107q31 36 39 86l81 461h-185l-74 -430q-16 -86 -91 -135l-117 -77h-72zM857 52q43 25 64.5 85t21.5 124q0 57 -17 92.5t-44 45.5l-103 -73
l-41 -235q62 -39 119 -39z" />
    <glyph glyph-name="f_f_h.liga" unicode="ffh" horiz-adv-x="1107" 
d="M-128 -235l19 95h112q31 36 39 86l81 461h-97l5 19l42 37h60l7 46q18 96 74 131l125 75h163l-128 -86h-84q-32 -29 -38 -78l-16 -92h184l8 50q16 95 74 131l125 75h183l33 -28l-49 -280l-16 -34l175 116q60 0 85 -32.5t15 -86.5l-55 -307l82 52l18 -26l-145 -104l-67 35
l55 315q11 60 -30 60q-37 0 -84 -34l-47 -30l-58 -331h-105l115 650l-74 -21h-80q-28 -24 -39 -78l-16 -92h112l-11 -52h-110l-75 -430q-14 -84 -90 -135l-118 -77h-66l19 95h107q31 36 39 86l81 461h-185l-74 -430q-16 -86 -91 -135l-117 -77h-72z" />
    <glyph glyph-name="f_f_j.liga" unicode="ffj" horiz-adv-x="837" 
d="M-128 -235l19 95h112q31 36 39 86l81 461h-97l5 19l42 37h60l7 46q18 96 74 131l125 75h163l-128 -86h-84q-32 -29 -38 -78l-16 -92h184l8 50q16 95 74 131l125 75h227l-17 -86h-259q-30 -26 -39 -78l-16 -92h170l68 30l41 -40l-82 -467q-15 -89 -90 -137l-120 -80h-56
l16 95h101q30 38 40 94l81 462l-52 -9h-126l-75 -430q-14 -84 -90 -135l-118 -77h-66l19 95h107q31 36 39 86l81 461h-185l-74 -430q-16 -86 -91 -135l-117 -77h-72z" />
    <glyph glyph-name="f_f_k.liga" unicode="ffk" horiz-adv-x="1080" 
d="M-128 -235l19 95h112q31 36 39 86l81 461h-97l5 19l42 37h60l7 46q18 96 74 131l125 75h163l-128 -86h-84q-32 -29 -38 -78l-16 -92h184l8 50q16 95 74 131l125 75h183l32 -28l-70 -404l20 4l175 192h108l-23 -108h-73q-48 -11 -94 -47l-57 -48l44 -15l104 -198l76 48
l19 -26l-144 -100l-53 26l-107 247l-45 -258h-104l114 650l-74 -21h-80q-28 -24 -39 -78l-16 -92h112l-11 -52h-110l-75 -430q-14 -84 -90 -135l-118 -77h-66l19 95h107q31 36 39 86l81 461h-185l-74 -430q-16 -86 -91 -135l-117 -77h-72z" />
    <glyph glyph-name="f_h.liga" unicode="fh" horiz-adv-x="819" 
d="M-128 -235l19 95h112q31 36 39 86l81 461h-97l5 19l42 37h60l7 46q18 96 74 131l125 75h183l33 -28l-49 -280l-16 -34l175 116q60 0 85 -32.5t15 -86.5l-55 -307l82 52l19 -26l-147 -104l-66 35l55 315q11 60 -30 60q-35 0 -84 -34l-46 -30l-59 -331h-105l115 650
l-74 -21h-80q-29 -27 -38 -78l-16 -92h111l-11 -52h-110l-74 -430q-16 -86 -91 -135l-117 -77h-72z" />
    <glyph glyph-name="f_j.liga" unicode="fj" horiz-adv-x="550" 
d="M-128 -235l19 95h112q31 36 39 86l81 461h-97l5 19l42 37h60l7 46q18 96 74 131l125 75h227l-17 -86h-259q-32 -29 -38 -78l-16 -92h169l68 30l42 -40l-83 -467q-15 -89 -90 -137l-120 -80h-56l16 95h102q29 38 39 94l82 462l-52 -9h-127l-74 -430q-16 -86 -91 -135
l-117 -77h-72z" />
    <glyph glyph-name="f_k.liga" unicode="fk" horiz-adv-x="792" 
d="M-128 -235l19 95h112q31 36 39 86l81 461h-97l5 19l42 37h60l7 46q18 96 74 131l125 75h183l33 -28l-71 -404l20 4l176 192h107l-23 -108h-73q-49 -12 -93 -47l-58 -48l44 -15l104 -198l77 48l18 -26l-144 -100l-52 26l-107 247l-45 -258h-105l114 650l-74 -21h-80
q-29 -27 -38 -78l-16 -92h111l-11 -52h-110l-74 -430q-16 -86 -91 -135l-117 -77h-72z" />
    <glyph glyph-name="f_t.liga" unicode="ft" horiz-adv-x="621" 
d="M-128 -235l19 95h112q31 36 39 86l81 461h-97l5 19l42 37h60l7 46q18 96 74 131l125 75h173l-112 -86h-110q-32 -29 -38 -78l-16 -92h166l13 68l89 76h29l-26 -144h122l-11 -53h-120l-60 -343l130 52l16 -28l-190 -102l-68 31l68 391h-168l-74 -430q-16 -86 -91 -135
l-117 -77h-72z" />
    <glyph glyph-name="f_u.liga" unicode="fu" horiz-adv-x="807" 
d="M-128 -235l19 95h112q31 36 39 86l81 461h-97l5 19l42 37h60l7 46q18 96 74 131l125 75h93l-17 -86h-125q-32 -29 -38 -78l-16 -92h158l68 30l41 -39l-54 -314q-5 -28 3 -42.5t26 -14.5q22 0 82 39l45 30l57 326h104l-72 -412l81 52l19 -26l-146 -103l-62 30l9 58l16 35
l-173 -123q-58 0 -83.5 34.5t-15.5 84.5l55 312l-53 -9h-115l-74 -430q-16 -86 -91 -135l-117 -77h-72z" />
    <glyph glyph-name="f_y.liga" unicode="fy" horiz-adv-x="727" 
d="M-128 -235l19 95h112q31 36 39 86l81 461h-97l5 19l42 37h60l7 46q18 96 74 131l125 75h93l-17 -86h-125q-32 -29 -38 -78l-16 -92h89l68 30l54 -38l44 -403l164 290l-74 92l97 59l44 -53l-21 -126l-328 -545h-137l18 107h87l130 139l-76 -11l-59 415l-49 -8h-61
l-74 -430q-16 -86 -91 -135l-117 -77h-72z" />
    <glyph glyph-name="k_y.liga" unicode="ky" horiz-adv-x="952" 
d="M461 -235l18 107h87l130 139l-76 -11l-63 447h-40l-55 -76h-59q-47 -11 -93 -47l-58 -48l45 -15l104 -198l75 48l19 -26l-143 -100l-53 26l-107 247l-45 -258h-105l114 652l-94 -26l-12 32l185 58l32 -28l-71 -405l20 4l176 192h242l37 -23l45 -408l163 290l-73 92l97 59
l44 -53l-21 -126l-328 -545h-137z" />
    <glyph glyph-name="t_t.liga" unicode="tt" horiz-adv-x="659" 
d="M130 -15l-68 31l68 390h-94l5 19l41 38h57l12 64l89 76h29l-26 -144h198l13 68l88 76h30l-26 -144h121l-10 -53h-121l-58 -343l130 52l15 -28l-190 -102l-68 31l67 390h-198l-59 -343l114 49l15 -28z" />
    <glyph glyph-name="t_y.liga" unicode="ty" horiz-adv-x="779" 
d="M288 -235l18 107h87l130 139l-77 -11l-58 415l-62 -9h-92l-59 -343l105 42l19 -29l-169 -91l-68 31l68 390h-94l5 19l41 38h57l12 64l89 76h29l-26 -144h134l68 30l54 -38l44 -403l164 290l-74 92l96 59l45 -53l-22 -126l-176 -294l-152 -251h-136z" />
    <glyph glyph-name=".notdef" horiz-adv-x="639" 
d="M467 -29l-30 1l-24 18h-14l-8 8l7 76l-4 47l-61 1l-3 -52l-2 -56v-20l-15 -6l-8 6l-30 -10h-32l-1 11l11 11l50 21l-6 96l-98 -6l-147 140l-4 115l-13 10l-10 36v26l15 8l-3 78l92 -62l9 47l10 36l22 35l28 35l39 29l78 29h22l-68 22l4 17h7l79 -20l-4 51l16 12h32l19 -5
l29 -25l32 -8l32 -10l15 -13v-20l-20 -31l30 -28l28 -32l18 -34l15 -41l9 -54l-3 -41l-8 -35l-12 -31l-3 -156l-21 -7l-50 70l-27 -7l-19 -140l-32 4l-7 -4l-4 -94l30 -19l16 -14zM213 540h5l36 24h32l18 -12l8 3l4 14l7 5l10 -4v-18h8l10 22l11 8l-5 6l-3 8l1 21l-30 -10
l-10 -8l-8 5l4 21l14 10l11 11l38 -2l12 13l-4 8h-49l-45 -13l-53 -26l-29 -23l-25 -34l29 12l13 -15l-17 -20l-10 -3zM393 608l3 17l-7 17l-8 -9v-19zM441 564h13l6 6l-9 18l17 28l-15 9v5l-25 7v-20l-13 -5v-9l-9 -6l-3 -12l5 -6l19 11l8 -2zM520 406l18 12h23l6 11l-18 6
l-5 9l9 42h7l14 -20l17 -1l-8 37l-19 50l-20 36l-23 28l-34 21h-11l17 -19l25 -10l11 -11l3 -33l-25 13l-15 -29l12 -8v-19l15 3l-12 26l15 -5l10 -20l-5 -12l-8 -7h-23l-3 11l-12 2l1 -22h-14l14 -18l-7 -10l-21 5l-3 -27l41 6l8 17l22 -2l6 -28l-16 -13v-15zM466 514l2 7
l-2 9l-8 -4v-9zM189 498l59 12l-4 12zM371 491l3 4l-48 25l-4 -12zM77 254v180l57 -32l7 10l-68 38v18l59 -34l43 -28l28 -14l3 10l-103 64l-13 7l-41 33l2 -78l19 -17v-5h-21l19 -14l1 -11l-20 7l18 -18l-4 -7l3 -97zM232 432l11 5l16 12l6 12l2 13l-22 -4l6 -10l-12 -13
l-14 -1l-6 8l1 4l14 2l-13 6l2 7l-20 -1l3 -19l14 -15zM334 430l18 10l6 9l5 20l-30 2l7 -5l1 -11l-7 -11h-12l-5 7l11 8l-15 2v6l-23 4l3 -17l8 -14l20 -9zM206 130l18 4l2 40l41 -3l3 9l-44 6v16l48 -6l1 9l-47 7l1 22l43 -3l3 6l-45 9l3 94h74l11 10h-79l2 9h74l8 7h-82
l2 22l117 4l140 -4v11l-4 7h-205l-66 -3l-7 -9l-6 -44l-48 20l-11 -4l57 -27l1 -45l-5 -73v-91zM534 386h5l5 7v7l-10 -4v-10zM355 336h53l4 30l-54 5zM178 231l-1 60l4 40l-66 39v-7l-2 -13l1 -27v-48zM515 300l8 2l20 15l13 13l11 18l-7 5h-14l-10 3l-14 7l-17 -3l-6 -48z
M442 346l44 4l4 9h-48v-13zM454 142l12 79l4 36l-15 3l-1 8l20 1l5 3l-28 16l2 5l30 -6l-30 15l5 5l21 -5l4 10l3 19l-54 1l-1 -24v-6l-2 -31l19 -3l-8 -61l-48 3l-8 -6l51 -5l-2 -9h-49l-4 -5l53 -7l-6 -35zM296 302h73v10h-73v-10zM564 234v78l-6 -3l-33 -27zM369 271v10
l-72 7l-6 -13zM291 250h68v6l-68 4v-10zM177 189l4 14l-74 50l20 -23zM355 161v53l-64 4v-51z" />
    <glyph glyph-name=".null" horiz-adv-x="0" 
 />
    <glyph glyph-name="nonmarkingreturn" horiz-adv-x="333" 
 />
    <glyph glyph-name="CR" unicode="&#xd;" horiz-adv-x="360" 
 />
    <glyph glyph-name="space" unicode=" " horiz-adv-x="240" 
 />
    <glyph glyph-name="exclam" unicode="!" horiz-adv-x="317" 
d="M131 235l11 197l42 278h112l-58 -277l-60 -198h-47zM90 -5l-31 6l5 62l15 52l84 6l31 -6l-5 -61l-16 -53z" />
    <glyph glyph-name="quotedbl" unicode="&#x22;" horiz-adv-x="416" 
d="M132 437l-14 196l18 72h114l-4 -72l-83 -196h-31zM306 437l-14 196l17 72h115l-4 -72l-83 -196h-31z" />
    <glyph glyph-name="numbersign" unicode="#" horiz-adv-x="621" 
d="M99 0l57 195h-123l16 55h125l46 155h-123l17 55h122l58 195h63l-58 -195h140l58 195h63l-58 -195h127l-17 -55h-126l-47 -155h125l-16 -55h-126l-57 -195h-63l57 195h-140l-57 -195h-63zM237 250h139l47 155h-140z" />
    <glyph glyph-name="dollar" unicode="$" horiz-adv-x="571" 
d="M476 612q-39 34 -89 48l-41 -234l66 -54q30 -24 48 -43t33 -53t15 -75q0 -60 -39.5 -108t-108.5 -74l-92 -34l-11 -65h-41l11 63q-118 9 -186 60l25 148h66v-84q39 -43 106 -63l46 261l-72 57q-42 35 -64 69.5t-22 80.5q0 111 155 172l74 28l12 69h41l-11 -64
q103 -5 167 -52l-26 -145h-56zM310 455l37 212h-9q-96 -31 -96 -103q0 -34 17 -58t51 -51zM391 156q0 41 -17.5 66.5t-53.5 54.5l-43 -240q5 -1 14 -1q50 15 75 46t25 74z" />
    <glyph glyph-name="percent" unicode="%" horiz-adv-x="823" 
d="M41 -5l658 710h81l-657 -710h-82zM226 350q-53 0 -90 34.5t-37 103.5q0 72 41 128t124 79l24 6q53 0 90 -35t37 -104q0 -72 -40 -127t-122 -78zM241 392q25 0 43.5 18.5t27.5 47.5t13.5 57t4.5 54q0 89 -54 89q-34 0 -56 -33t-29 -69.5t-7 -72.5q0 -49 17 -70t40 -21z
M538 0q-53 0 -90 35t-37 103q0 72 41 128.5t124 78.5l24 6q54 0 90.5 -35t36.5 -104q0 -71 -40 -127t-122 -78zM553 42q25 0 43.5 18.5t27.5 47.5t13.5 57t4.5 54q0 89 -54 89q-34 0 -56 -33t-29 -69.5t-7 -72.5q0 -91 57 -91z" />
    <glyph glyph-name="ampersand" unicode="&#x26;" horiz-adv-x="611" 
d="M252 -18q-101 0 -159.5 49.5t-58.5 134.5q0 140 174 209l45 18q-43 7 -75.5 46.5t-32.5 86.5q0 112 213 172l76 20q22 -3 58 -20t63 -37l-62 -82q-25 22 -68.5 48.5t-69.5 34.5q-92 -47 -92 -126q0 -43 24 -80t52 -37l-8 -43q-67 0 -119 -58.5t-52 -132.5
q0 -70 36.5 -111t98.5 -41q55 20 84 59t42 108l12 67h-51l-15 -22h-24l18 98h225l16 22h21l-18 -98h-64l-14 -77q-15 -74 -55.5 -114t-128.5 -66z" />
    <glyph glyph-name="quotesingle" unicode="'" horiz-adv-x="242" 
d="M132 437l-14 193l18 75h114l-4 -75l-83 -193h-31z" />
    <glyph glyph-name="parenleft" unicode="(" horiz-adv-x="338" 
d="M179 -238q-67 115 -93 184t-26 153q0 102 13 176t51 148t86 137.5t138 165.5l27 -21q-230 -274 -230 -615q0 -167 63 -299z" />
    <glyph glyph-name="parenright" unicode=")" horiz-adv-x="338" 
d="M162 726q67 -115 93 -184t26 -153q0 -102 -13 -176t-51 -148t-86 -137.5t-138 -165.5l-27 21q230 274 230 615q0 167 -63 299z" />
    <glyph glyph-name="asterisk" unicode="*" horiz-adv-x="391" 
d="M189 396l-70 54l90 89l-123 21l35 86l108 -53l-12 122h91l-21 -122l113 53l22 -86l-122 -21l82 -89l-77 -54l-54 108z" />
    <glyph glyph-name="plus" unicode="+" 
d="M274 0v218h-222v70h222v227h71v-227h222v-70h-222v-218h-71z" />
    <glyph glyph-name="comma" unicode="," horiz-adv-x="244" 
d="M56 -151l-38 17q41 66 62 130l-43 5l5 62l19 52l74 6l36 -6l-4 -61l-16 -53z" />
    <glyph glyph-name="hyphen" unicode="-" horiz-adv-x="370" 
d="M36 242l15 70h300l-15 -70h-300z" />
    <glyph glyph-name="period" unicode="." horiz-adv-x="260" 
d="M81 -5l-31 6l5 62l16 52l83 6l31 -6l-5 -61l-16 -53z" />
    <glyph glyph-name="slash" unicode="/" horiz-adv-x="506" 
d="M-121 -230l617 948h64l-617 -948h-64z" />
    <glyph glyph-name="zero" unicode="0" horiz-adv-x="574" 
d="M258 -15q-96 0 -154.5 58.5t-58.5 148.5q0 202 218 274l69 23q96 0 154 -58.5t58 -148.5q0 -202 -217 -274zM287 40q64 23 100 83.5t36 143.5q0 64 -36 110.5t-84 56.5q-64 -23 -100.5 -83.5t-36.5 -143.5q0 -64 34.5 -109.5t86.5 -57.5z" />
    <glyph glyph-name="one" unicode="1" horiz-adv-x="479" 
d="M5 -1l2 40l161 16l55 310l10 21l-42 -16l-123 -29l-10 37l244 105h55l-75 -428l157 -16l-12 -40l-209 3z" />
    <glyph glyph-name="two" unicode="2" horiz-adv-x="512" 
d="M18 0l-23 46l146 100q47 32 67 46t53 40.5t46.5 43.5t25 40.5t11.5 46.5q0 71 -69 71l-67 -19l-39 -91h-93l12 100l223 65q77 0 118 -30.5t41 -81.5q0 -32 -19 -65t-45 -57.5t-67 -51t-70 -42t-69 -35.5l-115 -57l188 32h216v-36l-35 -65h-436z" />
    <glyph glyph-name="three" unicode="3" horiz-adv-x="468" 
d="M-45 -235l17 97h220q89 57 89 140q0 116 -158 116l-7 31l48 20q146 60 146 173q0 39 -20.5 64t-55.5 28l-58 -19l-41 -100h-90l12 109l213 65q81 0 120 -37t39 -98q0 -118 -178 -180q76 -5 116 -46.5t40 -102.5q0 -46 -18.5 -81.5t-63.5 -64t-69.5 -40t-86.5 -35.5
q-11 -5 -17 -7l-82 -32h-115z" />
    <glyph glyph-name="four" unicode="4" horiz-adv-x="572" 
d="M552 76l-14 -79h-138l-40 -227h-105l40 227h-261l-29 50l387 427h113l-8 -44l-414 -373l57 19h169l15 83l93 68h24l-27 -151h138z" />
    <glyph glyph-name="five" unicode="5" horiz-adv-x="490" 
d="M-20 -235l17 97h221q44 32 68.5 75.5t24.5 87.5q0 56 -29.5 90.5t-87.5 34.5q-45 0 -100 -30l-35 -19l-21 25l103 348h355l-6 -36l-38 -64h-287l-64 -205l132 67q103 0 152 -50t49 -117q0 -54 -21 -98t-59 -76.5t-77 -54t-90 -41.5l-84 -34h-123z" />
    <glyph glyph-name="six" unicode="6" horiz-adv-x="553" 
d="M356 460q67 0 115 -55.5t48 -130.5q0 -92 -53 -162.5t-148 -103.5l-69 -24q-91 0 -145 61t-54 170q0 176 138 319.5t344 181.5l14 -40q-127 -28 -218.5 -112t-128.5 -204zM281 36q56 21 85 77.5t29 122.5q0 67 -21.5 101t-51.5 34q-38 0 -100 -42l-38 -25q-9 -48 -9 -100
q0 -70 27.5 -115.5t78.5 -52.5z" />
    <glyph glyph-name="seven" unicode="7" horiz-adv-x="495" 
d="M8 -230l3 43l394 574l-34 -19h-337l18 106h433l21 -26l-404 -678h-94z" />
    <glyph glyph-name="eight" unicode="8" horiz-adv-x="551" 
d="M370 387q28 -20 40 -28.5t35 -28.5t32.5 -35t18.5 -38t9 -48q0 -141 -217 -211l-51 -16q-81 0 -139 44.5t-58 114.5q0 145 196 217q-51 36 -79 70.5t-28 84.5q0 63 46 110t124 73l65 20q82 0 133.5 -34.5t51.5 -92.5q0 -74 -48 -119.5t-131 -82.5zM329 666
q-78 -33 -78 -121q0 -69 84 -133q93 64 93 153q0 91 -99 101zM273 33q106 46 106 145q0 50 -28 84.5t-81 71.5q-109 -74 -109 -169q0 -58 33.5 -93t78.5 -39z" />
    <glyph glyph-name="nine" unicode="9" horiz-adv-x="544" 
d="M311 489q91 0 144.5 -62t53.5 -169q0 -175 -137 -319t-345 -182l-14 40q133 32 222.5 115t125.5 202l-158 -101q-67 0 -115 55.5t-48 130.5q0 96 54.5 165t146.5 101zM335 141l39 28q8 50 8 95q0 74 -27 120t-77 53q-54 -20 -84 -76.5t-30 -125.5q0 -61 20 -97.5
t54 -36.5q38 0 97 40z" />
    <glyph glyph-name="colon" unicode=":" horiz-adv-x="272" 
d="M136 358l-32 5l6 62l15 53l82 6l32 -6l-5 -61l-15 -54zM74 -5l-31 6l5 62l15 52l83 6l32 -6l-5 -61l-16 -53z" />
    <glyph glyph-name="semicolon" unicode=";" horiz-adv-x="272" 
d="M138 358l-31 5l5 62l15 53l83 6l32 -6l-5 -61l-16 -54zM68 -151l-38 17q41 66 62 130l-43 5l5 62l19 52l74 6l36 -6l-4 -61l-16 -53z" />
    <glyph glyph-name="less" unicode="&#x3c;" 
d="M570 25l-520 231v60l520 232v-83l-423 -178l423 -178v-84z" />
    <glyph glyph-name="equal" unicode="=" 
d="M52 307v71h515v-71h-515zM52 112v71h515v-71h-515z" />
    <glyph glyph-name="greater" unicode="&#x3e;" 
d="M50 25v84l423 178l-423 178v83l520 -232v-60z" />
    <glyph glyph-name="question" unicode="?" horiz-adv-x="416" 
d="M134 220l20 118l85 48q42 23 63.5 62t21.5 82t-17.5 80t-51.5 45l-47 -15l-17 -74h-74l-1 78l180 66q60 0 105 -44t45 -111q0 -124 -152 -189l-65 -27l-40 -119h-55zM95 -5l-31 6l5 62l15 52l83 6l32 -6l-5 -61l-16 -53z" />
    <glyph glyph-name="at" unicode="@" horiz-adv-x="930" 
d="M480 -114q-180 0 -292.5 101.5t-112.5 258.5q0 146 95.5 260t253.5 163l93 29q181 0 282 -82t101 -211t-90.5 -222t-208.5 -93l-59 62l44 117l-150 -181q-59 0 -102.5 40t-43.5 102q0 84 48.5 152.5t130.5 104.5l109 49l120 -67l-82 -341q71 4 135 79.5t64 187.5
q0 109 -76.5 180.5t-203.5 71.5q-88 0 -170 -47.5t-137 -137.5t-55 -200q0 -79 28.5 -141t77.5 -99t108 -55.5t126 -18.5q81 0 188 47l17 -31q-124 -63 -238 -78zM458 176l114 127l32 120l-76 52q-76 -33 -109 -93.5t-33 -121.5q0 -40 19.5 -62t52.5 -22z" />
    <glyph glyph-name="A" unicode="A" horiz-adv-x="678" 
d="M582 50l70 -11l-10 -40l-147 3l-124 -3l1 40l81 13l-16 179h-223l-97 -179l81 -13l-11 -40l-105 3l-103 -3v40l72 11l369 644l95 24zM242 282h190l-22 244l3 70z" />
    <glyph glyph-name="B" unicode="B" horiz-adv-x="598" 
d="M-10 -1l1 40l87 13l95 600l-82 10l10 39l132 -3l178 3q85 1 131 -40.5t46 -97.5q0 -53 -37.5 -98t-105.5 -68l-55 -18q88 -7 139 -52t51 -108q0 -74 -48 -117t-131 -74l-83 -29l-195 3zM253 391h51q70 0 114.5 50t44.5 111q0 42 -25 72t-73 30h-70zM200 58h161
q91 59 91 153q0 60 -33 96.5t-102 36.5h-72z" />
    <glyph glyph-name="C" unicode="C" horiz-adv-x="630" 
d="M333 -18q-131 0 -207.5 82t-76.5 223q0 130 67.5 239.5t213.5 160.5l94 33q125 0 211 -74l-11 -155h-58l-16 97q-51 53 -175 72q-95 -44 -144.5 -134t-49.5 -214q0 -125 56.5 -194.5t141.5 -76.5q67 27 111 67l60 117h60l-42 -176z" />
    <glyph glyph-name="D" unicode="D" horiz-adv-x="681" 
d="M-9 -1v40l85 13l96 600l-84 10l11 39l141 -3l166 3q126 1 199.5 -79.5t73.5 -214.5q0 -78 -28.5 -148.5t-96 -134t-167.5 -97.5l-80 -28l-178 3zM199 61h162q80 45 132.5 131t52.5 200q0 121 -52 189t-131 72h-70z" />
    <glyph glyph-name="E" unicode="E" horiz-adv-x="600" 
d="M-10 -1l1 40l86 13l95 597l-83 13l11 39l137 -3l378 3v-178h-42l-46 123l-234 3l-40 -258l128 4l62 106h36l-36 -134l-8 -134h-37l-25 106l-128 4l-47 -292l259 3l78 135h45l-46 -190l-408 3z" />
    <glyph glyph-name="F" unicode="F" horiz-adv-x="568" 
d="M-10 -1l1 40l86 13l95 597l-83 13l11 39l137 -3l378 3v-181h-42l-46 126l-234 3l-42 -272l128 4l62 105h36l-36 -134l-8 -134h-37l-25 106l-128 4l-45 -277l122 -12l-11 -40l-177 3z" />
    <glyph glyph-name="G" unicode="G" horiz-adv-x="671" 
d="M319 -18q-132 0 -208.5 79t-76.5 219q0 61 17 120t52 115.5t96.5 102.5t141.5 73l83 27q65 0 119.5 -22t85.5 -51l-9 -149h-58l-17 93q-25 28 -71.5 49t-96.5 22q-210 -98 -210 -351q0 -126 54 -193.5t139 -74.5q52 16 91 43l30 191l-82 13l11 39l136 -1l120 3v-41
l-64 -13l-34 -220z" />
    <glyph glyph-name="H" unicode="H" horiz-adv-x="709" 
d="M-10 -1l1 40l85 13l95 596l-82 13l11 40l141 -3l134 3l-1 -40l-80 -13l-42 -259h261l41 259l-78 13l11 40l138 -3l136 3l-1 -40l-83 -13l-95 -596l79 -13l-11 -40l-135 3l-140 -3l1 40l83 13l46 284h-261l-45 -284l76 -13l-11 -40l-134 3z" />
    <glyph glyph-name="I" unicode="I" horiz-adv-x="328" 
d="M-9 -1l2 40l85 13l95 596l-82 13l11 40l141 -3l136 3l-1 -40l-83 -13l-96 -596l79 -13l-11 -40l-138 3z" />
    <glyph glyph-name="J" unicode="J" horiz-adv-x="334" 
d="M-81 -175l19 92h105q22 32 33.5 68t19.5 98l90 565l-88 13l11 40l144 -3l139 3l-2 -40l-83 -13l-88 -553q-10 -64 -33 -103.5t-68 -74.5l-117 -92h-82z" />
    <glyph glyph-name="K" unicode="K" horiz-adv-x="701" 
d="M-10 -1l2 40l86 13l94 596l-82 13l11 40l141 -3l126 3l-1 -40l-73 -13l-42 -263l28 16l271 247l-65 13l8 40l116 -3l106 3v-40l-86 -13l-292 -259l30 -17l244 -319l50 -14l-11 -40l-77 3l-84 -3l-228 332l-13 33l-50 -312l69 -13l-11 -40l-128 3z" />
    <glyph glyph-name="L" unicode="L" horiz-adv-x="565" 
d="M-10 -1l1 40l86 13l95 596l-83 13l12 40l132 -3l148 3l-1 -40l-87 -13l-95 -597l223 3l93 139h45l-61 -194l-372 3z" />
    <glyph glyph-name="M" unicode="M" horiz-adv-x="879" 
d="M-10 -1l1 40l79 13l94 591l-85 18l11 40l112 -3l124 3l101 -520l-4 -69l284 589l109 -3l115 3l-2 -40l-83 -13l-95 -596l75 -13l-11 -40l-126 3l-142 -3v40l87 13l79 491l31 112l-321 -655h-77l-107 544l-10 109l-90 -601l78 -13l-10 -40l-107 3z" />
    <glyph glyph-name="N" unicode="N" horiz-adv-x="704" 
d="M-10 -1l1 40l85 13l94 591l-79 18l11 40l91 -3l88 3l239 -463l15 -89l72 499l-78 13l11 40l104 -3l116 3l-1 -40l-87 -13l-102 -648h-73l-259 516l-11 92l-85 -556l83 -13l-11 -40l-111 3z" />
    <glyph glyph-name="O" unicode="O" horiz-adv-x="707" 
d="M327 -18q-129 0 -203.5 82.5t-74.5 223.5q0 62 16 121t49.5 114.5t91.5 100t134 68.5l83 26q129 0 203.5 -82.5t74.5 -223.5q0 -62 -16 -121t-49.5 -114.5t-91.5 -100t-134 -68.5zM367 39q95 39 148 135.5t53 223.5q0 118 -51 184t-135 79q-95 -39 -148 -135.5
t-53 -223.5q0 -118 51 -184t135 -79z" />
    <glyph glyph-name="P" unicode="P" horiz-adv-x="578" 
d="M-10 -1l1 40l86 13l96 599l-84 10l12 40l137 -3l177 3q92 1 145.5 -40.5t53.5 -112.5q0 -79 -55 -130.5t-171 -94.5l-64 -24h-86l-40 -247l120 -13l-11 -40l-180 3zM248 364h140q44 26 70 69.5t26 96.5q0 121 -112 125h-77z" />
    <glyph glyph-name="Q" unicode="Q" horiz-adv-x="707" 
d="M458 -166l-154 149q-119 7 -187 89t-68 216q0 62 16 121t49.5 114.5t91.5 100t134 68.5l83 26q129 0 203.5 -82.5t74.5 -223.5q0 -62 -16 -121t-49.5 -114.5t-91.5 -100t-134 -68.5l-40 -12l92 -33l87 -75l62 -21l-1 -33h-152zM367 39q95 39 148 135.5t53 223.5
q0 118 -51 184t-135 79q-95 -39 -148 -135.5t-53 -223.5q0 -118 51 -184t135 -79z" />
    <glyph glyph-name="R" unicode="R" horiz-adv-x="657" 
d="M570 52l52 -14l-8 -39l-92 3l-69 -3l-136 308l-12 11h-64l-43 -266l90 -13l-11 -40l-150 3l-137 -3l1 40l86 13l96 599l-84 10l12 40l137 -3l177 3q90 1 144.5 -40t54.5 -109q0 -71 -45 -117t-137 -82l-55 -20l76 -42zM295 655l-45 -273h132q102 50 102 157
q0 53 -28 83.5t-84 32.5h-77z" />
    <glyph glyph-name="S" unicode="S" horiz-adv-x="514" 
d="M234 -18q-136 0 -219 61l25 148h66v-84q26 -28 71 -49.5t88 -21.5q50 15 75 46t25 74q0 30 -12 54t-25.5 37.5t-40.5 34.5l-101 80q-42 35 -64 69.5t-22 80.5q0 111 155 172l91 34q122 0 192 -53l-26 -145h-56l-6 92q-63 54 -138 55q-96 -31 -96 -103q0 -35 18.5 -60
t57.5 -56l94 -76q30 -24 48 -43t33 -53t15 -75q0 -60 -39.5 -108t-108.5 -74z" />
    <glyph glyph-name="T" unicode="T" horiz-adv-x="601" 
d="M117 -1l1 40l93 13l95 598l-129 -3l-66 -133h-45l28 187l283 -3l278 3l-27 -187h-45l-24 133l-131 3l-96 -598l87 -13l-11 -40l-146 3z" />
    <glyph glyph-name="U" unicode="U" horiz-adv-x="677" 
d="M295 -18q-241 0 -200 260l65 406l-82 13l11 40l134 -3l145 3l-1 -40l-82 -13l-70 -421q-13 -76 27.5 -129.5t124.5 -53.5q63 25 93.5 64t44.5 125l67 415l-88 13l11 40l119 -3l123 3l-1 -40l-88 -13l-65 -410q-15 -94 -60 -150t-151 -85z" />
    <glyph glyph-name="V" unicode="V" horiz-adv-x="647" 
d="M276 -18l-128 668l-70 11l11 40l146 -3l120 3l-1 -40l-82 -13l82 -476l-11 -69l241 545l-81 13l11 40l112 -3l82 3l-1 -40l-50 -11l-302 -644z" />
    <glyph glyph-name="W" unicode="W" horiz-adv-x="938" 
d="M252 -18l-106 668l-70 11l11 40l147 -3l105 3l-1 -40l-67 -13l65 -480l-12 -63l172 436l-16 109l-55 11l11 40l132 -3l122 3l-1 -40l-84 -13l65 -480l-12 -63l220 543l-87 13l11 40l117 -3l81 3l-1 -40l-50 -11l-279 -644l-84 -24l-69 440l5 57l-186 -473z" />
    <glyph glyph-name="X" unicode="X" horiz-adv-x="678" 
d="M-20 -1l1 40l63 13l256 292l-167 306l-56 11l11 40l115 -3l153 3l-1 -40l-83 -13l104 -201l1 -40l208 241l-78 13l10 40l126 -3l80 3l-1 -40l-56 -11l-250 -281l172 -317l51 -13l-10 -40l-110 3l-156 -3l1 40l82 13l-107 213v42l-210 -255l74 -13l-11 -40l-122 3z" />
    <glyph glyph-name="Y" unicode="Y" horiz-adv-x="640" 
d="M132 -1l1 40l118 13l36 232l-153 365l-56 12l10 40l123 -3l138 3v-40l-82 -13l110 -271v-47l202 318l-79 13l10 40l112 -3l81 3l-1 -40l-53 -12l-241 -366l-36 -231l110 -13l-11 -40l-170 3z" />
    <glyph glyph-name="Z" unicode="Z" horiz-adv-x="541" 
d="M-11 0l-1 44l426 571l58 38l-279 -8l-68 -129h-41l30 184h456l16 -42l-429 -573l-54 -35l291 5l101 152h45l-68 -207h-483z" />
    <glyph glyph-name="bracketleft" unicode="[" horiz-adv-x="336" 
d="M10 -230l90 513l76 432l82 -3l131 3l-7 -40l-137 -10l-71 -377l-78 -468l133 -10l-7 -40l-129 3z" />
    <glyph glyph-name="backslash" unicode="\" horiz-adv-x="431" 
d="M382 -230l-286 948h59l286 -948h-59z" />
    <glyph glyph-name="bracketright" unicode="]" horiz-adv-x="336" 
d="M328 715l-90 -513l-76 -432l-82 3l-131 -3l7 40l137 10l71 377l78 468l-133 10l7 40l129 -3z" />
    <glyph glyph-name="asciicircum" unicode="^" horiz-adv-x="381" 
d="M84 460l161 245h45l85 -245h-84l-38 145l-82 -145h-87z" />
    <glyph glyph-name="underscore" unicode="_" horiz-adv-x="560" 
d="M-72 -118l10 60h555l-10 -60h-555z" />
    <glyph glyph-name="grave" unicode="`" horiz-adv-x="600" 
d="M351 553l-79 157h113l11 -157h-45z" />
    <glyph glyph-name="a" unicode="a" horiz-adv-x="506" 
d="M164 -15q-128 33 -128 189q0 188 184 278l76 37q63 -1 171 -42l-68 -385l82 52l19 -26l-146 -103l-67 34l10 57l19 46zM207 74l104 82l42 237q-20 13 -54.5 21.5t-62.5 8.5q-86 -81 -86 -216q0 -91 57 -133z" />
    <glyph glyph-name="b" unicode="b" horiz-adv-x="491" 
d="M212 -15q-97 7 -175 47l109 618l-94 -25l-13 33l184 57l33 -28l-48 -279l-21 -47l158 128q58 -12 92.5 -58.5t34.5 -124.5q0 -96 -48 -174t-135 -114zM271 52q43 25 65 85t22 124q0 56 -15.5 91.5t-38.5 46.5l-111 -73l-41 -235q62 -39 119 -39z" />
    <glyph glyph-name="c" unicode="c" horiz-adv-x="426" 
d="M209 -15q-74 2 -123 53t-49 139q0 94 52.5 166.5t151.5 115.5l66 30q58 -4 118 -38l-57 -93q-52 37 -119 63q-97 -59 -97 -203q0 -120 102 -150q66 29 115 61l20 -26q-60 -47 -130 -88z" />
    <glyph glyph-name="d" unicode="d" horiz-adv-x="527" 
d="M171 -15q-134 31 -134 192q0 91 43.5 162t130.5 111l83 39q32 -2 80 -16l31 178l-93 -26l-12 33l184 57l32 -28l-111 -625l83 53l19 -26l-146 -104l-67 36l10 57l20 45zM211 75l107 85l42 237q-51 27 -123 27q-40 -33 -62.5 -93t-22.5 -124q0 -96 59 -132z" />
    <glyph glyph-name="e" unicode="e" horiz-adv-x="442" 
d="M407 292l-256 -79v-3q0 -55 28.5 -95.5t72.5 -46.5q67 26 125 63l19 -27q-69 -51 -147 -92l-50 -27q-73 7 -117.5 58t-44.5 128q0 100 54 178t145 111l80 29q107 -21 107 -110q0 -35 -16 -87zM260 435q-42 -20 -70.5 -70t-36.5 -116l148 59q10 34 10 57q0 61 -51 70z" />
    <glyph glyph-name="f" unicode="f" horiz-adv-x="330" 
d="M-128 -235l19 95h112q31 34 39 86l81 461h-97l5 19l42 37h60l7 46q18 96 74 131l125 75h93l-17 -86h-125q-30 -28 -38 -78l-16 -92h111l-11 -52h-110l-74 -430q-8 -45 -29.5 -76.5t-61.5 -58.5l-117 -77h-72z" />
    <glyph glyph-name="g" unicode="g" horiz-adv-x="498" 
d="M19 -235l16 95h192q22 17 40 50t24 70l16 97l19 46l-150 -138q-135 29 -135 192q0 90 45.5 161.5t134.5 113.5l77 37q36 0 88.5 -12.5t91.5 -32.5l-85 -474q-6 -34 -36.5 -64.5t-91.5 -74.5l-92 -66h-154zM214 74l108 83l42 235q-48 33 -122 33q-41 -32 -63.5 -92.5
t-22.5 -125.5q0 -98 58 -133z" />
    <glyph glyph-name="h" unicode="h" horiz-adv-x="532" 
d="M378 -15l-67 35l55 315q11 60 -30 60q-35 0 -84 -34l-46 -30l-59 -331h-105l115 651l-93 -26l-12 33l184 57l32 -28l-49 -280l-16 -34l175 116q60 0 85 -32.5t15 -86.5l-55 -307l82 52l19 -26z" />
    <glyph glyph-name="i" unicode="i" horiz-adv-x="297" 
d="M233 575l-71 6l3 57l21 49l35 6l64 -6v-57l-19 -49zM130 -15l-67 35l70 396l-89 -31l-12 29l170 75l41 -40l-68 -386l82 52l19 -26z" />
    <glyph glyph-name="j" unicode="j" horiz-adv-x="282" 
d="M228 575l-71 6l3 57l21 49l35 6l64 -6v-57l-19 -49zM-117 -235l17 95h116q29 36 39 94l82 462l-88 -31l-13 29l170 75l41 -40l-83 -467q-15 -89 -89 -137l-121 -80h-71z" />
    <glyph glyph-name="k" unicode="k" horiz-adv-x="505" 
d="M352 -15l-53 26l-107 247l-45 -258h-105l114 652l-94 -26l-12 32l185 58l32 -28l-71 -405l20 4l176 192h108l-24 -108h-73q-47 -11 -93 -47l-58 -48l45 -15l104 -198l75 48l19 -26z" />
    <glyph glyph-name="l" unicode="l" horiz-adv-x="284" 
d="M119 -15l-68 35l111 630l-93 -25l-12 33l184 57l32 -28l-110 -624l83 52l19 -26z" />
    <glyph glyph-name="m" unicode="m" horiz-adv-x="792" 
d="M638 -15l-68 34l55 315q11 60 -26 60q-27 0 -77 -34l-45 -30l-60 -330h-104l59 335q5 26 -1.5 43t-24.5 17q-25 0 -77 -33l-47 -31l-59 -331h-105l74 415l-88 -30l-12 29l170 75l41 -39l-9 -44l-15 -32l166 115q56 0 80 -29.5t18 -80.5l155 110q59 0 83.5 -32.5
t14.5 -86.5l-54 -309l83 53l18 -26z" />
    <glyph glyph-name="n" unicode="n" horiz-adv-x="548" 
d="M393 -15l-68 34l56 316q11 60 -29 60q-35 0 -84 -34l-46 -30l-59 -331h-104l73 415l-88 -30l-12 29l170 75l41 -39l-9 -44l-15 -32l174 115q59 0 84 -32.5t16 -86.5l-55 -308l83 52l18 -26z" />
    <glyph glyph-name="o" unicode="o" horiz-adv-x="495" 
d="M216 -15q-75 0 -127 52.5t-52 145.5t52 167t147 113l63 26q75 0 127 -53.5t52 -146.5q0 -94 -52 -168t-146 -111zM256 40q54 22 81 88.5t27 138.5q0 75 -29 115.5t-77 49.5q-54 -21 -80 -87t-26 -140q0 -143 104 -165z" />
    <glyph glyph-name="p" unicode="p" horiz-adv-x="522" 
d="M20 -230l113 645l-88 -30l-12 29l169 75l41 -37l-7 -46l-19 -46l157 129q127 -31 127 -185q0 -95 -48 -172.5t-135 -113.5l-75 -33q-54 8 -82 21l-4 -57l-33 -179h-104zM299 52q44 25 65.5 85t21.5 124q0 114 -54 137l-111 -73l-41 -235q66 -38 119 -38z" />
    <glyph glyph-name="q" unicode="q" horiz-adv-x="489" 
d="M250 -230l52 297l21 51l-149 -133q-63 13 -100 59t-37 126q0 94 49 171t138 115l73 33q99 -2 177 -41l-120 -678h-104zM214 78l104 76l43 246q-45 25 -122 25q-43 -26 -65 -87t-22 -125q0 -56 17.5 -90t44.5 -45z" />
    <glyph glyph-name="r" unicode="r" horiz-adv-x="403" 
d="M58 0l74 415l-88 -30l-12 29l170 75l34 -34l-13 -81l-33 -113l139 218h86l-25 -110h-50q-49 -30 -96 -86l-39 -47l-42 -236h-105z" />
    <glyph glyph-name="s" unicode="s" horiz-adv-x="386" 
d="M129 -15q-26 8 -67.5 25.5t-56.5 27.5l50 84q83 -47 145 -77q39 13 39 53q0 37 -37 68l-89 77q-45 40 -45 92q0 40 28.5 69.5t94.5 55.5l68 29q36 -6 121 -45l-50 -86q-59 39 -133 71q-36 -13 -36 -47q0 -31 39 -65l85 -72q49 -43 49 -97q0 -89 -103 -126z" />
    <glyph glyph-name="t" unicode="t" horiz-adv-x="357" 
d="M130 -15l-68 31l68 390h-94l5 19l41 38h57l12 64l89 76h29l-26 -144h122l-11 -53h-120l-59 -343l130 52l15 -28z" />
    <glyph glyph-name="u" unicode="u" horiz-adv-x="543" 
d="M174 -15q-58 0 -83.5 34t-16.5 85l55 312l-88 -31l-12 29l170 75l40 -39l-54 -314q-11 -57 29 -57q22 0 82 39l45 30l56 326h105l-73 -412l82 52l19 -26l-146 -103l-62 30l8 58l17 35z" />
    <glyph glyph-name="v" unicode="v" horiz-adv-x="465" 
d="M210 -15l-101 22l-12 407l-86 -30l-12 30l172 75l35 -37l2 -352l-10 -54l196 293l-75 91l96 59l45 -53l-22 -126z" />
    <glyph glyph-name="w" unicode="w" horiz-adv-x="697" 
d="M206 -15l-97 22l-12 407l-86 -30l-12 30l169 75l38 -37v-353l-8 -49l143 222l-5 167l109 37v-378l-8 -50l187 290l-73 92l97 59l44 -53l-22 -126l-224 -325l-98 22l-4 146l10 64z" />
    <glyph glyph-name="x" unicode="x" horiz-adv-x="507" 
d="M333 -15l-55 29l-40 131v44l-138 -194h-101l25 104h60q39 10 83 65l47 59l-60 197l-86 -31l-12 29l160 71l41 -36l35 -122v-48l126 196h101l-25 -104h-50q-20 -6 -36 -19t-43 -45l-50 -57l58 -191l88 49l18 -26z" />
    <glyph glyph-name="y" unicode="y" horiz-adv-x="482" 
d="M-9 -235l18 107h87l130 139l-77 -11l-57 412l-82 -29l-15 27l150 79l56 -33l45 -408l164 290l-74 92l97 59l44 -53l-22 -126l-328 -545h-136z" />
    <glyph glyph-name="z" unicode="z" horiz-adv-x="427" 
d="M343 -17l-276 41l-44 -30l-32 22l342 382l-81 -38l-145 19l-28 -28l-27 6l62 126l267 -29l31 20l27 -20l-325 -364l72 30l159 -28l36 34l27 -8z" />
    <glyph glyph-name="braceleft" unicode="{" horiz-adv-x="310" 
d="M152 -230q-65 0 -99.5 38.5t-23.5 101.5l51 285l-55 60l2 14q33 10 51.5 29t24 36.5t11.5 50.5l32 190q11 63 60.5 101.5t114.5 38.5h48l-7 -40h-42q-32 0 -57.5 -25t-33.5 -80l-27 -185q-6 -42 -25 -71.5t-71 -51.5l65 -52l-58 -295q-11 -55 6 -80t48 -25h42l-7 -40h-50
z" />
    <glyph glyph-name="bar" unicode="|" horiz-adv-x="412" 
d="M89 -245l169 963h63l-169 -963h-63z" />
    <glyph glyph-name="braceright" unicode="}" horiz-adv-x="301" 
d="M-67 -230l7 40h42q31 0 57 25t34 80l31 214q6 42 25.5 71.5t71.5 51.5l-66 52l52 266q11 55 -5 80t-47 25h-43l7 40h51q64 0 98.5 -38.5t23.5 -101.5l-45 -256l55 -60l-2 -14q-33 -10 -51.5 -29t-24 -36.5t-11.5 -50.5l-38 -219q-11 -63 -60.5 -101.5t-114.5 -38.5h-47z
" />
    <glyph glyph-name="asciitilde" unicode="~" horiz-adv-x="733" 
d="M73 198l53 91l104 32l341 -56l53 54h40l-56 -96l-98 -28l-344 56l-53 -53h-40z" />
    <glyph glyph-name="uni00A0" unicode="&#xa0;" horiz-adv-x="181" 
 />
    <glyph glyph-name="exclamdown" unicode="&#xa1;" horiz-adv-x="266" 
d="M135 344l-31 6l4 61l16 53l83 6l31 -6l-5 -62l-15 -52zM1 -245l58 277l61 198h47l-12 -197l-42 -278h-112z" />
    <glyph glyph-name="cent" unicode="&#xa2;" horiz-adv-x="446" 
d="M261 68q66 29 115 61l20 -26q-60 -47 -130 -88l-35 -21l-14 -74h-62l13 72q-56 16 -90 64.5t-34 120.5q0 94 52.5 166.5t151.5 115.5l7 3l15 88h63l-12 -62q58 -5 111 -37l-57 -93q-52 37 -119 63q-97 -59 -97 -203q0 -120 102 -150z" />
    <glyph glyph-name="sterling" unicode="&#xa3;" horiz-adv-x="574" 
d="M421 55l54 100h60l-53 -155l-331 3l-138 -3l2 35l101 45l41 235h-87l4 21l39 37h54l27 154q22 125 185 173l61 18q70 -20 119 -57l-63 -78q-20 21 -56.5 45t-60.5 29q-55 -31 -71 -126l-28 -158h170l-10 -58h-170l-31 -180q-8 -42 -52 -83z" />
    <glyph glyph-name="currency" unicode="&#xa4;" 
d="M103 122l-39 47l66 56q-29 54 -17 125q14 77 71 136l-49 60l54 46l50 -62q64 40 133 40q66 0 118 -39l70 59l38 -47l-68 -58q36 -61 23 -135q-11 -67 -62 -126l44 -52l-54 -46l-42 51q-69 -47 -145 -47t-127 46zM304 183q69 0 126.5 49t69.5 118t-28 118t-109 49
t-127 -49t-70 -118t28.5 -118t109.5 -49z" />
    <glyph glyph-name="yen" unicode="&#xa5;" horiz-adv-x="648" 
d="M611 698l81 3l-1 -40l-52 -12l-242 -365l-2 -12h156l-9 -47h-154l-8 -50h154l-9 -48h-152l-12 -75l111 -13l-11 -40l-171 3l-169 -3l1 40l118 13l12 75h-142l8 48h141l8 50h-140l8 47h139l2 12l-153 365l-56 12l11 40l122 -3l138 3v-40l-82 -13l110 -271v-47l203 318
l-80 13l11 40z" />
    <glyph glyph-name="brokenbar" unicode="&#xa6;" horiz-adv-x="411" 
d="M183 288l75 430h62l-75 -430h-62zM89 -245l75 430h62l-75 -430h-62z" />
    <glyph glyph-name="section" unicode="&#xa7;" horiz-adv-x="528" 
d="M157 -245q-33 13 -75 47t-67 61l65 70q21 -24 69.5 -66t75.5 -56l13 10q47 35 47 89q0 46 -24.5 81t-87.5 91q-48 43 -67.5 62.5t-37 52.5t-17.5 70q0 53 33.5 96t85.5 67q-26 40 -26 85q0 136 164 183l69 19q27 -10 66 -38.5t60 -51.5l-73 -59q-19 24 -56 53.5t-64 40.5
l-16 -11q-47 -34 -47 -94q0 -38 20 -73t72 -78l142 -119v-36q0 -42 -10 -74t-32.5 -55.5t-37.5 -34.5t-45 -30q32 -40 32 -102q0 -133 -130 -171zM330 89q56 48 56 112v24l-110 91q-60 51 -87 87q-44 -39 -44 -92q0 -36 25.5 -68.5t86.5 -87.5q52 -46 73 -66z" />
    <glyph glyph-name="dieresis" unicode="&#xa8;" horiz-adv-x="600" 
d="M236 576l-51 6l4 51l19 42l40 6l45 -6l-1 -49l-19 -44zM422 576l-51 6l4 51l19 42l39 6l46 -6l-1 -49l-18 -44z" />
    <glyph glyph-name="copyright" unicode="&#xa9;" horiz-adv-x="833" 
d="M437 -15q-154 2 -260.5 102t-106.5 269q0 153 97.5 243.5t267.5 115.5q154 -2 260.5 -102t106.5 -269q0 -153 -97.5 -243.5t-267.5 -115.5zM435 30q125 0 213 85.5t88 228.5q0 80 -29.5 145t-75 103t-96 58t-98.5 20q-125 0 -213 -85.5t-88 -228.5q0 -80 29.5 -145
t75 -103t96 -58t98.5 -20zM446 141q-87 0 -148.5 54t-61.5 147q0 184 223 217q75 0 138 -41v-88h-38l-18 53q-32 40 -90 40q-59 0 -94.5 -43t-35.5 -121q0 -74 38.5 -127.5t101.5 -53.5q42 0 77 33l30 66h37l-13 -93q-82 -34 -146 -43z" />
    <glyph glyph-name="ordfeminine" unicode="&#xaa;" horiz-adv-x="458" 
d="M154 313q-106 27 -106 151q0 146 149 218l65 31q56 0 140 -33l-53 -305l67 41l16 -22l-120 -81l-57 28l8 44l15 37zM190 387l84 63l32 186q-36 23 -95 23q-67 -63 -67 -165q0 -70 46 -107z" />
    <glyph glyph-name="guillemotleft" unicode="&#xab;" horiz-adv-x="521" 
d="M177 15l-142 220l220 220h64l-166 -221l89 -219h-65zM374 15l-142 220l220 220h64l-166 -221l89 -219h-65z" />
    <glyph glyph-name="logicalnot" unicode="&#xac;" 
d="M497 180v125h-445v70h515v-195h-70z" />
    <glyph glyph-name="uni00AD" unicode="&#xad;" horiz-adv-x="370" 
d="M36 242l15 70h300l-15 -70h-300z" />
    <glyph glyph-name="registered" unicode="&#xae;" horiz-adv-x="595" 
d="M326 685q107 -1 180.5 -69.5t73.5 -184.5q0 -105 -67 -167t-185 -79q-106 1 -179.5 69.5t-73.5 184.5q0 105 67 167t184 79zM326 213q87 0 148 59.5t61 158.5q0 106 -66.5 166t-140.5 60q-86 0 -147 -59.5t-61 -158.5q0 -55 20.5 -100t52 -71.5t66 -40.5t67.5 -14z
M456 327l19 -5l-1 -21l-47 1l-34 -1l-79 119l-5 4h-17v-98l30 -4l-2 -21l-61 1l-63 -1l-2 21l32 4v222l-32 4l2 20l62 -1l94 1q39 0 64 -18t25 -49q0 -55 -91 -71l46 -20zM292 549v-100h26q23 0 38 14t15 39q0 24 -14 37t-36 13z" />
    <glyph glyph-name="macron" unicode="&#xaf;" horiz-adv-x="600" 
d="M186 591l10 62h285l-10 -62h-285z" />
    <glyph glyph-name="degree" unicode="&#xb0;" horiz-adv-x="411" 
d="M271 442q-64 0 -110 46t-46 110q0 60 38.5 95t117.5 60q64 0 109.5 -45.5t45.5 -109.5t-36.5 -100.5t-118.5 -55.5zM271 503q38 0 66 28.5t28 66.5q0 39 -28 66.5t-66 27.5q-39 0 -67 -27.5t-28 -66.5q0 -38 28 -66.5t67 -28.5z" />
    <glyph glyph-name="plusminus" unicode="&#xb1;" 
d="M271 138v218h-223v70h223v227h70v-227h222v-70h-222v-218h-70zM48 0v70h520v-70h-520z" />
    <glyph glyph-name="uni00B2" unicode="&#xb2;" horiz-adv-x="384" 
d="M111 400l-12 27l126 108q114 96 114 167q0 26 -12 42t-33 17l-34 -11l-27 -64h-57l7 68l139 41q110 0 110 -88q0 -91 -154 -188l-115 -73l102 23h142v-27l-26 -42h-270z" />
    <glyph glyph-name="uni00B3" unicode="&#xb3;" horiz-adv-x="343" 
d="M96 399l11 67h136q41 28 41 69q0 50 -81 50l-7 20l28 11q78 31 78 98q0 20 -10 32t-27 12l-35 -8l-26 -62h-65l8 67l143 40q102 0 102 -72q0 -38 -32.5 -63t-80.5 -37q50 -4 75 -25.5t25 -50.5q0 -17 -4.5 -31t-16 -25t-20.5 -19t-28 -16.5t-28 -12.5t-31.5 -12
t-28.5 -10l-61 -22h-65z" />
    <glyph glyph-name="acute" unicode="&#xb4;" horiz-adv-x="600" 
d="M238 553l76 157h117l-144 -157h-49z" />
    <glyph glyph-name="uni00B5" unicode="&#xb5;" 
d="M1 -230l122 704h104l-58 -338q-5 -28 3 -42.5t27 -14.5q23 0 81 38l46 31l57 326h104l-72 -409l82 49l19 -26l-146 -104l-62 31l7 58l17 35l-173 -124q-37 0 -60 14l2 -31l23 -197h-123z" />
    <glyph glyph-name="paragraph" unicode="&#xb6;" horiz-adv-x="522" 
d="M193 -159v556q-65 0 -107.5 36.5t-42.5 98.5q0 46 37.5 83t113.5 85h285v-53l-52 -10v-796h-65v796h-103v-796h-66z" />
    <glyph glyph-name="periodcentered" unicode="&#xb7;" horiz-adv-x="445" 
d="M209 340l-32 5l6 62l15 53l83 6l31 -6l-4 -61l-16 -54z" />
    <glyph glyph-name="cedilla" unicode="&#xb8;" horiz-adv-x="600" 
d="M141 -243l29 43h78q33 20 33 60q0 31 -23.5 45.5t-55.5 14.5l84 97h44l-53 -64q34 0 57.5 -17.5t23.5 -49.5q0 -73 -107 -111l-51 -18h-59z" />
    <glyph glyph-name="uni00B9" unicode="&#xb9;" horiz-adv-x="349" 
d="M114 399l2 29l88 10l48 275l10 16l-32 -17l-60 -9l-8 27l145 58h46l-62 -350l87 -10l-8 -29l-126 2z" />
    <glyph glyph-name="ordmasculine" unicode="&#xba;" horiz-adv-x="448" 
d="M199 313q-63 0 -106 42t-43 117q0 73 42 131t119 89l51 21q64 0 107.5 -42.5t43.5 -117.5q0 -74 -42 -131t-120 -88zM232 359q43 17 64.5 68t21.5 107q0 59 -24.5 92t-63.5 41q-43 -18 -63.5 -68.5t-20.5 -107.5q0 -114 86 -132z" />
    <glyph glyph-name="guillemotright" unicode="&#xbb;" horiz-adv-x="523" 
d="M4 15l165 219l-88 221h64l144 -220l-220 -220h-65zM201 15l165 219l-88 221h64l144 -220l-220 -220h-65z" />
    <glyph glyph-name="onequarter" unicode="&#xbc;" horiz-adv-x="912" 
d="M166 -50l521 760h65l-519 -760h-67zM96 314l2 29l88 10l48 275l10 16l-32 -17l-60 -9l-8 27l145 58h46l-62 -350l87 -10l-8 -29l-126 2zM699 0l20 119h-149l-19 41l222 232h85l-6 -34l-252 -193l39 14h90l8 41l69 48h16l-16 -89h75l-9 -60h-76l-20 -119h-77z" />
    <glyph glyph-name="onehalf" unicode="&#xbd;" horiz-adv-x="915" 
d="M166 -50l521 760h65l-519 -760h-67zM96 314l2 29l88 10l48 275l10 16l-32 -17l-60 -9l-8 27l145 58h46l-62 -350l87 -10l-8 -29l-126 2zM557 0l-12 27l126 108q114 96 114 167q0 26 -12 42t-33 17l-34 -11l-27 -64h-57l7 68l139 41q110 0 110 -88q0 -91 -154 -188
l-115 -73l102 23h142v-27l-26 -42h-270z" />
    <glyph glyph-name="threequarters" unicode="&#xbe;" horiz-adv-x="906" 
d="M78 314l11 67h136q41 28 41 69q0 50 -81 50l-7 20l28 11q78 31 78 98q0 20 -10 32t-27 12l-35 -8l-26 -62h-65l8 67l143 40q102 0 102 -72q0 -38 -32.5 -63t-80.5 -37q50 -4 75 -25.5t25 -50.5q0 -17 -4.5 -31t-16 -25t-20.5 -19t-28 -16.5t-28 -12.5t-31.5 -12
t-28.5 -10l-61 -22h-65zM160 -50l521 760h65l-519 -760h-67zM693 0l20 119h-149l-19 41l222 232h85l-6 -34l-252 -193l39 14h90l8 41l69 48h16l-16 -89h75l-9 -60h-76l-20 -119h-77z" />
    <glyph glyph-name="questiondown" unicode="&#xbf;" horiz-adv-x="384" 
d="M267 344l-31 6l5 61l16 53l83 6l31 -6l-5 -62l-16 -52zM138 -245q-60 0 -105 44t-45 111q0 124 153 189l64 27l41 119h55l-20 -118l-85 -48q-42 -23 -63.5 -62t-21.5 -82t17.5 -80t51.5 -45l47 15l17 74h74l1 -78z" />
    <glyph glyph-name="Agrave" unicode="&#xc0;" horiz-adv-x="678" 
d="M493 768h-52l-90 134h121zM582 50l70 -11l-10 -40l-147 3l-124 -3l1 40l81 13l-16 179h-223l-97 -179l81 -13l-11 -40l-105 3l-103 -3v40l72 11l369 644l95 24zM242 282h190l-22 244l3 70z" />
    <glyph glyph-name="Aacute" unicode="&#xc1;" horiz-adv-x="678" 
d="M638 902l-139 -134h-55l63 134h131zM582 50l70 -11l-10 -40l-147 3l-124 -3l1 40l81 13l-16 179h-223l-97 -179l81 -13l-11 -40l-105 3l-103 -3v40l72 11l369 644l95 24zM242 282h190l-22 244l3 70z" />
    <glyph glyph-name="Acircumflex" unicode="&#xc2;" horiz-adv-x="678" 
d="M475 836l-90 -68h-62l117 134h94l69 -134h-61zM582 50l70 -11l-10 -40l-147 3l-124 -3l1 40l81 13l-16 179h-223l-97 -179l81 -13l-11 -40l-105 3l-103 -3v40l72 11l369 644l95 24zM242 282h190l-22 244l3 70z" />
    <glyph glyph-name="Atilde" unicode="&#xc3;" horiz-adv-x="678" 
d="M392 829l-45 -55h-26l44 101l72 22l148 -58l46 56h25l-46 -106l-69 -17zM515 718l67 -668l70 -11l-10 -40l-147 3l-124 -3l1 40l81 13l-16 179h-223l-97 -179l81 -13l-11 -40l-105 3l-103 -3v40l72 11l369 644zM242 282h190l-22 244l3 70z" />
    <glyph glyph-name="Adieresis" unicode="&#xc4;" horiz-adv-x="678" 
d="M410 766l-42 -6l-54 6l4 57l20 44l40 5l52 -5l-1 -52zM630 766l-41 -6l-54 6l4 57l20 44l40 5l52 -5l-1 -52zM582 50l70 -11l-10 -40l-147 3l-124 -3l1 40l81 13l-16 179h-223l-97 -179l81 -13l-11 -40l-105 3l-103 -3v40l72 11l369 644l95 24zM242 282h190l-22 244l3 70
z" />
    <glyph glyph-name="Aring" unicode="&#xc5;" horiz-adv-x="678" 
d="M496 743q-47 0 -79 22.5t-32 73.5q0 23 8.5 40.5t26 28.5t33 17.5t40.5 13.5q108 0 108 -100q0 -17 -4.5 -30.5t-9.5 -21t-17.5 -15t-20 -10.5t-26 -9.5t-27.5 -9.5zM494 896q-24 0 -40.5 -16.5t-16.5 -40.5t16.5 -38.5t40.5 -14.5t40.5 14.5t16.5 38.5t-16.5 40.5
t-40.5 16.5zM582 50l70 -11l-10 -40l-147 3l-124 -3l1 40l81 13l-16 179h-223l-97 -179l81 -13l-11 -40l-105 3l-103 -3v40l72 11l369 644l95 24zM242 282h190l-22 244l3 70z" />
    <glyph glyph-name="AE" unicode="&#xc6;" horiz-adv-x="890" 
d="M-25 -1l2 40l72 11l415 651l89 -3l352 3v-174h-39l-45 118l-214 3l-45 -284l108 4l63 116h31l-38 -145l-9 -148h-30l-26 117l-107 4l-40 -261l229 3l78 139h42l-46 -194l-375 2l-132 -2l1 40l86 13l41 261h-158l-161 -261l81 -13l-12 -40l-109 3zM308 362h138l48 293z
" />
    <glyph glyph-name="Ccedilla" unicode="&#xc7;" horiz-adv-x="630" 
d="M375 660q-95 -44 -144.5 -134t-49.5 -214q0 -125 56.5 -194.5t141.5 -76.5q67 27 111 67l60 117h60l-42 -176l-230 -66l-25 -30q34 0 57.5 -17.5t23.5 -49.5q0 -73 -107 -111l-51 -18h-59l29 43h78q33 20 33 60q0 31 -23.5 45.5t-55.5 14.5l56 64q-114 13 -179.5 93.5
t-65.5 209.5q0 130 67.5 239.5t213.5 160.5l94 33q125 0 211 -74l-11 -155h-58l-16 97q-51 53 -175 72z" />
    <glyph glyph-name="Egrave" unicode="&#xc8;" horiz-adv-x="600" 
d="M365 768l-90 134h121l21 -134h-52zM-10 -1l1 40l86 13l95 597l-83 13l11 39l137 -3l378 3v-178h-42l-46 123l-234 3l-40 -258l128 4l62 106h36l-36 -134l-8 -134h-37l-25 106l-128 4l-47 -292l259 3l78 135h45l-46 -190l-408 3z" />
    <glyph glyph-name="Eacute" unicode="&#xc9;" horiz-adv-x="600" 
d="M368 768l63 134h131l-139 -134h-55zM-10 -1l1 40l86 13l95 597l-83 13l11 39l137 -3l378 3v-178h-42l-46 123l-234 3l-40 -258l128 4l62 106h36l-36 -134l-8 -134h-37l-25 106l-128 4l-47 -292l259 3l78 135h45l-46 -190l-408 3z" />
    <glyph glyph-name="Ecircumflex" unicode="&#xca;" horiz-adv-x="600" 
d="M247 768l117 134h94l69 -134h-61l-67 68l-90 -68h-62zM-10 -1l1 40l86 13l95 597l-83 13l11 39l137 -3l378 3v-178h-42l-46 123l-234 3l-40 -258l128 4l62 106h36l-36 -134l-8 -134h-37l-25 106l-128 4l-47 -292l259 3l78 135h45l-46 -190l-408 3z" />
    <glyph glyph-name="Edieresis" unicode="&#xcb;" horiz-adv-x="600" 
d="M292 760l-54 6l4 57l20 44l40 5l52 -5l-1 -52l-19 -49zM513 760l-54 6l4 57l20 44l40 5l52 -5l-1 -52l-20 -49zM-10 -1l1 40l86 13l95 597l-83 13l11 39l137 -3l378 3v-178h-42l-46 123l-234 3l-40 -258l128 4l62 106h36l-36 -134l-8 -134h-37l-25 106l-128 4l-47 -292
l259 3l78 135h45l-46 -190l-408 3z" />
    <glyph glyph-name="Igrave" unicode="&#xcc;" horiz-adv-x="328" 
d="M223 768l-90 134h121l21 -134h-52zM-9 -1l2 40l85 13l95 596l-82 13l11 40l141 -3l136 3l-1 -40l-83 -13l-96 -596l79 -13l-11 -40l-138 3z" />
    <glyph glyph-name="Iacute" unicode="&#xcd;" horiz-adv-x="328" 
d="M226 768l63 134h131l-139 -134h-55zM-9 -1l2 40l85 13l95 596l-82 13l11 40l141 -3l136 3l-1 -40l-83 -13l-96 -596l79 -13l-11 -40l-138 3z" />
    <glyph glyph-name="Icircumflex" unicode="&#xce;" horiz-adv-x="328" 
d="M105 768l117 134h94l69 -134h-61l-67 68l-90 -68h-62zM-9 -1l2 40l85 13l95 596l-82 13l11 40l141 -3l136 3l-1 -40l-83 -13l-96 -596l79 -13l-11 -40l-138 3z" />
    <glyph glyph-name="Idieresis" unicode="&#xcf;" horiz-adv-x="328" 
d="M150 760l-54 6l4 57l20 44l40 5l52 -5l-1 -52l-19 -49zM371 760l-54 6l4 57l20 44l40 5l52 -5l-1 -52l-20 -49zM-9 -1l2 40l85 13l95 596l-82 13l11 40l141 -3l136 3l-1 -40l-83 -13l-96 -596l79 -13l-11 -40l-138 3z" />
    <glyph glyph-name="Eth" unicode="&#xd0;" horiz-adv-x="681" 
d="M406 701q126 1 199.5 -79.5t73.5 -214.5q0 -78 -28.5 -148.5t-96 -134t-167.5 -97.5l-80 -28l-178 3l-138 -3v40l85 13l46 285h-84l10 52h82l42 263l-84 10l11 39l141 -3zM361 61q80 45 132.5 131t52.5 200q0 121 -52 189t-131 72h-70l-42 -264h117l-9 -52h-116l-44 -276
h162z" />
    <glyph glyph-name="Ntilde" unicode="&#xd1;" horiz-adv-x="704" 
d="M499 772l-149 57l-45 -55h-26l44 101l72 22l148 -58l46 56h25l-46 -106zM-10 -1l1 40l85 13l94 591l-79 18l11 40l91 -3l88 3l239 -463l15 -89l72 499l-78 13l11 40l104 -3l116 3l-1 -40l-87 -13l-102 -648h-73l-259 516l-11 92l-85 -556l83 -13l-11 -40l-111 3z" />
    <glyph glyph-name="Ograve" unicode="&#xd2;" horiz-adv-x="707" 
d="M416 768l-90 134h121l21 -134h-52zM327 -18q-129 0 -203.5 82.5t-74.5 223.5q0 62 16 121t49.5 114.5t91.5 100t134 68.5l83 26q129 0 203.5 -82.5t74.5 -223.5q0 -62 -16 -121t-49.5 -114.5t-91.5 -100t-134 -68.5zM367 39q95 39 148 135.5t53 223.5q0 118 -51 184
t-135 79q-95 -39 -148 -135.5t-53 -223.5q0 -118 51 -184t135 -79z" />
    <glyph glyph-name="Oacute" unicode="&#xd3;" horiz-adv-x="707" 
d="M419 768l63 134h131l-139 -134h-55zM327 -18q-129 0 -203.5 82.5t-74.5 223.5q0 62 16 121t49.5 114.5t91.5 100t134 68.5l83 26q129 0 203.5 -82.5t74.5 -223.5q0 -62 -16 -121t-49.5 -114.5t-91.5 -100t-134 -68.5zM367 39q95 39 148 135.5t53 223.5q0 118 -51 184
t-135 79q-95 -39 -148 -135.5t-53 -223.5q0 -118 51 -184t135 -79z" />
    <glyph glyph-name="Ocircumflex" unicode="&#xd4;" horiz-adv-x="707" 
d="M298 768l117 134h94l69 -134h-61l-67 68l-90 -68h-62zM327 -18q-129 0 -203.5 82.5t-74.5 223.5q0 62 16 121t49.5 114.5t91.5 100t134 68.5l83 26q129 0 203.5 -82.5t74.5 -223.5q0 -62 -16 -121t-49.5 -114.5t-91.5 -100t-134 -68.5zM367 39q95 39 148 135.5t53 223.5
q0 118 -51 184t-135 79q-95 -39 -148 -135.5t-53 -223.5q0 -118 51 -184t135 -79z" />
    <glyph glyph-name="Otilde" unicode="&#xd5;" horiz-adv-x="707" 
d="M516 772l-149 57l-45 -55h-26l44 101l72 22l148 -58l46 56h25l-46 -106zM327 -18q-129 0 -203.5 82.5t-74.5 223.5q0 62 16 121t49.5 114.5t91.5 100t134 68.5l83 26q129 0 203.5 -82.5t74.5 -223.5q0 -62 -16 -121t-49.5 -114.5t-91.5 -100t-134 -68.5zM367 39
q95 39 148 135.5t53 223.5q0 118 -51 184t-135 79q-95 -39 -148 -135.5t-53 -223.5q0 -118 51 -184t135 -79z" />
    <glyph glyph-name="Odieresis" unicode="&#xd6;" horiz-adv-x="707" 
d="M343 760l-54 6l4 57l20 44l40 5l52 -5l-1 -52l-19 -49zM564 760l-54 6l4 57l20 44l40 5l52 -5l-1 -52l-20 -49zM327 -18q-129 0 -203.5 82.5t-74.5 223.5q0 62 16 121t49.5 114.5t91.5 100t134 68.5l83 26q129 0 203.5 -82.5t74.5 -223.5q0 -62 -16 -121t-49.5 -114.5
t-91.5 -100t-134 -68.5zM367 39q95 39 148 135.5t53 223.5q0 118 -51 184t-135 79q-95 -39 -148 -135.5t-53 -223.5q0 -118 51 -184t135 -79z" />
    <glyph glyph-name="multiply" unicode="&#xd7;" 
d="M147 11l-50 50l164 162l-164 164l49 50l164 -164l163 163l49 -50l-163 -163l163 -162l-50 -49l-162 162z" />
    <glyph glyph-name="Oslash" unicode="&#xd8;" horiz-adv-x="707" 
d="M714 715l-78 -91q65 -80 65 -212q0 -62 -16 -121t-49.5 -114.5t-91.5 -100t-134 -68.5l-83 -26q-116 0 -188 67l-56 -64h-61l86 99q-59 81 -59 204q0 62 16 121t49.5 114.5t91.5 100t134 68.5l83 26q109 0 181 -61l51 58h59zM181 302q0 -62 16 -115l330 380
q-49 79 -145 94q-95 -39 -148 -135.5t-53 -223.5zM568 398q0 71 -20 125l-330 -382q48 -87 149 -102q95 39 148 135.5t53 223.5z" />
    <glyph glyph-name="Ugrave" unicode="&#xd9;" horiz-adv-x="677" 
d="M412 768l-90 134h121l21 -134h-52zM295 -18q-241 0 -200 260l65 406l-82 13l11 40l134 -3l145 3l-1 -40l-82 -13l-70 -421q-13 -76 27.5 -129.5t124.5 -53.5q63 25 93.5 64t44.5 125l67 415l-88 13l11 40l119 -3l123 3l-1 -40l-88 -13l-65 -410q-15 -94 -60 -150
t-151 -85z" />
    <glyph glyph-name="Uacute" unicode="&#xda;" horiz-adv-x="677" 
d="M415 768l63 134h131l-139 -134h-55zM295 -18q-241 0 -200 260l65 406l-82 13l11 40l134 -3l145 3l-1 -40l-82 -13l-70 -421q-13 -76 27.5 -129.5t124.5 -53.5q63 25 93.5 64t44.5 125l67 415l-88 13l11 40l119 -3l123 3l-1 -40l-88 -13l-65 -410q-15 -94 -60 -150
t-151 -85z" />
    <glyph glyph-name="Ucircumflex" unicode="&#xdb;" horiz-adv-x="677" 
d="M294 768l117 134h94l69 -134h-61l-67 68l-90 -68h-62zM295 -18q-241 0 -200 260l65 406l-82 13l11 40l134 -3l145 3l-1 -40l-82 -13l-70 -421q-13 -76 27.5 -129.5t124.5 -53.5q63 25 93.5 64t44.5 125l67 415l-88 13l11 40l119 -3l123 3l-1 -40l-88 -13l-65 -410
q-15 -94 -60 -150t-151 -85z" />
    <glyph glyph-name="Udieresis" unicode="&#xdc;" horiz-adv-x="677" 
d="M339 760l-54 6l4 57l20 44l40 5l52 -5l-1 -52l-19 -49zM560 760l-54 6l4 57l20 44l40 5l52 -5l-1 -52l-20 -49zM295 -18q-241 0 -200 260l65 406l-82 13l11 40l134 -3l145 3l-1 -40l-82 -13l-70 -421q-13 -76 27.5 -129.5t124.5 -53.5q63 25 93.5 64t44.5 125l67 415
l-88 13l11 40l119 -3l123 3l-1 -40l-88 -13l-65 -410q-15 -94 -60 -150t-151 -85z" />
    <glyph glyph-name="Yacute" unicode="&#xdd;" horiz-adv-x="640" 
d="M395 768l63 134h131l-139 -134h-55zM132 -1l1 40l118 13l36 232l-153 365l-56 12l10 40l123 -3l138 3v-40l-82 -13l110 -271v-47l202 318l-79 13l10 40l112 -3l81 3l-1 -40l-53 -12l-241 -366l-36 -231l110 -13l-11 -40l-170 3z" />
    <glyph glyph-name="Thorn" unicode="&#xde;" horiz-adv-x="571" 
d="M-10 -1l1 40l86 13l95 596l-83 13l12 41l141 -3l136 3l-2 -41l-83 -13l-14 -91l113 2q92 1 145.5 -40.5t53.5 -113.5q0 -80 -55.5 -133t-170.5 -94l-64 -22h-87l-16 -104l101 -13l-11 -40l-160 3zM225 221h140q43 26 69.5 69.5t26.5 95.5q0 122 -112 126h-78z" />
    <glyph glyph-name="germandbls" unicode="&#xdf;" horiz-adv-x="552" 
d="M-114 -235l18 95h98q31 36 41 87l80 460h-97l5 19l42 37h60l7 42q15 96 73 131l132 80q177 -4 177 -119q0 -76 -97 -142l-57 -42q-7 -9 -7 -27q0 -23 14 -43.5t48 -49.5q33 -28 49.5 -44t32 -44.5t15.5 -59.5q0 -47 -25.5 -78.5t-84.5 -51.5l-93 -32q-56 21 -108 60
l54 77q64 -52 113 -77q47 13 47 61q0 9 -2 18.5t-4.5 16t-8.5 15.5t-9.5 14t-13 14.5l-13.5 13.5t-15.5 15t-15.5 14q-35 32 -52 58.5t-17 60.5q0 33 15 55l50 45q74 67 74 137q0 43 -23 64.5t-54 24.5q-42 -31 -60 -60t-26 -72l-97 -560q-16 -86 -90 -136l-118 -77h-57z
" />
    <glyph glyph-name="agrave" unicode="&#xe0;" horiz-adv-x="506" 
d="M318 553l-79 157h113l11 -157h-45zM164 -15q-128 33 -128 189q0 188 184 278l76 37q63 -1 171 -42l-68 -385l82 52l19 -26l-146 -103l-67 34l10 57l19 46zM207 74l104 82l42 237q-20 13 -54.5 21.5t-62.5 8.5q-86 -81 -86 -216q0 -91 57 -133z" />
    <glyph glyph-name="aacute" unicode="&#xe1;" horiz-adv-x="506" 
d="M304 553l76 157h117l-144 -157h-49zM164 -15q-128 33 -128 189q0 188 184 278l76 37q63 -1 171 -42l-68 -385l82 52l19 -26l-146 -103l-67 34l10 57l19 46zM207 74l104 82l42 237q-20 13 -54.5 21.5t-62.5 8.5q-86 -81 -86 -216q0 -91 57 -133z" />
    <glyph glyph-name="acircumflex" unicode="&#xe2;" horiz-adv-x="506" 
d="M204 553l121 156h77l60 -156h-48l-65 82l-96 -82h-49zM164 -15q-128 33 -128 189q0 188 184 278l76 37q63 -1 171 -42l-68 -385l82 52l19 -26l-146 -103l-67 34l10 57l19 46zM207 74l104 82l42 237q-20 13 -54.5 21.5t-62.5 8.5q-86 -81 -86 -216q0 -91 57 -133z" />
    <glyph glyph-name="atilde" unicode="&#xe3;" horiz-adv-x="506" 
d="M413 565l-149 57l-45 -55h-25l44 101l71 22l147 -58l46 56h25l-46 -107zM164 -15q-128 33 -128 189q0 188 184 278l76 37q63 -1 171 -42l-68 -385l82 52l19 -26l-146 -103l-67 34l10 57l19 46zM207 74l104 82l42 237q-20 13 -54.5 21.5t-62.5 8.5q-86 -81 -86 -216
q0 -91 57 -133z" />
    <glyph glyph-name="adieresis" unicode="&#xe4;" horiz-adv-x="506" 
d="M246 576l-51 6l4 51l19 42l40 6l45 -6l-1 -49l-19 -44zM432 576l-51 6l4 51l19 42l39 6l46 -6l-1 -49l-18 -44zM164 -15q-128 33 -128 189q0 188 184 278l76 37q63 -1 171 -42l-68 -385l82 52l19 -26l-146 -103l-67 34l10 57l19 46zM207 74l104 82l42 237
q-20 13 -54.5 21.5t-62.5 8.5q-86 -81 -86 -216q0 -91 57 -133z" />
    <glyph glyph-name="aring" unicode="&#xe5;" horiz-adv-x="506" 
d="M361 541q-45 0 -76 22t-31 71q0 43 26.5 63t77.5 34q105 0 105 -97q0 -20 -4 -33.5t-17 -23t-19 -13.5t-30.5 -12t-31.5 -11zM359 580q24 0 41 15t17 39t-17 41t-41 17t-40.5 -17t-16.5 -41t16.5 -39t40.5 -15zM164 -15q-128 33 -128 189q0 188 184 278l76 37
q63 -1 171 -42l-68 -385l82 52l19 -26l-146 -103l-67 34l10 57l19 46zM207 74l104 82l42 237q-20 13 -54.5 21.5t-62.5 8.5q-86 -81 -86 -216q0 -91 57 -133z" />
    <glyph glyph-name="ae" unicode="&#xe6;" horiz-adv-x="683" 
d="M648 292l-257 -79v-2q0 -52 26.5 -94t75.5 -49q65 26 125 63l19 -27q-75 -54 -147 -92l-50 -27q-52 4 -92 33.5t-57 79.5l-127 -113q-132 33 -132 189q0 187 184 278l77 37q70 -2 164 -39l100 39q107 -21 107 -110q0 -36 -16 -87zM501 435q-43 -20 -71.5 -71.5
t-36.5 -114.5l149 59q10 33 10 57q0 61 -51 70zM278 169q0 131 86 219q-65 35 -131 35q-86 -81 -86 -216q0 -90 60 -133l74 57q-3 18 -3 38z" />
    <glyph glyph-name="ccedilla" unicode="&#xe7;" horiz-adv-x="426" 
d="M209 -15l-27 -32q34 0 57.5 -17.5t23.5 -49.5q0 -73 -107 -111l-51 -18h-59l29 43h78q33 20 33 60q0 31 -23.5 45.5t-55.5 14.5l61 70q-59 15 -95 63.5t-36 123.5q0 94 52.5 166.5t151.5 115.5l66 30q58 -4 118 -38l-57 -93q-52 37 -119 63q-97 -59 -97 -203
q0 -120 102 -150q66 29 115 61l20 -26q-60 -47 -130 -88z" />
    <glyph glyph-name="egrave" unicode="&#xe8;" horiz-adv-x="442" 
d="M334 553h-45l-79 157h113zM407 292l-256 -79v-3q0 -55 28.5 -95.5t72.5 -46.5q67 26 125 63l19 -27q-69 -51 -147 -92l-50 -27q-73 7 -117.5 58t-44.5 128q0 100 54 178t145 111l80 29q107 -21 107 -110q0 -35 -16 -87zM260 435q-42 -20 -70.5 -70t-36.5 -116l148 59
q10 34 10 57q0 61 -51 70z" />
    <glyph glyph-name="eacute" unicode="&#xe9;" horiz-adv-x="442" 
d="M468 710l-144 -157h-49l76 157h117zM316 489q107 -21 107 -110q0 -35 -16 -87l-256 -79v-3q0 -55 28.5 -95.5t72.5 -46.5q67 26 125 63l19 -27q-69 -51 -147 -92l-50 -27q-73 7 -117.5 58t-44.5 128q0 100 54 178t145 111zM301 308q10 34 10 57q0 61 -51 70
q-42 -20 -70.5 -70t-36.5 -116z" />
    <glyph glyph-name="ecircumflex" unicode="&#xea;" horiz-adv-x="442" 
d="M320 635l-96 -82h-49l121 156h77l60 -156h-48zM316 489q107 -21 107 -110q0 -35 -16 -87l-256 -79v-3q0 -55 28.5 -95.5t72.5 -46.5q67 26 125 63l19 -27q-69 -51 -147 -92l-50 -27q-73 7 -117.5 58t-44.5 128q0 100 54 178t145 111zM301 308q10 34 10 57q0 61 -51 70
q-42 -20 -70.5 -70t-36.5 -116z" />
    <glyph glyph-name="edieresis" unicode="&#xeb;" horiz-adv-x="442" 
d="M254 582l-37 -6l-51 6l4 51l19 42l40 6l45 -6l-1 -49zM414 681l46 -6l-1 -49l-18 -44l-38 -6l-51 6l4 51l19 42zM316 489q107 -21 107 -110q0 -35 -16 -87l-256 -79v-3q0 -55 28.5 -95.5t72.5 -46.5q67 26 125 63l19 -27q-69 -51 -147 -92l-50 -27q-73 7 -117.5 58
t-44.5 128q0 100 54 178t145 111zM301 308q10 34 10 57q0 61 -51 70q-42 -20 -70.5 -70t-36.5 -116z" />
    <glyph glyph-name="igrave" unicode="&#xec;" horiz-adv-x="297" 
d="M192 553l-79 157h113l11 -157h-45zM130 -15l-67 35l70 396l-89 -31l-12 29l170 75l41 -40l-68 -386l82 52l19 -26z" />
    <glyph glyph-name="iacute" unicode="&#xed;" horiz-adv-x="297" 
d="M178 553l76 157h117l-144 -157h-49zM130 -15l-67 35l70 396l-89 -31l-12 29l170 75l41 -40l-68 -386l82 52l19 -26z" />
    <glyph glyph-name="icircumflex" unicode="&#xee;" horiz-adv-x="297" 
d="M78 553l121 156h77l60 -156h-48l-65 82l-96 -82h-49zM130 -15l-67 35l70 396l-89 -31l-12 29l170 75l41 -40l-68 -386l82 52l19 -26z" />
    <glyph glyph-name="idieresis" unicode="&#xef;" horiz-adv-x="297" 
d="M120 576l-51 6l4 51l19 42l40 6l45 -6l-1 -49l-19 -44zM306 576l-51 6l4 51l19 42l39 6l46 -6l-1 -49l-18 -44zM130 -15l-67 35l70 396l-89 -31l-12 29l170 75l41 -40l-68 -386l82 52l19 -26z" />
    <glyph glyph-name="eth" unicode="&#xf0;" horiz-adv-x="548" 
d="M397 624q128 -100 128 -270q0 -313 -295 -369q-87 6 -141.5 62.5t-54.5 151.5q0 116 70.5 193.5t183.5 82.5l120 -63q-12 113 -82 180l-110 -49l-11 47l79 35q-41 27 -90 44l16 47q83 -26 142 -61l129 58l11 -47zM244 33q64 0 115.5 93.5t51.5 234.5v2l-18 12
q-53 34 -92 34q-66 0 -105.5 -62.5t-39.5 -163.5q0 -69 24.5 -109.5t63.5 -40.5z" />
    <glyph glyph-name="ntilde" unicode="&#xf1;" horiz-adv-x="548" 
d="M414 565l-149 57l-45 -55h-25l44 101l71 22l147 -58l46 56h25l-46 -107zM393 -15l-68 34l56 316q11 60 -29 60q-35 0 -84 -34l-46 -30l-59 -331h-104l73 415l-88 -30l-12 29l170 75l41 -39l-9 -44l-15 -32l174 115q59 0 84 -32.5t16 -86.5l-55 -308l83 52l18 -26z" />
    <glyph glyph-name="ograve" unicode="&#xf2;" horiz-adv-x="495" 
d="M293 553l-79 157h113l11 -157h-45zM216 -15q-75 0 -127 52.5t-52 145.5t52 167t147 113l63 26q75 0 127 -53.5t52 -146.5q0 -94 -52 -168t-146 -111zM256 40q54 22 81 88.5t27 138.5q0 75 -29 115.5t-77 49.5q-54 -21 -80 -87t-26 -140q0 -143 104 -165z" />
    <glyph glyph-name="oacute" unicode="&#xf3;" horiz-adv-x="495" 
d="M279 553l76 157h117l-144 -157h-49zM216 -15q-75 0 -127 52.5t-52 145.5t52 167t147 113l63 26q75 0 127 -53.5t52 -146.5q0 -94 -52 -168t-146 -111zM256 40q54 22 81 88.5t27 138.5q0 75 -29 115.5t-77 49.5q-54 -21 -80 -87t-26 -140q0 -143 104 -165z" />
    <glyph glyph-name="ocircumflex" unicode="&#xf4;" horiz-adv-x="495" 
d="M179 553l121 156h77l60 -156h-48l-65 82l-96 -82h-49zM216 -15q-75 0 -127 52.5t-52 145.5t52 167t147 113l63 26q75 0 127 -53.5t52 -146.5q0 -94 -52 -168t-146 -111zM256 40q54 22 81 88.5t27 138.5q0 75 -29 115.5t-77 49.5q-54 -21 -80 -87t-26 -140
q0 -143 104 -165z" />
    <glyph glyph-name="otilde" unicode="&#xf5;" horiz-adv-x="495" 
d="M388 565l-149 57l-45 -55h-25l44 101l71 22l147 -58l46 56h25l-46 -107zM216 -15q-75 0 -127 52.5t-52 145.5t52 167t147 113l63 26q75 0 127 -53.5t52 -146.5q0 -94 -52 -168t-146 -111zM256 40q54 22 81 88.5t27 138.5q0 75 -29 115.5t-77 49.5q-54 -21 -80 -87
t-26 -140q0 -143 104 -165z" />
    <glyph glyph-name="odieresis" unicode="&#xf6;" horiz-adv-x="495" 
d="M221 576l-51 6l4 51l19 42l40 6l45 -6l-1 -49l-19 -44zM407 576l-51 6l4 51l19 42l39 6l46 -6l-1 -49l-18 -44zM216 -15q-75 0 -127 52.5t-52 145.5t52 167t147 113l63 26q75 0 127 -53.5t52 -146.5q0 -94 -52 -168t-146 -111zM256 40q54 22 81 88.5t27 138.5
q0 75 -29 115.5t-77 49.5q-54 -21 -80 -87t-26 -140q0 -143 104 -165z" />
    <glyph glyph-name="divide" unicode="&#xf7;" 
d="M286 366l-32 5l-6 62l6 53l82 6l32 -6l6 -61l-6 -54zM47 214v70h525v-70h-525zM286 -6l-32 6l-6 62l6 52l82 6l32 -6l6 -60l-6 -54z" />
    <glyph glyph-name="oslash" unicode="&#xf8;" horiz-adv-x="495" 
d="M511 483l-66 -71q33 -53 33 -123q0 -94 -52 -168t-146 -111l-64 -25q-72 0 -123 49l-34 -37h-58l65 70q-29 50 -29 116q0 93 52 167t147 113l63 26q70 0 119 -46l37 40h56zM152 205q0 -23 3 -43l190 203q-26 55 -87 67q-54 -21 -80 -87t-26 -140zM364 267q0 26 -5 53
l-191 -206q25 -61 88 -74q54 22 81 88.5t27 138.5z" />
    <glyph glyph-name="ugrave" unicode="&#xf9;" horiz-adv-x="543" 
d="M317 553l-79 157h113l11 -157h-45zM174 -15q-58 0 -83.5 34t-16.5 85l55 312l-88 -31l-12 29l170 75l40 -39l-54 -314q-11 -57 29 -57q22 0 82 39l45 30l56 326h105l-73 -412l82 52l19 -26l-146 -103l-62 30l8 58l17 35z" />
    <glyph glyph-name="uacute" unicode="&#xfa;" horiz-adv-x="543" 
d="M303 553l76 157h117l-144 -157h-49zM174 -15q-58 0 -83.5 34t-16.5 85l55 312l-88 -31l-12 29l170 75l40 -39l-54 -314q-11 -57 29 -57q22 0 82 39l45 30l56 326h105l-73 -412l82 52l19 -26l-146 -103l-62 30l8 58l17 35z" />
    <glyph glyph-name="ucircumflex" unicode="&#xfb;" horiz-adv-x="543" 
d="M203 553l121 156h77l60 -156h-48l-65 82l-96 -82h-49zM174 -15q-58 0 -83.5 34t-16.5 85l55 312l-88 -31l-12 29l170 75l40 -39l-54 -314q-11 -57 29 -57q22 0 82 39l45 30l56 326h105l-73 -412l82 52l19 -26l-146 -103l-62 30l8 58l17 35z" />
    <glyph glyph-name="udieresis" unicode="&#xfc;" horiz-adv-x="543" 
d="M245 576l-51 6l4 51l19 42l40 6l45 -6l-1 -49l-19 -44zM431 576l-51 6l4 51l19 42l39 6l46 -6l-1 -49l-18 -44zM174 -15q-58 0 -83.5 34t-16.5 85l55 312l-88 -31l-12 29l170 75l40 -39l-54 -314q-11 -57 29 -57q22 0 82 39l45 30l56 326h105l-73 -412l82 52l19 -26
l-146 -103l-62 30l8 58l17 35z" />
    <glyph glyph-name="yacute" unicode="&#xfd;" horiz-adv-x="482" 
d="M272 553l76 157h117l-144 -157h-49zM-9 -235l18 107h87l130 139l-77 -11l-57 412l-82 -29l-15 27l150 79l56 -33l45 -408l164 290l-74 92l97 59l44 -53l-22 -126l-328 -545h-136z" />
    <glyph glyph-name="thorn" unicode="&#xfe;" horiz-adv-x="520" 
d="M20 -230l153 880l-94 -25l-12 33l184 57l32 -28l-49 -283l-19 -46l148 131q62 -13 99 -59t37 -126q0 -95 -47.5 -172t-134.5 -114l-73 -33q-52 8 -83 21l-6 -59l-32 -177h-103zM297 51q43 25 65 85.5t22 124.5q0 56 -17.5 90t-44.5 45l-102 -76l-41 -230q65 -39 118 -39z
" />
    <glyph glyph-name="ydieresis" unicode="&#xff;" horiz-adv-x="482" 
d="M214 576l-51 6l4 51l19 42l40 6l45 -6l-1 -49l-19 -44zM400 576l-51 6l4 51l19 42l39 6l46 -6l-1 -49l-18 -44zM-9 -235l18 107h87l130 139l-77 -11l-57 412l-82 -29l-15 27l150 79l56 -33l45 -408l164 290l-74 92l97 59l44 -53l-22 -126l-328 -545h-136z" />
    <glyph glyph-name="Amacron" unicode="&#x100;" horiz-adv-x="678" 
d="M627 858l-10 -61h-286l11 61h285zM582 50l70 -11l-10 -40l-147 3l-124 -3l1 40l81 13l-16 179h-223l-97 -179l81 -13l-11 -40l-105 3l-103 -3v40l72 11l369 644l95 24zM242 282h190l-22 244l3 70z" />
    <glyph glyph-name="amacron" unicode="&#x101;" horiz-adv-x="506" 
d="M193 591l10 62h285l-10 -62h-285zM164 -15q-128 33 -128 189q0 188 184 278l76 37q63 -1 171 -42l-68 -385l82 52l19 -26l-146 -103l-67 34l10 57l19 46zM207 74l104 82l42 237q-20 13 -54.5 21.5t-62.5 8.5q-86 -81 -86 -216q0 -91 57 -133z" />
    <glyph glyph-name="Abreve" unicode="&#x102;" horiz-adv-x="678" 
d="M490 757q-100 0 -137 111l33 22q14 -16 21.5 -24t31 -19.5t50.5 -11.5t55 11.5t39 19.5t30 24l24 -22q-21 -28 -30 -38.5t-41.5 -33.5t-75.5 -39zM582 50l70 -11l-10 -40l-147 3l-124 -3l1 40l81 13l-16 179h-223l-97 -179l81 -13l-11 -40l-105 3l-103 -3v40l72 11
l369 644l95 24zM242 282h190l-22 244l3 70z" />
    <glyph glyph-name="abreve" unicode="&#x103;" horiz-adv-x="506" 
d="M349 553q-55 0 -89 40t-45 91l36 23q37 -79 103 -79q62 0 119 79l26 -23q-18 -29 -30 -44.5t-43.5 -41t-76.5 -45.5zM164 -15q-128 33 -128 189q0 188 184 278l76 37q63 -1 171 -42l-68 -385l82 52l19 -26l-146 -103l-67 34l10 57l19 46zM207 74l104 82l42 237
q-20 13 -54.5 21.5t-62.5 8.5q-86 -81 -86 -216q0 -91 57 -133z" />
    <glyph glyph-name="Aogonek" unicode="&#x104;" horiz-adv-x="678" 
d="M582 50l70 -11l-10 -40l-96 3l-68 -2l-66 -107l-6 -33q-5 -32 17 -49t75 -17l-7 -37q-101 0 -141 25t-31 76l11 60l124 103l-18 210h-222l-97 -179l81 -13l-11 -40l-105 3l-103 -3v40l72 11l369 644l95 24zM242 282h189l-21 244l3 70z" />
    <glyph glyph-name="aogonek" unicode="&#x105;" horiz-adv-x="506" 
d="M309 -140q-5 -32 17 -49t75 -17l-7 -37q-101 0 -141 25t-31 76l11 60l96 80l-42 21l10 57l19 46l-152 -137q-128 33 -128 189q0 188 184 278l76 37q63 -1 171 -42l-68 -385l82 52l19 -26l-114 -81l-71 -114zM311 156l42 237q-20 13 -54.5 21.5t-62.5 8.5
q-86 -81 -86 -216q0 -91 57 -133z" />
    <glyph glyph-name="Cacute" unicode="&#x106;" horiz-adv-x="630" 
d="M418 768l63 134h131l-139 -134h-55zM333 -18q-131 0 -207.5 82t-76.5 223q0 130 67.5 239.5t213.5 160.5l94 33q125 0 211 -74l-11 -155h-58l-16 97q-51 53 -175 72q-95 -44 -144.5 -134t-49.5 -214q0 -125 56.5 -194.5t141.5 -76.5q67 27 111 67l60 117h60l-42 -176z
" />
    <glyph glyph-name="cacute" unicode="&#x107;" horiz-adv-x="426" 
d="M276 553l76 157h117l-144 -157h-49zM209 -15q-74 2 -123 53t-49 139q0 94 52.5 166.5t151.5 115.5l66 30q58 -4 118 -38l-57 -93q-52 37 -119 63q-97 -59 -97 -203q0 -120 102 -150q66 29 115 61l20 -26q-60 -47 -130 -88z" />
    <glyph glyph-name="Ccircumflex" unicode="&#x108;" horiz-adv-x="630" 
d="M297 768l117 134h94l69 -134h-61l-67 68l-90 -68h-62zM333 -18q-131 0 -207.5 82t-76.5 223q0 130 67.5 239.5t213.5 160.5l94 33q125 0 211 -74l-11 -155h-58l-16 97q-51 53 -175 72q-95 -44 -144.5 -134t-49.5 -214q0 -125 56.5 -194.5t141.5 -76.5q67 27 111 67
l60 117h60l-42 -176z" />
    <glyph glyph-name="ccircumflex" unicode="&#x109;" horiz-adv-x="426" 
d="M176 553l121 156h77l60 -156h-48l-65 82l-96 -82h-49zM209 -15q-74 2 -123 53t-49 139q0 94 52.5 166.5t151.5 115.5l66 30q58 -4 118 -38l-57 -93q-52 37 -119 63q-97 -59 -97 -203q0 -120 102 -150q66 29 115 61l20 -26q-60 -47 -130 -88z" />
    <glyph glyph-name="Cdotaccent" unicode="&#x10a;" horiz-adv-x="630" 
d="M456 772l-62 5l5 56l19 46l41 5l55 -5l-1 -54l-19 -48zM333 -18q-131 0 -207.5 82t-76.5 223q0 130 67.5 239.5t213.5 160.5l94 33q125 0 211 -74l-11 -155h-58l-16 97q-51 53 -175 72q-95 -44 -144.5 -134t-49.5 -214q0 -125 56.5 -194.5t141.5 -76.5q67 27 111 67
l60 117h60l-42 -176z" />
    <glyph glyph-name="cdotaccent" unicode="&#x10b;" horiz-adv-x="426" 
d="M331 580l-69 6l4 54l19 48l34 5l62 -5v-55l-19 -47zM209 -15q-74 2 -123 53t-49 139q0 94 52.5 166.5t151.5 115.5l66 30q58 -4 118 -38l-57 -93q-52 37 -119 63q-97 -59 -97 -203q0 -120 102 -150q66 29 115 61l20 -26q-60 -47 -130 -88z" />
    <glyph glyph-name="Ccaron" unicode="&#x10c;" horiz-adv-x="630" 
d="M400 768l-70 134h62l67 -66l90 66h62l-117 -134h-94zM333 -18q-131 0 -207.5 82t-76.5 223q0 130 67.5 239.5t213.5 160.5l94 33q125 0 211 -74l-11 -155h-58l-16 97q-51 53 -175 72q-95 -44 -144.5 -134t-49.5 -214q0 -125 56.5 -194.5t141.5 -76.5q67 27 111 67l60 117
h60l-42 -176z" />
    <glyph glyph-name="ccaron" unicode="&#x10d;" horiz-adv-x="426" 
d="M262 553l-60 157h47l66 -87l95 87h51l-121 -157h-78zM209 -15q-74 2 -123 53t-49 139q0 94 52.5 166.5t151.5 115.5l66 30q58 -4 118 -38l-57 -93q-52 37 -119 63q-97 -59 -97 -203q0 -120 102 -150q66 29 115 61l20 -26q-60 -47 -130 -88z" />
    <glyph glyph-name="Dcaron" unicode="&#x10e;" horiz-adv-x="681" 
d="M331 768l-70 134h62l67 -66l90 66h62l-117 -134h-94zM-9 -1v40l85 13l96 600l-84 10l11 39l141 -3l166 3q126 1 199.5 -79.5t73.5 -214.5q0 -78 -28.5 -148.5t-96 -134t-167.5 -97.5l-80 -28l-178 3zM199 61h162q80 45 132.5 131t52.5 200q0 121 -52 189t-131 72h-70z
" />
    <glyph glyph-name="dcaron" unicode="&#x10f;" horiz-adv-x="586" 
d="M171 -15q-134 31 -134 192q0 91 43.5 162t130.5 111l83 39q32 -2 80 -16l31 178l-93 -26l-12 33l184 57l32 -28l-111 -625l83 53l19 -26l-146 -104l-67 36l10 57l20 45zM580 469l-34 15q49 80 55 115l-38 5l4 55l17 46l66 5l32 -5l-4 -54l-14 -47zM211 75l107 85l42 237
q-51 27 -123 27q-40 -33 -62.5 -93t-22.5 -124q0 -96 59 -132z" />
    <glyph glyph-name="Dcroat" unicode="&#x110;" horiz-adv-x="681" 
d="M406 701q126 1 199.5 -79.5t73.5 -214.5q0 -78 -28.5 -148.5t-96 -134t-167.5 -97.5l-80 -28l-178 3l-138 -3v40l85 13l46 285h-84l10 52h82l42 263l-84 10l11 39l141 -3zM361 61q80 45 132.5 131t52.5 200q0 121 -52 189t-131 72h-70l-42 -264h117l-9 -52h-116l-44 -276
h162z" />
    <glyph glyph-name="dcroat" unicode="&#x111;" horiz-adv-x="527" 
d="M562 553h-70l-87 -491l83 53l19 -26l-146 -104l-67 36l10 57l20 45l-153 -138q-134 31 -134 192q0 91 43.5 162t130.5 111l83 39q32 -2 80 -16l14 80h-114l7 41h114l10 57l-93 -26l-12 33l184 57l32 -28l-17 -93h70zM318 160l42 237q-51 27 -123 27q-40 -33 -62.5 -93
t-22.5 -124q0 -96 59 -132z" />
    <glyph glyph-name="Emacron" unicode="&#x112;" horiz-adv-x="600" 
d="M255 797l11 61h285l-10 -61h-286zM-10 -1l1 40l86 13l95 597l-83 13l11 39l137 -3l378 3v-178h-42l-46 123l-234 3l-40 -258l128 4l62 106h36l-36 -134l-8 -134h-37l-25 106l-128 4l-47 -292l259 3l78 135h45l-46 -190l-408 3z" />
    <glyph glyph-name="emacron" unicode="&#x113;" horiz-adv-x="442" 
d="M174 653h285l-10 -62h-285zM316 489q107 -21 107 -110q0 -35 -16 -87l-256 -79v-3q0 -55 28.5 -95.5t72.5 -46.5q67 26 125 63l19 -27q-69 -51 -147 -92l-50 -27q-73 7 -117.5 58t-44.5 128q0 100 54 178t145 111zM301 308q10 34 10 57q0 61 -51 70q-42 -20 -70.5 -70
t-36.5 -116z" />
    <glyph glyph-name="Ebreve" unicode="&#x114;" horiz-adv-x="600" 
d="M414 757q-100 0 -137 111l33 22q14 -16 21.5 -24t31 -19.5t50.5 -11.5t55 11.5t39 19.5t30 24l24 -22q-21 -28 -30 -38.5t-41.5 -33.5t-75.5 -39zM-10 -1l1 40l86 13l95 597l-83 13l11 39l137 -3l378 3v-178h-42l-46 123l-234 3l-40 -258l128 4l62 106h36l-36 -134
l-8 -134h-37l-25 106l-128 4l-47 -292l259 3l78 135h45l-46 -190l-408 3z" />
    <glyph glyph-name="ebreve" unicode="&#x115;" horiz-adv-x="442" 
d="M320 553q-55 0 -89 40t-45 91l36 23q37 -79 103 -79q62 0 119 79l26 -23q-18 -29 -30 -44.5t-43.5 -41t-76.5 -45.5zM316 489q107 -21 107 -110q0 -35 -16 -87l-256 -79v-3q0 -55 28.5 -95.5t72.5 -46.5q67 26 125 63l19 -27q-69 -51 -147 -92l-50 -27q-73 7 -117.5 58
t-44.5 128q0 100 54 178t145 111zM301 308q10 34 10 57q0 61 -51 70q-42 -20 -70.5 -70t-36.5 -116z" />
    <glyph glyph-name="Edotaccent" unicode="&#x116;" horiz-adv-x="600" 
d="M406 772l-62 5l5 56l19 46l41 5l55 -5l-1 -54l-19 -48zM-10 -1l1 40l86 13l95 597l-83 13l11 39l137 -3l378 3v-178h-42l-46 123l-234 3l-40 -258l128 4l62 106h36l-36 -134l-8 -134h-37l-25 106l-128 4l-47 -292l259 3l78 135h45l-46 -190l-408 3z" />
    <glyph glyph-name="edotaccent" unicode="&#x117;" horiz-adv-x="442" 
d="M361 586l-31 -6l-69 6l4 54l19 48l34 5l62 -5v-55zM407 292l-256 -79v-3q0 -55 28.5 -95.5t72.5 -46.5q67 26 125 63l19 -27q-69 -51 -147 -92l-50 -27q-73 7 -117.5 58t-44.5 128q0 100 54 178t145 111l80 29q107 -21 107 -110q0 -35 -16 -87zM260 435
q-42 -20 -70.5 -70t-36.5 -116l148 59q10 34 10 57q0 61 -51 70z" />
    <glyph glyph-name="Eogonek" unicode="&#x118;" horiz-adv-x="600" 
d="M527 646l-234 3l-40 -258l128 4l62 106h36l-36 -134l-8 -134h-37l-25 106l-128 4l-47 -292l259 3l78 135h45l-46 -190l-69 1l-66 -107l-6 -33q-5 -32 17 -49t75 -17l-7 -37q-101 0 -141 25t-31 76l11 60l98 82l-289 2l-136 -3l1 40l86 13l95 597l-83 13l11 39l137 -3
l378 3v-178h-42z" />
    <glyph glyph-name="eogonek" unicode="&#x119;" horiz-adv-x="442" 
d="M407 292l-256 -79v-3q0 -55 28.5 -95.5t72.5 -46.5q67 26 125 63l19 -27q-69 -51 -147 -92l-7 -4l-71 -115l-6 -33q-5 -32 17 -49t75 -17l-7 -37q-101 0 -141 25t-31 76l11 60l85 71q-63 14 -100 63t-37 119q0 100 54 178t145 111l80 29q107 -21 107 -110q0 -35 -16 -87z
M260 435q-42 -20 -70.5 -70t-36.5 -116l148 59q10 34 10 57q0 61 -51 70z" />
    <glyph glyph-name="Ecaron" unicode="&#x11a;" horiz-adv-x="600" 
d="M350 768l-70 134h62l67 -66l90 66h62l-117 -134h-94zM-10 -1l1 40l86 13l95 597l-83 13l11 39l137 -3l378 3v-178h-42l-46 123l-234 3l-40 -258l128 4l62 106h36l-36 -134l-8 -134h-37l-25 106l-128 4l-47 -292l259 3l78 135h45l-46 -190l-408 3z" />
    <glyph glyph-name="ecaron" unicode="&#x11b;" horiz-adv-x="442" 
d="M339 553h-78l-60 157h47l66 -87l95 87h51zM316 489q107 -21 107 -110q0 -35 -16 -87l-256 -79v-3q0 -55 28.5 -95.5t72.5 -46.5q67 26 125 63l19 -27q-69 -51 -147 -92l-50 -27q-73 7 -117.5 58t-44.5 128q0 100 54 178t145 111zM301 308q10 34 10 57q0 61 -51 70
q-42 -20 -70.5 -70t-36.5 -116z" />
    <glyph glyph-name="Gcircumflex" unicode="&#x11c;" horiz-adv-x="671" 
d="M297 768l117 134h94l69 -134h-61l-67 68l-90 -68h-62zM319 -18q-132 0 -208.5 79t-76.5 219q0 61 17 120t52 115.5t96.5 102.5t141.5 73l83 27q65 0 119.5 -22t85.5 -51l-9 -149h-58l-17 93q-25 28 -71.5 49t-96.5 22q-210 -98 -210 -351q0 -126 54 -193.5t139 -74.5
q52 16 91 43l30 191l-82 13l11 39l136 -1l120 3v-41l-64 -13l-34 -220z" />
    <glyph glyph-name="gcircumflex" unicode="&#x11d;" horiz-adv-x="498" 
d="M204 553l121 156h77l60 -156h-48l-65 82l-96 -82h-49zM19 -235l16 95h192q22 17 40 50t24 70l16 97l19 46l-150 -138q-135 29 -135 192q0 90 45.5 161.5t134.5 113.5l77 37q36 0 88.5 -12.5t91.5 -32.5l-85 -474q-6 -34 -36.5 -64.5t-91.5 -74.5l-92 -66h-154zM214 74
l108 83l42 235q-48 33 -122 33q-41 -32 -63.5 -92.5t-22.5 -125.5q0 -98 58 -133z" />
    <glyph glyph-name="Gbreve" unicode="&#x11e;" horiz-adv-x="671" 
d="M464 757q-100 0 -137 111l33 22q14 -16 21.5 -24t31 -19.5t50.5 -11.5t55 11.5t39 19.5t30 24l24 -22q-21 -28 -30 -38.5t-41.5 -33.5t-75.5 -39zM319 -18q-132 0 -208.5 79t-76.5 219q0 61 17 120t52 115.5t96.5 102.5t141.5 73l83 27q65 0 119.5 -22t85.5 -51l-9 -149
h-58l-17 93q-25 28 -71.5 49t-96.5 22q-210 -98 -210 -351q0 -126 54 -193.5t139 -74.5q52 16 91 43l30 191l-82 13l11 39l136 -1l120 3v-41l-64 -13l-34 -220z" />
    <glyph glyph-name="gbreve" unicode="&#x11f;" horiz-adv-x="498" 
d="M349 553q-55 0 -89 40t-45 91l36 23q37 -79 103 -79q62 0 119 79l26 -23q-18 -29 -30 -44.5t-43.5 -41t-76.5 -45.5zM19 -235l16 95h192q22 17 40 50t24 70l16 97l19 46l-150 -138q-135 29 -135 192q0 90 45.5 161.5t134.5 113.5l77 37q36 0 88.5 -12.5t91.5 -32.5
l-85 -474q-6 -34 -36.5 -64.5t-91.5 -74.5l-92 -66h-154zM214 74l108 83l42 235q-48 33 -122 33q-41 -32 -63.5 -92.5t-22.5 -125.5q0 -98 58 -133z" />
    <glyph glyph-name="Gdotaccent" unicode="&#x120;" horiz-adv-x="671" 
d="M456 772l-62 5l5 56l19 46l41 5l55 -5l-1 -54l-19 -48zM319 -18q-132 0 -208.5 79t-76.5 219q0 61 17 120t52 115.5t96.5 102.5t141.5 73l83 27q65 0 119.5 -22t85.5 -51l-9 -149h-58l-17 93q-25 28 -71.5 49t-96.5 22q-210 -98 -210 -351q0 -126 54 -193.5t139 -74.5
q52 16 91 43l30 191l-82 13l11 39l136 -1l120 3v-41l-64 -13l-34 -220z" />
    <glyph glyph-name="gdotaccent" unicode="&#x121;" horiz-adv-x="498" 
d="M359 580l-69 6l4 54l19 48l34 5l62 -5v-55l-19 -47zM19 -235l16 95h192q22 17 40 50t24 70l16 97l19 46l-150 -138q-135 29 -135 192q0 90 45.5 161.5t134.5 113.5l77 37q36 0 88.5 -12.5t91.5 -32.5l-85 -474q-6 -34 -36.5 -64.5t-91.5 -74.5l-92 -66h-154zM214 74
l108 83l42 235q-48 33 -122 33q-41 -32 -63.5 -92.5t-22.5 -125.5q0 -98 58 -133z" />
    <glyph glyph-name="Gcommaaccent" unicode="&#x122;" horiz-adv-x="671" 
d="M319 -18q-132 0 -208.5 79t-76.5 219q0 61 17 120t52 115.5t96.5 102.5t141.5 73l83 27q65 0 119.5 -22t85.5 -51l-9 -149h-58l-17 93q-25 28 -71.5 49t-96.5 22q-210 -98 -210 -351q0 -126 54 -193.5t139 -74.5q52 16 91 43l30 191l-82 13l11 39l136 -1l120 3v-41
l-64 -13l-34 -220zM228 -245l-40 10l43 110l-17 35l7 40h110l-14 -80z" />
    <glyph glyph-name="gcommaaccent" unicode="&#x123;" horiz-adv-x="498" 
d="M290 550l14 80l88 104l41 -10l-42 -99l17 -35l-7 -40h-111zM19 -235l16 95h192q22 17 40 50t24 70l16 97l19 46l-150 -138q-135 29 -135 192q0 90 45.5 161.5t134.5 113.5l77 37q36 0 88.5 -12.5t91.5 -32.5l-85 -474q-6 -34 -36.5 -64.5t-91.5 -74.5l-92 -66h-154z
M214 74l108 83l42 235q-48 33 -122 33q-41 -32 -63.5 -92.5t-22.5 -125.5q0 -98 58 -133z" />
    <glyph glyph-name="Hcircumflex" unicode="&#x124;" horiz-adv-x="709" 
d="M308 768l117 134h94l69 -134h-61l-67 68l-90 -68h-62zM-10 -1l1 40l85 13l95 596l-82 13l11 40l141 -3l134 3l-1 -40l-80 -13l-42 -259h261l41 259l-78 13l11 40l138 -3l136 3l-1 -40l-83 -13l-95 -596l79 -13l-11 -40l-135 3l-140 -3l1 40l83 13l46 284h-261l-45 -284
l76 -13l-11 -40l-134 3z" />
    <glyph glyph-name="hcircumflex" unicode="&#x125;" horiz-adv-x="532" 
d="M80 768l117 134h94l69 -134h-61l-67 68l-90 -68h-62zM378 -15l-67 35l55 315q11 60 -30 60q-35 0 -84 -34l-46 -30l-59 -331h-105l115 651l-93 -26l-12 33l184 57l32 -28l-49 -280l-16 -34l175 116q60 0 85 -32.5t15 -86.5l-55 -307l82 52l19 -26z" />
    <glyph glyph-name="Hbar" unicode="&#x126;" horiz-adv-x="709" 
d="M625 698l136 3l-1 -40l-83 -13l-95 -596l79 -13l-11 -40l-135 3l-140 -3l1 40l83 13l46 284h-261l-45 -284l76 -13l-11 -40l-134 3l-140 -3l1 40l85 13l95 596l-82 13l11 40l141 -3l134 3l-1 -40l-80 -13l-24 -150h260l24 150l-78 13l11 40zM513 389l10 66h-260l-11 -66
h261z" />
    <glyph glyph-name="hbar" unicode="&#x127;" horiz-adv-x="532" 
d="M505 115l19 -26l-146 -104l-67 35l55 315q11 60 -30 60q-35 0 -84 -34l-46 -30l-59 -331h-105l98 555h-67l6 39h68l10 57l-93 -26l-12 33l184 57l32 -28l-16 -93h116l-7 -39h-116l-26 -148l-16 -34l175 116q60 0 85 -32.5t15 -86.5l-55 -307z" />
    <glyph glyph-name="Itilde" unicode="&#x128;" horiz-adv-x="328" 
d="M323 772l-149 57l-45 -55h-26l44 101l72 22l148 -58l46 56h25l-46 -106zM-9 -1l2 40l85 13l95 596l-82 13l11 40l141 -3l136 3l-1 -40l-83 -13l-96 -596l79 -13l-11 -40l-138 3z" />
    <glyph glyph-name="itilde" unicode="&#x129;" horiz-adv-x="297" 
d="M287 565l-149 57l-45 -55h-25l44 101l71 22l147 -58l46 56h25l-46 -107zM130 -15l-67 35l70 396l-89 -31l-12 29l170 75l41 -40l-68 -386l82 52l19 -26z" />
    <glyph glyph-name="Imacron" unicode="&#x12a;" horiz-adv-x="328" 
d="M113 797l11 61h285l-10 -61h-286zM-9 -1l2 40l85 13l95 596l-82 13l11 40l141 -3l136 3l-1 -40l-83 -13l-96 -596l79 -13l-11 -40l-138 3z" />
    <glyph glyph-name="imacron" unicode="&#x12b;" horiz-adv-x="297" 
d="M67 591l10 62h285l-10 -62h-285zM130 -15l-67 35l70 396l-89 -31l-12 29l170 75l41 -40l-68 -386l82 52l19 -26z" />
    <glyph glyph-name="Ibreve" unicode="&#x12c;" horiz-adv-x="328" 
d="M272 757q-100 0 -137 111l33 22q14 -16 21.5 -24t31 -19.5t50.5 -11.5t55 11.5t39 19.5t30 24l24 -22q-21 -28 -30 -38.5t-41.5 -33.5t-75.5 -39zM-9 -1l2 40l85 13l95 596l-82 13l11 40l141 -3l136 3l-1 -40l-83 -13l-96 -596l79 -13l-11 -40l-138 3z" />
    <glyph glyph-name="ibreve" unicode="&#x12d;" horiz-adv-x="297" 
d="M223 553q-55 0 -89 40t-45 91l36 23q37 -79 103 -79q62 0 119 79l26 -23q-18 -29 -30 -44.5t-43.5 -41t-76.5 -45.5zM130 -15l-67 35l70 396l-89 -31l-12 29l170 75l41 -40l-68 -386l82 52l19 -26z" />
    <glyph glyph-name="Iogonek" unicode="&#x12e;" horiz-adv-x="328" 
d="M243 698l136 3l-1 -40l-83 -13l-96 -596l79 -13l-11 -40l-105 2l-67 -108l-6 -33q-5 -32 17 -49t75 -17l-7 -37q-101 0 -141 25t-31 76l11 60l101 84l-123 -3l2 40l85 13l95 596l-82 13l11 40z" />
    <glyph glyph-name="iogonek" unicode="&#x12f;" horiz-adv-x="297" 
d="M221 693l64 -6v-57l-19 -49l-33 -6l-71 6l3 57l21 49zM97 -107l-6 -33q-5 -32 17 -49t75 -17l-7 -37q-101 0 -141 25t-31 76l11 60l94 78l-46 24l70 396l-89 -31l-12 29l170 75l41 -40l-68 -386l82 52l19 -26l-103 -74z" />
    <glyph glyph-name="Idotaccent" unicode="&#x130;" horiz-adv-x="328" 
d="M264 772l-62 5l5 56l19 46l41 5l55 -5l-1 -54l-19 -48zM-9 -1l2 40l85 13l95 596l-82 13l11 40l141 -3l136 3l-1 -40l-83 -13l-96 -596l79 -13l-11 -40l-138 3z" />
    <glyph glyph-name="dotlessi" unicode="&#x131;" horiz-adv-x="297" 
d="M130 -15l-67 35l70 396l-89 -31l-12 29l170 75l41 -40l-68 -386l82 52l19 -26z" />
    <glyph glyph-name="IJ" unicode="&#x132;" horiz-adv-x="662" 
d="M-9 -1l2 40l85 13l95 596l-82 13l11 40l141 -3l136 3l-1 -40l-83 -13l-96 -596l79 -13l-11 -40l-138 3zM247 -175l19 92h105q22 32 33.5 68t19.5 98l90 565l-88 13l11 40l144 -3l139 3l-2 -40l-83 -13l-88 -553q-10 -64 -33 -103.5t-68 -74.5l-117 -92h-82z" />
    <glyph glyph-name="ij" unicode="&#x133;" horiz-adv-x="579" 
d="M233 575l-71 6l3 57l21 49l35 6l64 -6v-57l-19 -49zM525 575l-71 6l3 57l21 49l35 6l64 -6v-57l-19 -49zM130 -15l-67 35l70 396l-89 -31l-12 29l170 75l41 -40l-68 -386l82 52l19 -26zM180 -235l17 95h116q29 36 39 94l82 462l-88 -31l-13 29l170 75l41 -40l-83 -467
q-15 -89 -89 -137l-121 -80h-71z" />
    <glyph glyph-name="Jcircumflex" unicode="&#x134;" horiz-adv-x="334" 
d="M121 768l117 134h94l69 -134h-61l-67 68l-90 -68h-62zM-81 -175l19 92h105q22 32 33.5 68t19.5 98l90 565l-88 13l11 40l144 -3l139 3l-2 -40l-83 -13l-88 -553q-10 -64 -33 -103.5t-68 -74.5l-117 -92h-82z" />
    <glyph glyph-name="jcircumflex" unicode="&#x135;" horiz-adv-x="282" 
d="M73 553l121 156h77l60 -156h-48l-65 82l-96 -82h-49zM-117 -235l17 95h116q29 36 39 94l82 462l-88 -31l-13 29l170 75l41 -40l-83 -467q-15 -89 -89 -137l-121 -80h-71z" />
    <glyph glyph-name="Kcommaaccent" unicode="&#x136;" horiz-adv-x="701" 
d="M-10 -1l2 40l86 13l94 596l-82 13l11 40l141 -3l126 3l-1 -40l-73 -13l-42 -263l28 16l271 247l-65 13l8 40l116 -3l106 3v-40l-86 -13l-292 -259l30 -17l244 -319l50 -14l-11 -40l-77 3l-84 -3l-228 332l-13 33l-50 -312l69 -13l-11 -40l-128 3zM299 -245l-40 10l43 110
l-17 35l7 40h110l-14 -80z" />
    <glyph glyph-name="kcommaaccent" unicode="&#x137;" horiz-adv-x="505" 
d="M352 -15l-53 26l-107 247l-45 -258h-105l114 652l-94 -26l-12 32l185 58l32 -28l-71 -405l20 4l176 192h108l-24 -108h-73q-47 -11 -93 -47l-58 -48l45 -15l104 -198l75 48l19 -26zM170 -245l-40 10l43 110l-17 35l7 40h110l-14 -80z" />
    <glyph glyph-name="kgreenlandic" unicode="&#x138;" horiz-adv-x="520" 
d="M367 -15l-53 26l-107 247l-45 -258h-104l72 416l-88 -31l-12 29l169 75l42 -40l-29 -166l20 4l175 192h108l-23 -108h-74q-47 -11 -93 -47l-57 -48l44 -15l104 -198l76 48l19 -26z" />
    <glyph glyph-name="Lacute" unicode="&#x139;" horiz-adv-x="565" 
d="M220 768l63 134h131l-139 -134h-55zM-10 -1l1 40l86 13l95 596l-83 13l12 40l132 -3l148 3l-1 -40l-87 -13l-95 -597l223 3l93 139h45l-61 -194l-372 3z" />
    <glyph glyph-name="lacute" unicode="&#x13a;" horiz-adv-x="284" 
d="M205 768l63 134h131l-139 -134h-55zM119 -15l-68 35l111 630l-93 -25l-12 33l184 57l32 -28l-110 -624l83 52l19 -26z" />
    <glyph glyph-name="Lcommaaccent" unicode="&#x13b;" horiz-adv-x="565" 
d="M-10 -1l1 40l86 13l95 596l-83 13l12 40l132 -3l148 3l-1 -40l-87 -13l-95 -597l223 3l93 139h45l-61 -194l-372 3zM205 -245l-40 10l43 110l-17 35l7 40h110l-14 -80z" />
    <glyph glyph-name="lcommaaccent" unicode="&#x13c;" horiz-adv-x="284" 
d="M119 -15l-68 35l111 630l-93 -25l-12 33l184 57l32 -28l-110 -624l83 52l19 -26zM59 -245l-40 10l43 110l-17 35l7 40h110l-14 -80z" />
    <glyph glyph-name="Lcaron" unicode="&#x13d;" horiz-adv-x="565" 
d="M496 438l-38 17q54 91 62 130l-43 5l5 62l19 52l74 6l36 -6l-4 -61l-16 -53zM-10 -1l1 40l86 13l95 596l-83 13l12 40l132 -3l148 3l-1 -40l-87 -13l-95 -597l223 3l93 139h45l-61 -194l-372 3z" />
    <glyph glyph-name="lcaron" unicode="&#x13e;" horiz-adv-x="440" 
d="M119 -15l-68 35l111 630l-93 -25l-12 33l184 57l32 -28l-110 -624l83 52l19 -26zM355 520l-41 10l42 110l-17 35l7 40h111l-14 -80z" />
    <glyph glyph-name="Ldot" unicode="&#x13f;" horiz-adv-x="565" 
d="M-10 -1l1 40l86 13l95 596l-83 13l12 40l132 -3l148 3l-1 -40l-87 -13l-95 -597l223 3l93 139h45l-61 -194l-372 3zM370 340l-32 5l6 62l15 53l83 6l31 -6l-4 -61l-16 -54z" />
    <glyph glyph-name="ldot" unicode="&#x140;" horiz-adv-x="419" 
d="M119 -15l-68 35l111 630l-93 -25l-12 33l184 57l32 -28l-110 -624l83 52l19 -26zM307 340l-32 5l6 62l15 53l83 6l31 -6l-4 -61l-16 -54z" />
    <glyph glyph-name="Lslash" unicode="&#x141;" horiz-adv-x="565" 
d="M514 193h45l-61 -194l-372 3l-136 -3l1 40l86 13l43 271l-90 -41l11 58l88 40l43 268l-83 13l12 40l132 -3l148 3l-1 -40l-87 -13l-33 -208l102 46l-11 -58l-100 -46l-53 -331l223 3z" />
    <glyph glyph-name="lslash" unicode="&#x142;" horiz-adv-x="284" 
d="M306 423l-86 -39l-57 -321l83 52l19 -26l-146 -104l-68 35l55 312l-73 -33l10 54l73 33l46 264l-93 -25l-12 33l184 57l32 -28l-44 -248l86 39z" />
    <glyph glyph-name="Nacute" unicode="&#x143;" horiz-adv-x="704" 
d="M402 768l63 134h131l-139 -134h-55zM-10 -1l1 40l85 13l94 591l-79 18l11 40l91 -3l88 3l239 -463l15 -89l72 499l-78 13l11 40l104 -3l116 3l-1 -40l-87 -13l-102 -648h-73l-259 516l-11 92l-85 -556l83 -13l-11 -40l-111 3z" />
    <glyph glyph-name="nacute" unicode="&#x144;" horiz-adv-x="548" 
d="M305 553l76 157h117l-144 -157h-49zM393 -15l-68 34l56 316q11 60 -29 60q-35 0 -84 -34l-46 -30l-59 -331h-104l73 415l-88 -30l-12 29l170 75l41 -39l-9 -44l-15 -32l174 115q59 0 84 -32.5t16 -86.5l-55 -308l83 52l18 -26z" />
    <glyph glyph-name="Ncommaaccent" unicode="&#x145;" horiz-adv-x="704" 
d="M-10 -1l1 40l85 13l94 591l-79 18l11 40l91 -3l88 3l239 -463l15 -89l72 499l-78 13l11 40l104 -3l116 3l-1 -40l-87 -13l-102 -648h-73l-259 516l-11 92l-85 -556l83 -13l-11 -40l-111 3zM282 -245l-40 10l43 110l-17 35l7 40h110l-14 -80z" />
    <glyph glyph-name="ncommaaccent" unicode="&#x146;" horiz-adv-x="548" 
d="M393 -15l-68 34l56 316q11 60 -29 60q-35 0 -84 -34l-46 -30l-59 -331h-104l73 415l-88 -30l-12 29l170 75l41 -39l-9 -44l-15 -32l174 115q59 0 84 -32.5t16 -86.5l-55 -308l83 52l18 -26zM197 -245l-40 10l43 110l-17 35l7 40h110l-14 -80z" />
    <glyph glyph-name="Ncaron" unicode="&#x147;" horiz-adv-x="704" 
d="M384 768l-70 134h62l67 -66l90 66h62l-117 -134h-94zM-10 -1l1 40l85 13l94 591l-79 18l11 40l91 -3l88 3l239 -463l15 -89l72 499l-78 13l11 40l104 -3l116 3l-1 -40l-87 -13l-102 -648h-73l-259 516l-11 92l-85 -556l83 -13l-11 -40l-111 3z" />
    <glyph glyph-name="ncaron" unicode="&#x148;" horiz-adv-x="548" 
d="M291 553l-60 157h47l66 -87l95 87h51l-121 -157h-78zM393 -15l-68 34l56 316q11 60 -29 60q-35 0 -84 -34l-46 -30l-59 -331h-104l73 415l-88 -30l-12 29l170 75l41 -39l-9 -44l-15 -32l174 115q59 0 84 -32.5t16 -86.5l-55 -308l83 52l18 -26z" />
    <glyph glyph-name="napostrophe" unicode="&#x149;" horiz-adv-x="548" 
d="M103 519l-40 10l42 106l-17 35l7 40h110l-14 -80zM393 -15l-68 34l56 316q11 60 -29 60q-35 0 -84 -34l-46 -30l-59 -331h-104l73 415l-88 -30l-12 29l170 75l41 -39l-9 -44l-15 -32l174 115q59 0 84 -32.5t16 -86.5l-55 -308l83 52l18 -26z" />
    <glyph glyph-name="Eng" unicode="&#x14a;" horiz-adv-x="704" 
d="M644 698l116 3l-1 -40l-87 -13l-102 -648l-137 -236h-127l17 89h76l87 119l52 28h-41l-259 516l-11 92l-85 -556l83 -13l-11 -40l-111 3l-113 -3l1 40l85 13l94 591l-79 18l11 40l91 -3l88 3l239 -463l15 -89l72 499l-78 13l11 40z" />
    <glyph glyph-name="eng" unicode="&#x14b;" horiz-adv-x="547" 
d="M139 -235l17 89h104q41 33 52 94l69 387q11 60 -29 60q-35 0 -84 -34l-46 -30l-59 -331h-104l73 415l-88 -30l-12 29l170 75l41 -39l-9 -44l-15 -32l174 115q60 0 84.5 -33.5t13.5 -91.5l-71 -389q-15 -82 -91 -133l-117 -77h-73z" />
    <glyph glyph-name="Omacron" unicode="&#x14c;" horiz-adv-x="707" 
d="M306 797l11 61h285l-10 -61h-286zM327 -18q-129 0 -203.5 82.5t-74.5 223.5q0 62 16 121t49.5 114.5t91.5 100t134 68.5l83 26q129 0 203.5 -82.5t74.5 -223.5q0 -62 -16 -121t-49.5 -114.5t-91.5 -100t-134 -68.5zM367 39q95 39 148 135.5t53 223.5q0 118 -51 184
t-135 79q-95 -39 -148 -135.5t-53 -223.5q0 -118 51 -184t135 -79z" />
    <glyph glyph-name="omacron" unicode="&#x14d;" horiz-adv-x="495" 
d="M168 591l10 62h285l-10 -62h-285zM216 -15q-75 0 -127 52.5t-52 145.5t52 167t147 113l63 26q75 0 127 -53.5t52 -146.5q0 -94 -52 -168t-146 -111zM256 40q54 22 81 88.5t27 138.5q0 75 -29 115.5t-77 49.5q-54 -21 -80 -87t-26 -140q0 -143 104 -165z" />
    <glyph glyph-name="Obreve" unicode="&#x14e;" horiz-adv-x="707" 
d="M465 757q-100 0 -137 111l33 22q14 -16 21.5 -24t31 -19.5t50.5 -11.5t55 11.5t39 19.5t30 24l24 -22q-21 -28 -30 -38.5t-41.5 -33.5t-75.5 -39zM327 -18q-129 0 -203.5 82.5t-74.5 223.5q0 62 16 121t49.5 114.5t91.5 100t134 68.5l83 26q129 0 203.5 -82.5
t74.5 -223.5q0 -62 -16 -121t-49.5 -114.5t-91.5 -100t-134 -68.5zM367 39q95 39 148 135.5t53 223.5q0 118 -51 184t-135 79q-95 -39 -148 -135.5t-53 -223.5q0 -118 51 -184t135 -79z" />
    <glyph glyph-name="obreve" unicode="&#x14f;" horiz-adv-x="495" 
d="M324 553q-55 0 -89 40t-45 91l36 23q37 -79 103 -79q62 0 119 79l26 -23q-18 -29 -30 -44.5t-43.5 -41t-76.5 -45.5zM216 -15q-75 0 -127 52.5t-52 145.5t52 167t147 113l63 26q75 0 127 -53.5t52 -146.5q0 -94 -52 -168t-146 -111zM256 40q54 22 81 88.5t27 138.5
q0 75 -29 115.5t-77 49.5q-54 -21 -80 -87t-26 -140q0 -143 104 -165z" />
    <glyph glyph-name="Ohungarumlaut" unicode="&#x150;" horiz-adv-x="707" 
d="M309 750l84 100h118l-136 -100h-66zM484 750l84 100h118l-136 -100h-66zM327 -18q-129 0 -203.5 82.5t-74.5 223.5q0 62 16 121t49.5 114.5t91.5 100t134 68.5l83 26q129 0 203.5 -82.5t74.5 -223.5q0 -62 -16 -121t-49.5 -114.5t-91.5 -100t-134 -68.5zM367 39
q95 39 148 135.5t53 223.5q0 118 -51 184t-135 79q-95 -39 -148 -135.5t-53 -223.5q0 -118 51 -184t135 -79z" />
    <glyph glyph-name="ohungarumlaut" unicode="&#x151;" horiz-adv-x="495" 
d="M184 553l75 157h117l-144 -157h-48zM356 553l76 157h117l-144 -157h-49zM216 -15q-75 0 -127 52.5t-52 145.5t52 167t147 113l63 26q75 0 127 -53.5t52 -146.5q0 -94 -52 -168t-146 -111zM256 40q54 22 81 88.5t27 138.5q0 75 -29 115.5t-77 49.5q-54 -21 -80 -87
t-26 -140q0 -143 104 -165z" />
    <glyph glyph-name="OE" unicode="&#x152;" horiz-adv-x="937" 
d="M327 -18q-129 0 -203.5 82.5t-74.5 223.5q0 62 16 121t49.5 114.5t91.5 100t134 68.5l83 26l171 -20l358 3v-178h-41l-46 123l-214 3l-42 -258l110 4l61 106h37l-36 -134l-9 -134h-37l-25 106l-108 4l-47 -292l239 3l79 135h44l-46 -190l-388 3zM367 39l67 13l95 597
l-147 12q-95 -39 -148 -135.5t-53 -223.5q0 -118 51 -184t135 -79z" />
    <glyph glyph-name="oe" unicode="&#x153;" horiz-adv-x="766" 
d="M730 292l-256 -79v-3q0 -60 30 -97t71 -45q65 26 125 63l19 -27q-74 -53 -146 -92l-51 -27q-95 5 -138 90q-46 -43 -104 -66l-60 -24q-78 0 -130.5 51.5t-52.5 143.5q0 94 53 168.5t149 115.5l60 25q52 0 94 -24t65 -69q44 44 102 64l79 29q108 -21 108 -110
q0 -37 -17 -87zM584 435q-45 -21 -73 -71.5t-35 -114.5l149 59q9 30 9 57q0 31 -14 48.5t-36 21.5zM256 41q57 22 84.5 89.5t27.5 141.5q0 140 -106 159q-56 -21 -83 -86.5t-27 -139.5q0 -142 104 -164z" />
    <glyph glyph-name="Racute" unicode="&#x154;" horiz-adv-x="657" 
d="M527 902l-139 -134h-55l63 134h131zM570 52l52 -14l-8 -39l-92 3l-69 -3l-136 308l-12 11h-64l-43 -266l90 -13l-11 -40l-150 3l-137 -3l1 40l86 13l96 599l-84 10l12 40l137 -3l177 3q90 1 144.5 -40t54.5 -109q0 -71 -45 -117t-137 -82l-55 -20l76 -42zM295 655
l-45 -273h132q102 50 102 157q0 53 -28 83.5t-84 32.5h-77z" />
    <glyph glyph-name="racute" unicode="&#x155;" horiz-adv-x="403" 
d="M232 553l76 157h117l-144 -157h-49zM58 0l74 415l-88 -30l-12 29l170 75l34 -34l-13 -81l-33 -113l139 218h86l-25 -110h-50q-49 -30 -96 -86l-39 -47l-42 -236h-105z" />
    <glyph glyph-name="Rcommaaccent" unicode="&#x156;" horiz-adv-x="657" 
d="M570 52l52 -14l-8 -39l-92 3l-69 -3l-136 308l-12 11h-64l-43 -266l90 -13l-11 -40l-150 3l-137 -3l1 40l86 13l96 599l-84 10l12 40l137 -3l177 3q90 1 144.5 -40t54.5 -109q0 -71 -45 -117t-137 -82l-55 -20l76 -42zM295 655l-45 -273h132q102 50 102 157
q0 53 -28 83.5t-84 32.5h-77zM253 -90l7 40h110l-14 -80l-89 -115l-40 10l43 110z" />
    <glyph glyph-name="rcommaaccent" unicode="&#x157;" horiz-adv-x="403" 
d="M58 0l74 415l-88 -30l-12 29l170 75l34 -34l-13 -81l-33 -113l139 218h86l-25 -110h-50q-49 -30 -96 -86l-39 -47l-42 -236h-105zM53 -245l-40 10l43 110l-17 35l7 40h110l-14 -80z" />
    <glyph glyph-name="Rcaron" unicode="&#x158;" horiz-adv-x="657" 
d="M409 768h-94l-70 134h62l67 -66l90 66h62zM570 52l52 -14l-8 -39l-92 3l-69 -3l-136 308l-12 11h-64l-43 -266l90 -13l-11 -40l-150 3l-137 -3l1 40l86 13l96 599l-84 10l12 40l137 -3l177 3q90 1 144.5 -40t54.5 -109q0 -71 -45 -117t-137 -82l-55 -20l76 -42zM295 655
l-45 -273h132q102 50 102 157q0 53 -28 83.5t-84 32.5h-77z" />
    <glyph glyph-name="rcaron" unicode="&#x159;" horiz-adv-x="403" 
d="M218 553l-60 157h47l66 -87l95 87h51l-121 -157h-78zM58 0l74 415l-88 -30l-12 29l170 75l34 -34l-13 -81l-33 -113l139 218h86l-25 -110h-50q-49 -30 -96 -86l-39 -47l-42 -236h-105z" />
    <glyph glyph-name="Sacute" unicode="&#x15a;" horiz-adv-x="514" 
d="M331 768l63 134h131l-139 -134h-55zM234 -18q-136 0 -219 61l25 148h66v-84q26 -28 71 -49.5t88 -21.5q50 15 75 46t25 74q0 30 -12 54t-25.5 37.5t-40.5 34.5l-101 80q-42 35 -64 69.5t-22 80.5q0 111 155 172l91 34q122 0 192 -53l-26 -145h-56l-6 92q-63 54 -138 55
q-96 -31 -96 -103q0 -35 18.5 -60t57.5 -56l94 -76q30 -24 48 -43t33 -53t15 -75q0 -60 -39.5 -108t-108.5 -74z" />
    <glyph glyph-name="sacute" unicode="&#x15b;" horiz-adv-x="386" 
d="M220 553l76 157h117l-144 -157h-49zM129 -15q-26 8 -67.5 25.5t-56.5 27.5l50 84q83 -47 145 -77q39 13 39 53q0 37 -37 68l-89 77q-45 40 -45 92q0 40 28.5 69.5t94.5 55.5l68 29q36 -6 121 -45l-50 -86q-59 39 -133 71q-36 -13 -36 -47q0 -31 39 -65l85 -72
q49 -43 49 -97q0 -89 -103 -126z" />
    <glyph glyph-name="Scircumflex" unicode="&#x15c;" horiz-adv-x="514" 
d="M210 768l117 134h94l69 -134h-61l-67 68l-90 -68h-62zM234 -18q-136 0 -219 61l25 148h66v-84q26 -28 71 -49.5t88 -21.5q50 15 75 46t25 74q0 30 -12 54t-25.5 37.5t-40.5 34.5l-101 80q-42 35 -64 69.5t-22 80.5q0 111 155 172l91 34q122 0 192 -53l-26 -145h-56l-6 92
q-63 54 -138 55q-96 -31 -96 -103q0 -35 18.5 -60t57.5 -56l94 -76q30 -24 48 -43t33 -53t15 -75q0 -60 -39.5 -108t-108.5 -74z" />
    <glyph glyph-name="scircumflex" unicode="&#x15d;" horiz-adv-x="386" 
d="M120 553l121 156h77l60 -156h-48l-65 82l-96 -82h-49zM129 -15q-26 8 -67.5 25.5t-56.5 27.5l50 84q83 -47 145 -77q39 13 39 53q0 37 -37 68l-89 77q-45 40 -45 92q0 40 28.5 69.5t94.5 55.5l68 29q36 -6 121 -45l-50 -86q-59 39 -133 71q-36 -13 -36 -47q0 -31 39 -65
l85 -72q49 -43 49 -97q0 -89 -103 -126z" />
    <glyph glyph-name="Scedilla" unicode="&#x15e;" horiz-adv-x="514" 
d="M312 667q-96 -31 -96 -103q0 -35 18.5 -60t57.5 -56l94 -76q30 -24 48 -43t33 -53t15 -75q0 -60 -39.5 -108t-108.5 -74l-97 -36l-25 -30q34 0 57.5 -17.5t23.5 -49.5q0 -73 -107 -111l-51 -18h-59l29 43h78q33 20 33 60q0 31 -23.5 45.5t-55.5 14.5l55 64
q-110 9 -177 59l25 148h66v-84q26 -28 71 -49.5t88 -21.5q50 15 75 46t25 74q0 30 -12 54t-25.5 37.5t-40.5 34.5l-101 80q-42 35 -64 69.5t-22 80.5q0 111 155 172l91 34q122 0 192 -53l-26 -145h-56l-6 92q-63 54 -138 55z" />
    <glyph glyph-name="scedilla" unicode="&#x15f;" horiz-adv-x="386" 
d="M285 245q49 -43 49 -97q0 -89 -103 -126l-66 -24l-37 -45q34 0 57.5 -17.5t23.5 -49.5q0 -73 -107 -111l-51 -18h-59l29 43h78q33 20 33 60q0 31 -23.5 45.5t-55.5 14.5l61 70q-81 29 -109 48l50 84q83 -47 145 -77q39 13 39 53q0 37 -37 68l-89 77q-45 40 -45 92
q0 40 28.5 69.5t94.5 55.5l68 29q36 -6 121 -45l-50 -86q-59 39 -133 71q-36 -13 -36 -47q0 -31 39 -65z" />
    <glyph glyph-name="Scaron" unicode="&#x160;" horiz-adv-x="514" 
d="M313 768l-70 134h62l67 -66l90 66h62l-117 -134h-94zM234 -18q-136 0 -219 61l25 148h66v-84q26 -28 71 -49.5t88 -21.5q50 15 75 46t25 74q0 30 -12 54t-25.5 37.5t-40.5 34.5l-101 80q-42 35 -64 69.5t-22 80.5q0 111 155 172l91 34q122 0 192 -53l-26 -145h-56l-6 92
q-63 54 -138 55q-96 -31 -96 -103q0 -35 18.5 -60t57.5 -56l94 -76q30 -24 48 -43t33 -53t15 -75q0 -60 -39.5 -108t-108.5 -74z" />
    <glyph glyph-name="scaron" unicode="&#x161;" horiz-adv-x="386" 
d="M206 553l-60 157h47l66 -87l95 87h51l-121 -157h-78zM129 -15q-26 8 -67.5 25.5t-56.5 27.5l50 84q83 -47 145 -77q39 13 39 53q0 37 -37 68l-89 77q-45 40 -45 92q0 40 28.5 69.5t94.5 55.5l68 29q36 -6 121 -45l-50 -86q-59 39 -133 71q-36 -13 -36 -47q0 -31 39 -65
l85 -72q49 -43 49 -97q0 -89 -103 -126z" />
    <glyph glyph-name="uni0162" unicode="&#x162;" horiz-adv-x="601" 
d="M377 698l278 3l-27 -187h-45l-24 133l-131 3l-96 -598l87 -13l-11 -40l-125 3l-40 -49q34 0 57.5 -17.5t23.5 -49.5q0 -73 -107 -111l-51 -18h-59l29 43h78q33 20 33 60q0 31 -23.5 45.5t-55.5 14.5l71 82l-122 -3l1 40l93 13l95 598l-129 -3l-66 -133h-45l28 187z" />
    <glyph glyph-name="uni0163" unicode="&#x163;" horiz-adv-x="357" 
d="M354 406h-120l-59 -343l130 52l15 -28l-180 -97l-31 -37q34 0 57.5 -17.5t23.5 -49.5q0 -73 -107 -111l-51 -18h-59l29 43h78q33 20 33 60q0 31 -23.5 45.5t-55.5 14.5l68 78l-40 18l68 390h-94l5 19l41 38h57l12 64l89 76h29l-26 -144h122z" />
    <glyph glyph-name="Tcaron" unicode="&#x164;" horiz-adv-x="601" 
d="M345 768l-70 134h62l67 -66l90 66h62l-117 -134h-94zM117 -1l1 40l93 13l95 598l-129 -3l-66 -133h-45l28 187l283 -3l278 3l-27 -187h-45l-24 133l-131 3l-96 -598l87 -13l-11 -40l-146 3z" />
    <glyph glyph-name="tcaron" unicode="&#x165;" horiz-adv-x="357" 
d="M348 520l-41 10l43 110l-17 35l7 40h110l-14 -80zM130 -15l-68 31l68 390h-94l5 19l41 38h57l12 64l89 76h29l-26 -144h122l-11 -53h-120l-59 -343l130 52l15 -28z" />
    <glyph glyph-name="Tbar" unicode="&#x166;" horiz-adv-x="601" 
d="M377 698l278 3l-27 -187h-45l-24 133l-131 3l-30 -184h101l-9 -52h-100l-58 -362l87 -13l-11 -40l-146 3l-145 -3l1 40l93 13l58 362h-96l9 52h95l29 184l-129 -3l-66 -133h-45l28 187z" />
    <glyph glyph-name="tbar" unicode="&#x167;" horiz-adv-x="357" 
d="M354 406h-120l-13 -77h89l-7 -41h-89l-39 -225l130 52l15 -28l-190 -102l-68 31l47 272h-60l7 41h61l13 77h-94l5 19l41 38h57l12 64l89 76h29l-26 -144h122z" />
    <glyph glyph-name="Utilde" unicode="&#x168;" horiz-adv-x="677" 
d="M512 772l-149 57l-45 -55h-26l44 101l72 22l148 -58l46 56h25l-46 -106zM295 -18q-241 0 -200 260l65 406l-82 13l11 40l134 -3l145 3l-1 -40l-82 -13l-70 -421q-13 -76 27.5 -129.5t124.5 -53.5q63 25 93.5 64t44.5 125l67 415l-88 13l11 40l119 -3l123 3l-1 -40
l-88 -13l-65 -410q-15 -94 -60 -150t-151 -85z" />
    <glyph glyph-name="utilde" unicode="&#x169;" horiz-adv-x="543" 
d="M412 565l-149 57l-45 -55h-25l44 101l71 22l147 -58l46 56h25l-46 -107zM174 -15q-58 0 -83.5 34t-16.5 85l55 312l-88 -31l-12 29l170 75l40 -39l-54 -314q-11 -57 29 -57q22 0 82 39l45 30l56 326h105l-73 -412l82 52l19 -26l-146 -103l-62 30l8 58l17 35z" />
    <glyph glyph-name="Umacron" unicode="&#x16a;" horiz-adv-x="677" 
d="M302 797l11 61h285l-10 -61h-286zM295 -18q-241 0 -200 260l65 406l-82 13l11 40l134 -3l145 3l-1 -40l-82 -13l-70 -421q-13 -76 27.5 -129.5t124.5 -53.5q63 25 93.5 64t44.5 125l67 415l-88 13l11 40l119 -3l123 3l-1 -40l-88 -13l-65 -410q-15 -94 -60 -150t-151 -85
z" />
    <glyph glyph-name="umacron" unicode="&#x16b;" horiz-adv-x="543" 
d="M192 591l10 62h285l-10 -62h-285zM174 -15q-58 0 -83.5 34t-16.5 85l55 312l-88 -31l-12 29l170 75l40 -39l-54 -314q-11 -57 29 -57q22 0 82 39l45 30l56 326h105l-73 -412l82 52l19 -26l-146 -103l-62 30l8 58l17 35z" />
    <glyph glyph-name="Ubreve" unicode="&#x16c;" horiz-adv-x="677" 
d="M461 757q-100 0 -137 111l33 22q14 -16 21.5 -24t31 -19.5t50.5 -11.5t55 11.5t39 19.5t30 24l24 -22q-21 -28 -30 -38.5t-41.5 -33.5t-75.5 -39zM295 -18q-241 0 -200 260l65 406l-82 13l11 40l134 -3l145 3l-1 -40l-82 -13l-70 -421q-13 -76 27.5 -129.5t124.5 -53.5
q63 25 93.5 64t44.5 125l67 415l-88 13l11 40l119 -3l123 3l-1 -40l-88 -13l-65 -410q-15 -94 -60 -150t-151 -85z" />
    <glyph glyph-name="ubreve" unicode="&#x16d;" horiz-adv-x="543" 
d="M348 553q-55 0 -89 40t-45 91l36 23q37 -79 103 -79q62 0 119 79l26 -23q-18 -29 -30 -44.5t-43.5 -41t-76.5 -45.5zM174 -15q-58 0 -83.5 34t-16.5 85l55 312l-88 -31l-12 29l170 75l40 -39l-54 -314q-11 -57 29 -57q22 0 82 39l45 30l56 326h105l-73 -412l82 52l19 -26
l-146 -103l-62 30l8 58l17 35z" />
    <glyph glyph-name="Uring" unicode="&#x16e;" horiz-adv-x="677" 
d="M467 743q-47 0 -79 22.5t-32 73.5q0 23 8.5 40.5t26 28.5t33 17.5t40.5 13.5q108 0 108 -100q0 -17 -4.5 -30.5t-9.5 -21t-17.5 -15t-20 -10.5t-26 -9.5t-27.5 -9.5zM465 786q24 0 40.5 14.5t16.5 38.5t-16.5 40.5t-40.5 16.5t-40.5 -16.5t-16.5 -40.5t16.5 -38.5
t40.5 -14.5zM295 -18q-241 0 -200 260l65 406l-82 13l11 40l134 -3l145 3l-1 -40l-82 -13l-70 -421q-13 -76 27.5 -129.5t124.5 -53.5q63 25 93.5 64t44.5 125l67 415l-88 13l11 40l119 -3l123 3l-1 -40l-88 -13l-65 -410q-15 -94 -60 -150t-151 -85z" />
    <glyph glyph-name="uring" unicode="&#x16f;" horiz-adv-x="543" 
d="M360 541q-45 0 -76 22t-31 71q0 43 26.5 63t77.5 34q105 0 105 -97q0 -20 -4 -33.5t-17 -23t-19 -13.5t-30.5 -12t-31.5 -11zM358 580q24 0 41 15t17 39t-17 41t-41 17t-40.5 -17t-16.5 -41t16.5 -39t40.5 -15zM174 -15q-58 0 -83.5 34t-16.5 85l55 312l-88 -31l-12 29
l170 75l40 -39l-54 -314q-11 -57 29 -57q22 0 82 39l45 30l56 326h105l-73 -412l82 52l19 -26l-146 -103l-62 30l8 58l17 35z" />
    <glyph glyph-name="Uhungarumlaut" unicode="&#x170;" horiz-adv-x="677" 
d="M305 750l84 100h118l-136 -100h-66zM480 750l84 100h118l-136 -100h-66zM295 -18q-241 0 -200 260l65 406l-82 13l11 40l134 -3l145 3l-1 -40l-82 -13l-70 -421q-13 -76 27.5 -129.5t124.5 -53.5q63 25 93.5 64t44.5 125l67 415l-88 13l11 40l119 -3l123 3l-1 -40
l-88 -13l-65 -410q-15 -94 -60 -150t-151 -85z" />
    <glyph glyph-name="uhungarumlaut" unicode="&#x171;" horiz-adv-x="543" 
d="M208 553l75 157h117l-144 -157h-48zM380 553l76 157h117l-144 -157h-49zM174 -15q-58 0 -83.5 34t-16.5 85l55 312l-88 -31l-12 29l170 75l40 -39l-54 -314q-11 -57 29 -57q22 0 82 39l45 30l56 326h105l-73 -412l82 52l19 -26l-146 -103l-62 30l8 58l17 35z" />
    <glyph glyph-name="Uogonek" unicode="&#x172;" horiz-adv-x="677" 
d="M614 698l123 3l-1 -40l-88 -13l-65 -410q-13 -84 -50 -137.5t-120 -84.5l-76 -123l-6 -33q-5 -32 17 -49t75 -17l-7 -37q-101 0 -141 25t-31 76l11 60l95 79l-55 -15q-241 0 -200 260l65 406l-82 13l11 40l134 -3l145 3l-1 -40l-82 -13l-70 -421q-13 -76 27.5 -129.5
t124.5 -53.5q63 25 93.5 64t44.5 125l67 415l-88 13l11 40z" />
    <glyph glyph-name="uogonek" unicode="&#x173;" horiz-adv-x="543" 
d="M336 -140q-5 -32 17 -49t75 -17l-7 -37q-101 0 -141 25t-31 76l11 60l97 80l-35 17l8 58l17 35l-173 -123q-58 0 -83.5 34t-16.5 85l55 312l-88 -31l-12 29l170 75l40 -39l-54 -314q-11 -57 29 -57q22 0 82 39l45 30l56 326h105l-73 -412l82 52l19 -26l-120 -84l-68 -111
z" />
    <glyph glyph-name="Wcircumflex" unicode="&#x174;" horiz-adv-x="938" 
d="M416 768l117 134h94l69 -134h-61l-67 68l-90 -68h-62zM252 -18l-106 668l-70 11l11 40l147 -3l105 3l-1 -40l-67 -13l65 -480l-12 -63l172 436l-16 109l-55 11l11 40l132 -3l122 3l-1 -40l-84 -13l65 -480l-12 -63l220 543l-87 13l11 40l117 -3l81 3l-1 -40l-50 -11
l-279 -644l-84 -24l-69 440l5 57l-186 -473z" />
    <glyph glyph-name="wcircumflex" unicode="&#x175;" horiz-adv-x="697" 
d="M280 553l121 156h77l60 -156h-48l-65 82l-96 -82h-49zM206 -15l-97 22l-12 407l-86 -30l-12 30l169 75l38 -37v-353l-8 -49l143 222l-5 167l109 37v-378l-8 -50l187 290l-73 92l97 59l44 -53l-22 -126l-224 -325l-98 22l-4 146l10 64z" />
    <glyph glyph-name="Ycircumflex" unicode="&#x176;" horiz-adv-x="640" 
d="M274 768l117 134h94l69 -134h-61l-67 68l-90 -68h-62zM132 -1l1 40l118 13l36 232l-153 365l-56 12l10 40l123 -3l138 3v-40l-82 -13l110 -271v-47l202 318l-79 13l10 40l112 -3l81 3l-1 -40l-53 -12l-241 -366l-36 -231l110 -13l-11 -40l-170 3z" />
    <glyph glyph-name="ycircumflex" unicode="&#x177;" horiz-adv-x="482" 
d="M172 553l121 156h77l60 -156h-48l-65 82l-96 -82h-49zM-9 -235l18 107h87l130 139l-77 -11l-57 412l-82 -29l-15 27l150 79l56 -33l45 -408l164 290l-74 92l97 59l44 -53l-22 -126l-328 -545h-136z" />
    <glyph glyph-name="Ydieresis" unicode="&#x178;" horiz-adv-x="640" 
d="M319 760l-54 6l4 57l20 44l40 5l52 -5l-1 -52l-19 -49zM540 760l-54 6l4 57l20 44l40 5l52 -5l-1 -52l-20 -49zM132 -1l1 40l118 13l36 232l-153 365l-56 12l10 40l123 -3l138 3v-40l-82 -13l110 -271v-47l202 318l-79 13l10 40l112 -3l81 3l-1 -40l-53 -12l-241 -366
l-36 -231l110 -13l-11 -40l-170 3z" />
    <glyph glyph-name="Zacute" unicode="&#x179;" horiz-adv-x="541" 
d="M335 768l63 134h131l-139 -134h-55zM-11 0l-1 44l426 571l58 38l-279 -8l-68 -129h-41l30 184h456l16 -42l-429 -573l-54 -35l291 5l101 152h45l-68 -207h-483z" />
    <glyph glyph-name="zacute" unicode="&#x17a;" horiz-adv-x="427" 
d="M244 553l76 157h117l-144 -157h-49zM343 -17l-276 41l-44 -30l-32 22l342 382l-81 -38l-145 19l-28 -28l-27 6l62 126l267 -29l31 20l27 -20l-325 -364l72 30l159 -28l36 34l27 -8z" />
    <glyph glyph-name="Zdotaccent" unicode="&#x17b;" horiz-adv-x="541" 
d="M373 772l-62 5l5 56l19 46l41 5l55 -5l-1 -54l-19 -48zM-11 0l-1 44l426 571l58 38l-279 -8l-68 -129h-41l30 184h456l16 -42l-429 -573l-54 -35l291 5l101 152h45l-68 -207h-483z" />
    <glyph glyph-name="zdotaccent" unicode="&#x17c;" horiz-adv-x="427" 
d="M299 580l-69 6l4 54l19 48l34 5l62 -5v-55l-19 -47zM343 -17l-276 41l-44 -30l-32 22l342 382l-81 -38l-145 19l-28 -28l-27 6l62 126l267 -29l31 20l27 -20l-325 -364l72 30l159 -28l36 34l27 -8z" />
    <glyph glyph-name="Zcaron" unicode="&#x17d;" horiz-adv-x="541" 
d="M317 768l-70 134h62l67 -66l90 66h62l-117 -134h-94zM-11 0l-1 44l426 571l58 38l-279 -8l-68 -129h-41l30 184h456l16 -42l-429 -573l-54 -35l291 5l101 152h45l-68 -207h-483z" />
    <glyph glyph-name="zcaron" unicode="&#x17e;" horiz-adv-x="427" 
d="M230 553l-60 157h47l66 -87l95 87h51l-121 -157h-78zM343 -17l-276 41l-44 -30l-32 22l342 382l-81 -38l-145 19l-28 -28l-27 6l62 126l267 -29l31 20l27 -20l-325 -364l72 30l159 -28l36 34l27 -8z" />
    <glyph glyph-name="longs" unicode="&#x17f;" horiz-adv-x="329" 
d="M-128 -234l19 96h112q31 36 39 85l81 460h-97l5 19l42 37h59l8 46q16 93 74 128l125 75h95l-17 -86h-127q-29 -26 -38 -77l-100 -571q-14 -84 -90 -135l-118 -77h-72z" />
    <glyph glyph-name="florin" unicode="&#x192;" horiz-adv-x="376" 
d="M-105 -232l19 98h112q30 31 40 82l80 458h-97l5 20l41 36h61l7 48q16 94 74 128l123 76h97l-18 -88h-127q-14 -13 -25 -35.5t-13 -41.5l-16 -90h113l-12 -53h-111l-74 -431q-15 -80 -89 -130l-118 -77h-72z" />
    <glyph glyph-name="AEacute" unicode="&#x1fc;" horiz-adv-x="890" 
d="M606 768l63 134h131l-139 -134h-55zM-25 -1l2 40l72 11l415 651l89 -3l352 3v-174h-39l-45 118l-214 3l-45 -284l108 4l63 116h31l-38 -145l-9 -148h-30l-26 117l-107 4l-40 -261l229 3l78 139h42l-46 -194l-375 2l-132 -2l1 40l86 13l41 261h-158l-161 -261l81 -13
l-12 -40l-109 3zM308 362h138l48 293z" />
    <glyph glyph-name="aeacute" unicode="&#x1fd;" horiz-adv-x="683" 
d="M590 710l-144 -157h-49l76 157h117zM648 292l-257 -79v-2q0 -52 26.5 -94t75.5 -49q65 26 125 63l19 -27q-75 -54 -147 -92l-50 -27q-52 4 -92 33.5t-57 79.5l-127 -113q-132 33 -132 189q0 187 184 278l77 37q70 -2 164 -39l100 39q107 -21 107 -110q0 -36 -16 -87z
M501 435q-43 -20 -71.5 -71.5t-36.5 -114.5l149 59q10 33 10 57q0 61 -51 70zM278 169q0 131 86 219q-65 35 -131 35q-86 -81 -86 -216q0 -90 60 -133l74 57q-3 18 -3 38z" />
    <glyph glyph-name="Oslashacute" unicode="&#x1fe;" horiz-adv-x="707" 
d="M612 902l-139 -134h-55l63 134h131zM714 715l-78 -91q65 -80 65 -212q0 -62 -16 -121t-49.5 -114.5t-91.5 -100t-134 -68.5l-83 -26q-116 0 -188 67l-56 -64h-61l86 99q-59 81 -59 204q0 62 16 121t49.5 114.5t91.5 100t134 68.5l83 26q109 0 181 -61l51 58h59zM181 302
q0 -62 16 -115l330 380q-49 79 -145 94q-95 -39 -148 -135.5t-53 -223.5zM568 398q0 71 -20 125l-330 -382q48 -87 149 -102q95 39 148 135.5t53 223.5z" />
    <glyph glyph-name="oslashacute" unicode="&#x1ff;" horiz-adv-x="495" 
d="M472 710l-144 -157h-49l76 157h117zM511 483l-66 -71q33 -53 33 -123q0 -94 -52 -168t-146 -111l-64 -25q-72 0 -123 49l-34 -37h-58l65 70q-29 50 -29 116q0 93 52 167t147 113l63 26q70 0 119 -46l37 40h56zM152 205q0 -23 3 -43l190 203q-26 55 -87 67
q-54 -21 -80 -87t-26 -140zM364 267q0 26 -5 53l-191 -206q25 -61 88 -74q54 22 81 88.5t27 138.5z" />
    <glyph glyph-name="Scommaaccent" unicode="&#x218;" horiz-adv-x="514" 
d="M234 -18q-136 0 -219 61l25 148h66v-84q26 -28 71 -49.5t88 -21.5q50 15 75 46t25 74q0 30 -12 54t-25.5 37.5t-40.5 34.5l-101 80q-42 35 -64 69.5t-22 80.5q0 111 155 172l91 34q122 0 192 -53l-26 -145h-56l-6 92q-63 54 -138 55q-96 -31 -96 -103q0 -35 18.5 -60
t57.5 -56l94 -76q30 -24 48 -43t33 -53t15 -75q0 -60 -39.5 -108t-108.5 -74zM179 -245l-40 10l43 110l-17 35l7 40h110l-14 -80z" />
    <glyph glyph-name="scommaaccent" unicode="&#x219;" horiz-adv-x="386" 
d="M129 -15q-26 8 -67.5 25.5t-56.5 27.5l50 84q83 -47 145 -77q39 13 39 53q0 37 -37 68l-89 77q-45 40 -45 92q0 40 28.5 69.5t94.5 55.5l68 29q36 -6 121 -45l-50 -86q-59 39 -133 71q-36 -13 -36 -47q0 -31 39 -65l85 -72q49 -43 49 -97q0 -89 -103 -126zM95 -245
l-40 10l43 110l-17 35l7 40h110l-14 -80z" />
    <glyph glyph-name="uni021A" unicode="&#x21a;" horiz-adv-x="601" 
d="M117 -1l1 40l93 13l95 598l-129 -3l-66 -133h-45l28 187l283 -3l278 3l-27 -187h-45l-24 133l-131 3l-96 -598l87 -13l-11 -40l-146 3zM210 -245l-40 10l43 110l-17 35l7 40h110l-14 -80z" />
    <glyph glyph-name="uni021B" unicode="&#x21b;" horiz-adv-x="357" 
d="M130 -15l-68 31l68 390h-94l5 19l41 38h57l12 64l89 76h29l-26 -144h122l-11 -53h-120l-59 -343l130 52l15 -28zM76 -245l-40 10l43 110l-17 35l7 40h110l-14 -80z" />
    <glyph glyph-name="uni0237" unicode="&#x237;" horiz-adv-x="282" 
d="M-117 -235l17 95h116q29 36 39 94l82 462l-88 -31l-13 29l170 75l41 -40l-83 -467q-15 -89 -89 -137l-121 -80h-71z" />
    <glyph glyph-name="uni02BC" unicode="&#x2bc;" horiz-adv-x="242" 
d="M137 438l-38 17q54 91 62 130l-43 5l5 62l19 52l74 6l36 -6l-4 -61l-16 -53z" />
    <glyph glyph-name="circumflex" unicode="&#x2c6;" horiz-adv-x="600" 
d="M187 553l121 156h77l60 -156h-48l-65 82l-96 -82h-49z" />
    <glyph glyph-name="caron" unicode="&#x2c7;" horiz-adv-x="600" 
d="M285 553l-60 157h47l66 -87l95 87h51l-121 -157h-78z" />
    <glyph glyph-name="breve" unicode="&#x2d8;" horiz-adv-x="600" 
d="M337 553q-55 0 -89 40t-45 91l36 23q37 -79 103 -79q62 0 119 79l26 -23q-18 -29 -30 -44.5t-43.5 -41t-76.5 -45.5z" />
    <glyph glyph-name="dotaccent" unicode="&#x2d9;" horiz-adv-x="600" 
d="M343 580l-69 6l4 54l19 48l34 5l62 -5v-55l-19 -47z" />
    <glyph glyph-name="ring" unicode="&#x2da;" horiz-adv-x="600" 
d="M337 541q-45 0 -76 22t-31 71q0 43 26.5 63t77.5 34q105 0 105 -97q0 -20 -4 -33.5t-17 -23t-19 -13.5t-30.5 -12t-31.5 -11zM335 580q24 0 41 15t17 39t-17 41t-41 17t-40.5 -17t-16.5 -41t16.5 -39t40.5 -15z" />
    <glyph glyph-name="ogonek" unicode="&#x2db;" horiz-adv-x="600" 
d="M143 -243q-101 0 -141 25t-31 76l11 60l137 114h31l-86 -139l-6 -33q-5 -32 17 -49t75 -17z" />
    <glyph glyph-name="tilde" unicode="&#x2dc;" horiz-adv-x="600" 
d="M389 566l-149 57l-45 -55h-25l44 101l71 22l147 -58l46 56h25l-46 -107z" />
    <glyph glyph-name="hungarumlaut" unicode="&#x2dd;" horiz-adv-x="600" 
d="M152 553l75 157h117l-144 -157h-48zM324 553l76 157h117l-144 -157h-49z" />
    <glyph glyph-name="gravecomb" unicode="&#x300;" horiz-adv-x="0" 
d="M-149 553l-79 157h113l11 -157h-45z" />
    <glyph glyph-name="acutecomb" unicode="&#x301;" horiz-adv-x="0" 
d="M-262 553l76 157h117l-144 -157h-49z" />
    <glyph glyph-name="uni0302" unicode="&#x302;" horiz-adv-x="0" 
d="M-313 553l121 156h77l60 -156h-48l-65 82l-96 -82h-49z" />
    <glyph glyph-name="tildecomb" unicode="&#x303;" horiz-adv-x="0" 
d="M-111 566l-149 57l-45 -55h-25l44 101l71 22l147 -58l46 56h25l-46 -107z" />
    <glyph glyph-name="uni0304" unicode="&#x304;" horiz-adv-x="0" 
d="M-314 591l10 62h285l-10 -62h-285z" />
    <glyph glyph-name="uni0306" unicode="&#x306;" horiz-adv-x="0" 
d="M-163 553q-55 0 -89 40t-45 91l36 23q37 -79 103 -79q62 0 119 79l26 -23q-18 -29 -30 -44.5t-43.5 -41t-76.5 -45.5z" />
    <glyph glyph-name="uni0307" unicode="&#x307;" horiz-adv-x="0" 
d="M-157 580l-69 6l4 54l19 48l34 5l62 -5v-55l-19 -47z" />
    <glyph glyph-name="uni0308" unicode="&#x308;" horiz-adv-x="0" 
d="M-264 576l-51 6l4 51l19 42l40 6l45 -6l-1 -49l-19 -44zM-78 576l-51 6l4 51l19 42l39 6l46 -6l-1 -49l-18 -44z" />
    <glyph glyph-name="uni030A" unicode="&#x30a;" horiz-adv-x="0" 
d="M-163 541q-45 0 -76 22t-31 71q0 43 26.5 63t77.5 34q105 0 105 -97q0 -20 -4 -33.5t-17 -23t-19 -13.5t-30.5 -12t-31.5 -11zM-165 580q24 0 41 15t17 39t-17 41t-41 17t-40.5 -17t-16.5 -41t16.5 -39t40.5 -15z" />
    <glyph glyph-name="uni030B" unicode="&#x30b;" horiz-adv-x="0" 
d="M-348 553l75 157h117l-144 -157h-48zM-176 553l76 157h117l-144 -157h-49z" />
    <glyph glyph-name="uni030C" unicode="&#x30c;" horiz-adv-x="0" 
d="M-215 553l-60 157h47l66 -87l95 87h51l-121 -157h-78z" />
    <glyph glyph-name="uni0312" unicode="&#x312;" horiz-adv-x="0" 
d="M-218 550l14 80l88 104l41 -10l-42 -99l17 -35l-7 -40h-111z" />
    <glyph glyph-name="uni0326" unicode="&#x326;" horiz-adv-x="0" 
d="M-286 -245l-40 10l43 110l-17 35l7 40h110l-14 -80z" />
    <glyph glyph-name="uni0327" unicode="&#x327;" horiz-adv-x="0" 
d="M-359 -243l29 43h78q33 20 33 60q0 31 -23.5 45.5t-55.5 14.5l84 97h44l-53 -64q34 0 57.5 -17.5t23.5 -49.5q0 -73 -107 -111l-51 -18h-59z" />
    <glyph glyph-name="uni0328" unicode="&#x328;" horiz-adv-x="0" 
d="M-152 -243q-101 0 -141 25t-31 76l11 60l137 114h31l-86 -139l-6 -33q-5 -32 17 -49t75 -17z" />
    <glyph glyph-name="uni0394" unicode="&#x394;" horiz-adv-x="676" 
d="M20 0v55l303 640l45 20l288 -659v-56h-636zM93 55h421l-188 443l-7 55z" />
    <glyph glyph-name="uni03A9" unicode="&#x3a9;" horiz-adv-x="720" 
d="M30 0v165h39l24 -63l166 -31v51q-92 20 -155.5 92t-63.5 191t78 194t252 116q136 0 223 -81t87 -199q0 -39 -6 -71.5t-13 -56t-26 -47.5t-31 -37t-43 -33.5t-46.5 -30t-56.5 -32.5v-56l169 31l24 63h39v-165h-295v165q56 0 105 60t49 179q0 112 -60.5 182.5t-149.5 70.5
q-69 0 -118.5 -64.5t-49.5 -156.5q0 -114 48.5 -192.5t105.5 -78.5v-165h-295z" />
    <glyph glyph-name="uni03BC" unicode="&#x3bc;" 
d="M52 -230l122 704h105l-58 -338q-11 -57 29 -57q23 0 81 38l46 31l57 326h104l-72 -409l82 49l19 -26l-146 -104l-62 31l7 58l17 35l-173 -124q-37 0 -60 14l3 -31l22 -197h-123z" />
    <glyph glyph-name="pi" unicode="&#x3c0;" 
d="M378 -16l-70 34l68 386h-118l-71 -404h-107l71 404h-48l-50 -89h-37l26 150h562l-10 -61h-111l-61 -339l83 49l18 -26z" />
    <glyph glyph-name="Wgrave" unicode="&#x1e80;" horiz-adv-x="938" 
d="M534 768l-90 134h121l21 -134h-52zM252 -18l-106 668l-70 11l11 40l147 -3l105 3l-1 -40l-67 -13l65 -480l-12 -63l172 436l-16 109l-55 11l11 40l132 -3l122 3l-1 -40l-84 -13l65 -480l-12 -63l220 543l-87 13l11 40l117 -3l81 3l-1 -40l-50 -11l-279 -644l-84 -24
l-69 440l5 57l-186 -473z" />
    <glyph glyph-name="wgrave" unicode="&#x1e81;" horiz-adv-x="697" 
d="M394 553l-79 157h113l11 -157h-45zM206 -15l-97 22l-12 407l-86 -30l-12 30l169 75l38 -37v-353l-8 -49l143 222l-5 167l109 37v-378l-8 -50l187 290l-73 92l97 59l44 -53l-22 -126l-224 -325l-98 22l-4 146l10 64z" />
    <glyph glyph-name="Wacute" unicode="&#x1e82;" horiz-adv-x="938" 
d="M537 768l63 134h131l-139 -134h-55zM252 -18l-106 668l-70 11l11 40l147 -3l105 3l-1 -40l-67 -13l65 -480l-12 -63l172 436l-16 109l-55 11l11 40l132 -3l122 3l-1 -40l-84 -13l65 -480l-12 -63l220 543l-87 13l11 40l117 -3l81 3l-1 -40l-50 -11l-279 -644l-84 -24
l-69 440l5 57l-186 -473z" />
    <glyph glyph-name="wacute" unicode="&#x1e83;" horiz-adv-x="697" 
d="M380 553l76 157h117l-144 -157h-49zM206 -15l-97 22l-12 407l-86 -30l-12 30l169 75l38 -37v-353l-8 -49l143 222l-5 167l109 37v-378l-8 -50l187 290l-73 92l97 59l44 -53l-22 -126l-224 -325l-98 22l-4 146l10 64z" />
    <glyph glyph-name="Wdieresis" unicode="&#x1e84;" horiz-adv-x="938" 
d="M461 760l-54 6l4 57l20 44l40 5l52 -5l-1 -52l-19 -49zM682 760l-54 6l4 57l20 44l40 5l52 -5l-1 -52l-20 -49zM252 -18l-106 668l-70 11l11 40l147 -3l105 3l-1 -40l-67 -13l65 -480l-12 -63l172 436l-16 109l-55 11l11 40l132 -3l122 3l-1 -40l-84 -13l65 -480l-12 -63
l220 543l-87 13l11 40l117 -3l81 3l-1 -40l-50 -11l-279 -644l-84 -24l-69 440l5 57l-186 -473z" />
    <glyph glyph-name="wdieresis" unicode="&#x1e85;" horiz-adv-x="697" 
d="M322 576l-51 6l4 51l19 42l40 6l45 -6l-1 -49l-19 -44zM508 576l-51 6l4 51l19 42l39 6l46 -6l-1 -49l-18 -44zM206 -15l-97 22l-12 407l-86 -30l-12 30l169 75l38 -37v-353l-8 -49l143 222l-5 167l109 37v-378l-8 -50l187 290l-73 92l97 59l44 -53l-22 -126l-224 -325
l-98 22l-4 146l10 64z" />
    <glyph glyph-name="Ygrave" unicode="&#x1ef2;" horiz-adv-x="640" 
d="M392 768l-90 134h121l21 -134h-52zM132 -1l1 40l118 13l36 232l-153 365l-56 12l10 40l123 -3l138 3v-40l-82 -13l110 -271v-47l202 318l-79 13l10 40l112 -3l81 3l-1 -40l-53 -12l-241 -366l-36 -231l110 -13l-11 -40l-170 3z" />
    <glyph glyph-name="ygrave" unicode="&#x1ef3;" horiz-adv-x="482" 
d="M286 553l-79 157h113l11 -157h-45zM-9 -235l18 107h87l130 139l-77 -11l-57 412l-82 -29l-15 27l150 79l56 -33l45 -408l164 290l-74 92l97 59l44 -53l-22 -126l-328 -545h-136z" />
    <glyph glyph-name="uni2002" unicode="&#x2002;" horiz-adv-x="500" 
 />
    <glyph glyph-name="uni2003" unicode="&#x2003;" horiz-adv-x="1000" 
 />
    <glyph glyph-name="uni2004" unicode="&#x2004;" horiz-adv-x="0" 
 />
    <glyph glyph-name="uni2005" unicode="&#x2005;" horiz-adv-x="250" 
 />
    <glyph glyph-name="uni2009" unicode="&#x2009;" horiz-adv-x="135" 
 />
    <glyph glyph-name="uni200A" unicode="&#x200a;" horiz-adv-x="75" 
 />
    <glyph glyph-name="endash" unicode="&#x2013;" horiz-adv-x="470" 
d="M34 249l12 56h400l-12 -56h-400z" />
    <glyph glyph-name="emdash" unicode="&#x2014;" horiz-adv-x="870" 
d="M37 249l12 56h800l-12 -56h-800z" />
    <glyph glyph-name="quoteleft" unicode="&#x2018;" horiz-adv-x="229" 
d="M206 720l38 -17q-54 -91 -62 -130l43 -5l-5 -62l-19 -52l-74 -6l-36 6l4 61l16 53z" />
    <glyph glyph-name="quoteright" unicode="&#x2019;" horiz-adv-x="242" 
d="M137 438l-38 17q54 91 62 130l-43 5l5 62l19 52l74 6l36 -6l-4 -61l-16 -53z" />
    <glyph glyph-name="quotesinglbase" unicode="&#x201a;" horiz-adv-x="246" 
d="M53 -151l-38 17q54 91 62 130l-43 5l5 62l19 52l74 6l36 -6l-4 -61l-16 -53z" />
    <glyph glyph-name="quotedblleft" unicode="&#x201c;" horiz-adv-x="402" 
d="M205 722l38 -17q-54 -91 -62 -130l43 -5l-5 -62l-19 -52l-74 -6l-36 6l4 61l16 53zM379 722l38 -17q-54 -91 -62 -130l43 -5l-5 -62l-19 -52l-74 -6l-36 6l4 61l16 53z" />
    <glyph glyph-name="quotedblright" unicode="&#x201d;" horiz-adv-x="416" 
d="M137 438l-38 17q54 91 62 130l-43 5l5 62l19 52l74 6l36 -6l-4 -61l-16 -53zM311 438l-38 17q54 91 62 130l-43 5l5 62l19 52l74 6l36 -6l-4 -61l-16 -53z" />
    <glyph glyph-name="quotedblbase" unicode="&#x201e;" horiz-adv-x="420" 
d="M53 -151l-38 17q54 91 62 130l-43 5l5 62l19 52l74 6l36 -6l-4 -61l-16 -53zM227 -151l-38 17q54 91 62 130l-43 5l5 62l19 52l74 6l36 -6l-4 -61l-16 -53z" />
    <glyph glyph-name="dagger" unicode="&#x2020;" horiz-adv-x="436" 
d="M147 -60l27 286l-10 103l35 41l31 106l-170 -29l16 96l161 -25v192h112l-67 -192l174 25l-16 -96l-166 29l-7 -106l22 -41l-47 -103l-72 -286h-23z" />
    <glyph glyph-name="daggerdbl" unicode="&#x2021;" horiz-adv-x="500" 
d="M138 -52l66 192l-174 -25l16 96l166 -29l7 106l-21 41l35 41l31 106l-170 -29l16 96l161 -25v192h112l-67 -192l174 25l-16 -96l-166 29l-7 -106l22 -41l-36 -41l-30 -106l169 29l-16 -96l-161 25l1 -192h-112z" />
    <glyph glyph-name="bullet" unicode="&#x2022;" horiz-adv-x="286" 
d="M107 232l-42 6l7 70l17 61l90 6l42 -6l-7 -69l-17 -62z" />
    <glyph glyph-name="ellipsis" unicode="&#x2026;" horiz-adv-x="755" 
d="M101 -5l-31 6l5 62l16 52l83 6l31 -6l-5 -61l-16 -53zM343 -5l-31 6l5 62l16 52l83 6l31 -6l-5 -61l-16 -53zM586 -5l-31 6l6 62l15 52l83 6l31 -6l-4 -61l-16 -53z" />
    <glyph glyph-name="perthousand" unicode="&#x2030;" horiz-adv-x="1120" 
d="M41 -5l658 710h81l-657 -710h-82zM226 350q-53 0 -90 34.5t-37 103.5q0 72 41 128t124 79l24 6q53 0 90 -35t37 -104q0 -72 -40 -127t-122 -78zM241 392q25 0 43.5 18.5t27.5 47.5t13.5 57t4.5 54q0 89 -54 89q-34 0 -56 -33t-29 -69.5t-7 -72.5q0 -49 17 -70t40 -21z
M538 0q-53 0 -90 35t-37 103q0 72 41 128.5t124 78.5l24 6q54 0 90.5 -35t36.5 -104q0 -71 -40 -127t-122 -78zM891 0q-54 0 -91 35t-37 103q0 72 41 128.5t125 78.5l23 6q54 0 91 -35.5t37 -103.5q0 -71 -40 -127t-122 -78zM553 42q25 0 43.5 18.5t27.5 47.5t13.5 57
t4.5 54q0 89 -54 89q-34 0 -56 -33t-29 -69.5t-7 -72.5q0 -91 57 -91zM905 42q32 0 54 33t29 70.5t7 73.5q0 89 -55 89q-34 0 -56 -33t-29 -69.5t-7 -72.5q0 -49 17 -70t40 -21z" />
    <glyph glyph-name="guilsinglleft" unicode="&#x2039;" horiz-adv-x="324" 
d="M177 15l-142 220l220 220h64l-166 -221l89 -219h-65z" />
    <glyph glyph-name="guilsinglright" unicode="&#x203a;" horiz-adv-x="325" 
d="M4 15l165 219l-88 221h64l144 -220l-220 -220h-65z" />
    <glyph glyph-name="fraction" unicode="&#x2044;" horiz-adv-x="182" 
d="M-183 -50l521 760h65l-519 -760h-67z" />
    <glyph glyph-name="uni2070" unicode="&#x2070;" horiz-adv-x="421" 
d="M258 390q-59 0 -95 43.5t-36 119.5q0 74 42.5 136.5t128.5 90.5l44 15q59 0 95 -43.5t36 -119.5q0 -74 -42.5 -136.5t-128.5 -90.5zM282 428q43 19 69.5 72.5t26.5 121.5q0 117 -60 135q-43 -19 -69.5 -72.5t-26.5 -121.5q0 -117 60 -135z" />
    <glyph glyph-name="uni2074" unicode="&#x2074;" horiz-adv-x="381" 
d="M253 400l20 119h-149l-19 41l222 232h85l-6 -34l-252 -193l39 14h90l8 41l69 48h16l-16 -89h75l-9 -60h-76l-20 -119h-77z" />
    <glyph glyph-name="uni2075" unicode="&#x2075;" horiz-adv-x="362" 
d="M111 397l11 68h136q40 31 40 77q0 57 -59 57q-27 0 -61 -14l-21 -8l-14 13l59 197h225l-4 -26l-27 -42h-177l-34 -105l87 40q56 0 88.5 -23t32.5 -62q0 -30 -12 -54t-37 -41.5t-45 -27.5t-53 -24l-63 -25h-72z" />
    <glyph glyph-name="uni2076" unicode="&#x2076;" horiz-adv-x="382" 
d="M326 657q42 0 70.5 -29.5t28.5 -74.5q0 -53 -34 -92.5t-97 -58.5l-40 -12q-56 0 -90 37.5t-34 100.5q0 93 85 172t204 95l9 -22q-161 -41 -194 -176zM275 422q26 11 41.5 39t15.5 62q0 35 -10 55.5t-26 20.5t-54 -24l-14 -9q-3 -27 -3 -58q2 -74 50 -86z" />
    <glyph glyph-name="uni2077" unicode="&#x2077;" horiz-adv-x="337" 
d="M123 400v37l219 282l-25 -12h-193l11 78h262l19 -21l-234 -364h-59z" />
    <glyph glyph-name="uni2078" unicode="&#x2078;" horiz-adv-x="387" 
d="M441 721q0 -21 -8.5 -38t-26 -29.5t-33 -20t-40.5 -17.5q28 -19 40 -28t26.5 -29t14.5 -42q0 -82 -130 -117l-39 -11q-54 0 -89 25.5t-35 63.5q0 73 112 113q-32 20 -49 38.5t-17 46.5q0 37 29 63.5t76 40.5l50 15q53 0 86 -21t33 -53zM304 635q45 28 45 71q0 50 -51 60
q-36 -13 -36 -64q0 -36 42 -67zM267 420q26 7 39 26t13 42q0 46 -58 85q-47 -32 -47 -80q0 -52 53 -73z" />
    <glyph glyph-name="uni2079" unicode="&#x2079;" horiz-adv-x="376" 
d="M293 795q56 0 90.5 -37t34.5 -101q0 -91 -84.5 -171t-205.5 -96l-9 22q160 41 193 176l-90 -60q-43 0 -71.5 31t-28.5 74q0 57 35.5 94.5t95.5 55.5zM307 610l11 8q4 24 4 59q0 73 -50 86q-29 -14 -42.5 -43.5t-13.5 -59.5q0 -34 10.5 -53.5t25.5 -19.5q21 0 55 23z" />
    <glyph glyph-name="uni207A" unicode="&#x207a;" horiz-adv-x="406" 
d="M243 463v117h-130v46h130v120h48v-120h131v-46h-131v-117h-48z" />
    <glyph glyph-name="uni207B" unicode="&#x207b;" horiz-adv-x="412" 
d="M113 591v46h315v-46h-315z" />
    <glyph glyph-name="uni207C" unicode="&#x207c;" horiz-adv-x="406" 
d="M113 635h309v-70h-309v70z" />
    <glyph glyph-name="uni207D" unicode="&#x207d;" horiz-adv-x="243" 
d="M212 319q-39 65 -54.5 104.5t-15.5 87.5q0 101 35.5 168t137.5 169l21 -15q-134 -149 -134 -332q0 -93 32 -166z" />
    <glyph glyph-name="uni207E" unicode="&#x207e;" horiz-adv-x="243" 
d="M68 319l-21 16q134 148 134 331q0 95 -32 166l22 16q40 -67 55 -105t15 -87q0 -101 -35.5 -167.5t-137.5 -169.5z" />
    <glyph glyph-name="uni2080" unicode="&#x2080;" horiz-adv-x="421" 
d="M141 -160q-59 0 -95 43.5t-36 119.5q0 74 42.5 136.5t128.5 90.5l44 15q59 0 95 -43.5t36 -119.5q0 -74 -42.5 -136.5t-128.5 -90.5zM165 -122q43 19 69.5 72.5t26.5 121.5q0 117 -60 135q-43 -19 -69.5 -72.5t-26.5 -121.5q0 -117 60 -135z" />
    <glyph glyph-name="uni2081" unicode="&#x2081;" horiz-adv-x="349" 
d="M-3 -151l2 29l88 10l48 275l10 16l-32 -17l-60 -9l-8 27l145 58h46l-62 -350l87 -10l-8 -29l-126 2z" />
    <glyph glyph-name="uni2082" unicode="&#x2082;" horiz-adv-x="384" 
d="M-6 -150l-12 27l126 108q114 96 114 167q0 26 -12 42t-33 17l-34 -11l-27 -64h-57l7 68l139 41q110 0 110 -88q0 -91 -154 -188l-115 -73l102 23h142v-27l-26 -42h-270z" />
    <glyph glyph-name="uni2083" unicode="&#x2083;" horiz-adv-x="343" 
d="M-21 -151l11 67h136q41 28 41 69q0 50 -81 50l-7 20l28 11q78 31 78 98q0 20 -10 32t-27 12l-35 -8l-26 -62h-65l8 67l143 40q102 0 102 -72q0 -38 -32.5 -63t-80.5 -37q50 -4 75 -25.5t25 -50.5q0 -17 -4.5 -31t-16 -25t-20.5 -19t-28 -16.5t-28 -12.5t-31.5 -12
t-28.5 -10l-61 -22h-65z" />
    <glyph glyph-name="uni2084" unicode="&#x2084;" horiz-adv-x="381" 
d="M136 -150l20 119h-149l-19 41l222 232h85l-6 -34l-252 -193l39 14h90l8 41l69 48h16l-16 -89h75l-9 -60h-76l-20 -119h-77z" />
    <glyph glyph-name="uni2085" unicode="&#x2085;" horiz-adv-x="362" 
d="M-6 -153l11 68h136q40 31 40 77q0 57 -59 57q-27 0 -61 -14l-21 -8l-14 13l59 197h225l-4 -26l-27 -42h-177l-34 -105l87 40q56 0 88.5 -23t32.5 -62q0 -30 -12 -54t-37 -41.5t-45 -27.5t-53 -24l-63 -25h-72z" />
    <glyph glyph-name="uni2086" unicode="&#x2086;" horiz-adv-x="382" 
d="M209 107q42 0 70.5 -29.5t28.5 -74.5q0 -53 -34 -92.5t-97 -58.5l-40 -12q-56 0 -90 37.5t-34 100.5q0 93 85 172t204 95l9 -22q-161 -41 -194 -176zM158 -128q26 11 41.5 39t15.5 62q0 35 -10.5 55.5t-25.5 20.5q-16 0 -54 -24l-14 -9q-3 -27 -3 -58q2 -74 50 -86z" />
    <glyph glyph-name="uni2087" unicode="&#x2087;" horiz-adv-x="337" 
d="M6 -150v37l219 282l-25 -12h-193l11 78h262l19 -21l-234 -364h-59z" />
    <glyph glyph-name="uni2088" unicode="&#x2088;" horiz-adv-x="387" 
d="M324 171q0 -21 -8.5 -38t-26 -29.5t-33 -20t-40.5 -17.5q28 -19 40 -28t26.5 -29t14.5 -42q0 -82 -130 -117l-39 -11q-54 0 -89 25.5t-35 63.5q0 73 112 113q-32 20 -49 38.5t-17 46.5q0 37 29 63.5t76 40.5l50 15q53 0 86 -21t33 -53zM187 85q45 28 45 71q0 50 -51 60
q-36 -13 -36 -64q0 -36 42 -67zM150 -130q26 7 39 26t13 42q0 46 -58 85q-47 -32 -47 -80q0 -52 53 -73z" />
    <glyph glyph-name="uni2089" unicode="&#x2089;" horiz-adv-x="376" 
d="M176 245q56 0 90.5 -37t34.5 -101q0 -91 -84.5 -171t-205.5 -96l-9 22q160 41 193 176l-90 -60q-43 0 -71.5 31t-28.5 74q0 57 35.5 94.5t95.5 55.5zM190 60l11 8q4 24 4 59q0 73 -50 86q-29 -14 -42.5 -43.5t-13.5 -59.5q0 -34 10.5 -53.5t25.5 -19.5q21 0 55 23z" />
    <glyph glyph-name="uni208A" unicode="&#x208a;" horiz-adv-x="398" 
d="M134 -85v117h-130v46h130v120h48v-120h131v-46h-131v-117h-48z" />
    <glyph glyph-name="uni208B" unicode="&#x208b;" horiz-adv-x="402" 
d="M4 43v46h315v-46h-315z" />
    <glyph glyph-name="uni208C" unicode="&#x208c;" horiz-adv-x="398" 
d="M4 87h309v-70h-309v70z" />
    <glyph glyph-name="uni208D" unicode="&#x208d;" horiz-adv-x="238" 
d="M101 -238q-39 65 -54.5 104t-15.5 87q0 102 36 169t137 168l21 -14q-133 -152 -133 -333q0 -96 31 -165z" />
    <glyph glyph-name="uni208E" unicode="&#x208e;" horiz-adv-x="239" 
d="M-34 -238l-20 15q132 149 132 332q0 96 -31 165l23 16q39 -64 54 -103t15 -88q0 -101 -36 -168t-137 -169z" />
    <glyph glyph-name="Euro" unicode="&#x20ac;" horiz-adv-x="648" 
d="M444 658q-70 -19 -122.5 -75t-79.5 -135h308l-43 -61h-281q-7 -42 -7 -74h244l-43 -61h-197q11 -84 55.5 -136.5t115.5 -52.5q64 0 170 57l22 -35q-31 -22 -91.5 -52.5t-126.5 -49.5q-123 0 -194.5 75t-80.5 194h-75l10 61h64q2 40 10 74h-60l10 61h69q38 91 116.5 154
t186.5 94l73 22q75 -14 161 -74l-56 -76q-26 25 -75 54t-83 36z" />
    <glyph glyph-name="uni2113" unicode="&#x2113;" horiz-adv-x="473" 
d="M166 -16l-83 22l38 220l-93 -36l11 61l93 37l57 324l170 108q56 -1 84 -42t28 -97q0 -57 -17.5 -104t-51.5 -84t-73.5 -65t-94.5 -56l-35 -201l151 47l19 -32zM247 344q115 79 115 224q0 28 -8 47.5t-23 19.5l-36 -10z" />
    <glyph glyph-name="uni2116" unicode="&#x2116;" horiz-adv-x="980" 
d="M-10 0l1 35l94 38l100 567l-80 20l12 40l86 -3l93 3l155 -429l10 -102l94 531h134l-1 -35l-89 -39l-111 -626h-68l-176 497l-10 103l-105 -600h-139zM749 125q-69 0 -108 35t-39 98q0 158 158 208l63 20q69 0 108 -35t39 -98q0 -156 -158 -208zM779 179q44 16 64 59
t20 94q0 49 -18.5 75t-52.5 26q-83 -32 -83 -153q0 -101 70 -101zM557 0l11 67h356l-11 -67h-356z" />
    <glyph glyph-name="trademark" unicode="&#x2122;" horiz-adv-x="1044" 
d="M193 314l-3 32l64 7v311l-70 -2l-31 -84h-33v123l189 -1l180 1v-123h-32l-31 84l-70 2v-311l63 -7l-3 -32l-111 2zM518 314l-3 32l44 7v310l-45 7l3 31l55 -2l108 2l107 -260v-54l120 314l84 -2l70 2l3 -31l-43 -7v-310l42 -7l-2 -32l-89 1l-89 -1l-3 32l44 7v245l9 68
l-134 -352h-62l-114 279l-16 70v-310l43 -7l-2 -32l-66 1z" />
    <glyph glyph-name="uni2126" unicode="&#x2126;" horiz-adv-x="720" 
d="M30 0v165h39l24 -63l166 -31v51q-92 20 -155.5 92t-63.5 191t78 194t252 116q136 0 223 -81t87 -199q0 -39 -6 -71.5t-13 -56t-26 -47.5t-31 -37t-43 -33.5t-46.5 -30t-56.5 -32.5v-56l169 31l24 63h39v-165h-295v165q56 0 105 60t49 179q0 112 -60.5 182.5t-149.5 70.5
q-69 0 -118.5 -64.5t-49.5 -156.5q0 -114 48.5 -192.5t105.5 -78.5v-165h-295z" />
    <glyph glyph-name="estimated" unicode="&#x212e;" horiz-adv-x="844" 
d="M368 -15q-149 0 -233.5 81t-84.5 211q0 99 28.5 173t86.5 125t133.5 83.5t181.5 56.5q158 0 243.5 -95t66.5 -240l-9 -48h-593l-15 -87q10 -93 67 -146.5t147 -53.5q79 0 141.5 48.5t93.5 126.5h116q-20 -46 -47.5 -80.5t-56 -56.5t-75.5 -41t-85.5 -30t-105.5 -27z
M198 385h453l13 73q-9 91 -65.5 144t-145.5 53q-79 0 -139.5 -42t-95.5 -113z" />
    <glyph glyph-name="arrowleft" unicode="&#x2190;" horiz-adv-x="610" 
d="M320 25l-270 270l270 270v-98l-121 -117l-40 -20h401v-70h-401l40 -19l121 -118v-98z" />
    <glyph glyph-name="arrowup" unicode="&#x2191;" horiz-adv-x="640" 
d="M285 40v401l-20 -40l-117 -121h-98l270 270l270 -270h-98l-117 121l-20 40v-401h-70z" />
    <glyph glyph-name="arrowright" unicode="&#x2192;" horiz-adv-x="610" 
d="M290 25v98l121 118l40 19h-401v70h401l-40 20l-121 117v98l270 -270z" />
    <glyph glyph-name="arrowdown" unicode="&#x2193;" horiz-adv-x="640" 
d="M320 40l-270 270h98l117 -121l20 -40v401h70v-401l20 40l117 121h98z" />
    <glyph glyph-name="uni2196" unicode="&#x2196;" horiz-adv-x="486" 
d="M50 93v382h382l-70 -69l-168 3l-43 14l285 -283l-51 -51l-283 285l14 -42l3 -169z" />
    <glyph glyph-name="uni2197" unicode="&#x2197;" horiz-adv-x="486" 
d="M100 89l-50 51l284 283l-42 -14l-169 -3l-69 69h382v-382l-69 70l2 169l15 42z" />
    <glyph glyph-name="uni2198" unicode="&#x2198;" horiz-adv-x="486" 
d="M54 89l69 69l169 -3l42 -14l-284 284l50 50l284 -284l-15 42l-2 169l69 69v-382h-382z" />
    <glyph glyph-name="uni2199" unicode="&#x2199;" horiz-adv-x="486" 
d="M50 89v382l69 -69l-3 -169l-14 -42l283 284l51 -50l-285 -284l43 14l168 3l70 -69h-382z" />
    <glyph glyph-name="partialdiff" unicode="&#x2202;" 
d="M246 716q314 -96 314 -362q0 -313 -294 -369q-87 6 -141.5 62.5t-54.5 151.5q0 116 70.5 193.5t183.5 82.5l119 -62q-10 96 -62.5 158t-151.5 98zM280 33q64 0 115 93.5t51 234.5v2l-18 12q-53 34 -92 34q-66 0 -105 -62.5t-39 -163.5q0 -69 24.5 -109.5t63.5 -40.5z" />
    <glyph glyph-name="emptyset" unicode="&#x2205;" horiz-adv-x="612" 
d="M559 549l-54 -54q45 -59 45 -139q0 -94 -61 -156.5t-158 -62.5q-80 0 -139 45l-54 -54l-36 36l55 55q-45 57 -45 137q0 94 61 156.5t158 62.5q81 0 137 -45l55 55zM172 356q0 -52 27 -95l228 228q-42 31 -96 31q-71 0 -115 -48t-44 -116zM489 356q0 53 -28 95l-227 -227
q42 -31 97 -31q70 0 114 47.5t44 115.5z" />
    <glyph glyph-name="uni2206" unicode="&#x2206;" horiz-adv-x="676" 
d="M20 0v55l303 640l45 20l288 -659v-56h-636zM93 55h421l-188 443l-7 55z" />
    <glyph glyph-name="product" unicode="&#x220f;" horiz-adv-x="803" 
d="M55 -160l-5 40l85 13v754l-85 13l5 40l133 -3h423l137 3l5 -40l-80 -13v-754l80 -13l-5 -40l-137 3l-138 -3l-5 40l79 13v749h-286v-749l74 -13l-5 -40l-132 3z" />
    <glyph glyph-name="summation" unicode="&#x2211;" 
d="M65 -160l-22 40l292 363l-282 417l22 40h475v-180h-40l-46 125l-251 5l233 -335v-30l-290 -354l327 15l49 87h44l-35 -193h-476z" />
    <glyph glyph-name="minus" unicode="&#x2212;" 
d="M47 241v71h525v-71h-525z" />
    <glyph glyph-name="radical" unicode="&#x221a;" 
d="M144 -16l-166 441l-64 10l6 35h167l110 -314l8 -71l260 801h241l-20 -61h-164l-280 -810z" />
    <glyph glyph-name="infinity" unicode="&#x221e;" horiz-adv-x="825" 
d="M609 470q73 0 114.5 -46.5t41.5 -117.5q0 -63 -37 -105.5t-125 -71.5q-40 0 -79.5 18t-63.5 38.5t-60 56.5q-49 -54 -91.5 -83.5t-94.5 -29.5q-70 0 -112 45.5t-42 115.5q0 126 162 180q55 0 102 -30t105 -86q34 37 56.5 58t56.5 39.5t67 18.5zM620 232q34 0 61 19.5
t27 56.5q0 74 -100 74q-67 0 -138 -67q43 -40 78 -61.5t72 -21.5zM117 291q0 -36 27.5 -58.5t75.5 -22.5q67 0 141 72q-84 84 -154 84q-36 0 -63 -18.5t-27 -56.5z" />
    <glyph glyph-name="integral" unicode="&#x222b;" 
d="M29 -228l16 87h104q40 35 50 94l96 552q17 97 74 131l122 75h99l-15 -79h-123q-38 -31 -46 -84l-99 -564q-16 -86 -89 -135l-118 -77h-71z" />
    <glyph glyph-name="approxequal" unicode="&#x2248;" 
d="M23 274l41 91l100 32l348 -56l45 54h40l-43 -96l-94 -28l-351 56l-45 -53h-41zM22 92l41 91l100 32l348 -56l45 54h40l-43 -96l-94 -28l-351 56l-45 -53h-41z" />
    <glyph glyph-name="notequal" unicode="&#x2260;" 
d="M79 0l95 112h-122v71h181l105 124h-286v71h345l86 102h77l-86 -102h93v-71h-153l-104 -124h257v-71h-316l-93 -112h-79z" />
    <glyph glyph-name="lessequal" unicode="&#x2264;" 
d="M570 97l-520 231v60l520 232v-83l-423 -178l423 -178v-84zM52 0v70h516v-70h-516z" />
    <glyph glyph-name="greaterequal" unicode="&#x2265;" 
d="M49 97v84l423 178l-423 178v83l520 -232v-60zM51 0v70h516v-70h-516z" />
    <glyph glyph-name="uni2460" unicode="&#x2460;" horiz-adv-x="807" 
d="M404 -15q-154 2 -260.5 102t-106.5 269q0 153 97.5 243.5t267.5 115.5q154 -2 260.5 -102t106.5 -269q0 -153 -97.5 -243.5t-267.5 -115.5zM402 30q125 0 213 85.5t88 228.5q0 80 -29.5 145t-75 103t-96 58t-98.5 20q-125 0 -213 -85.5t-88 -228.5q0 -80 29.5 -145
t75 -103t96 -58t98.5 -20zM285 166l-3 31l83 9v273l7 17l-29 -19l-54 -7l-13 27l135 58h49v-349l84 -9l-3 -31l-127 2z" />
    <glyph glyph-name="uni2461" unicode="&#x2461;" horiz-adv-x="807" 
d="M404 -15q-154 2 -260.5 102t-106.5 269q0 153 97.5 243.5t267.5 115.5q154 -2 260.5 -102t106.5 -269q0 -153 -97.5 -243.5t-267.5 -115.5zM402 30q125 0 213 85.5t88 228.5q0 80 -29.5 145t-75 103t-96 58t-98.5 20q-125 0 -213 -85.5t-88 -228.5q0 -80 29.5 -145
t75 -103t96 -58t98.5 -20zM259 168l-13 27l110 111q89 89 89 154q0 29 -13 46t-35 17q-18 0 -37 -7l-18 -72h-72v76l139 41q60 0 96.5 -28t36.5 -74q0 -49 -31.5 -87.5t-99.5 -85.5l-102 -71l68 24h176v-27l-21 -44h-273z" />
    <glyph glyph-name="uni2462" unicode="&#x2462;" horiz-adv-x="807" 
d="M404 -15q-154 2 -260.5 102t-106.5 269q0 153 97.5 243.5t267.5 115.5q154 -2 260.5 -102t106.5 -269q0 -153 -97.5 -243.5t-267.5 -115.5zM402 30q125 0 213 85.5t88 228.5q0 80 -29.5 145t-75 103t-96 58t-98.5 20q-125 0 -213 -85.5t-88 -228.5q0 -80 29.5 -145
t75 -103t96 -58t98.5 -20zM290 156v76h147q23 22 23 52q0 29 -21.5 46t-65.5 17l-6 24l21 8q57 23 57 76q0 25 -11 39.5t-29 14.5q-17 0 -29 -6l-17 -70h-72v76l138 40q111 0 111 -74q0 -32 -22.5 -52.5t-69.5 -35.5q56 -4 85 -28t29 -58q0 -19 -7.5 -34t-25.5 -28
t-30.5 -20t-40.5 -19.5t-38 -17.5l-55 -26h-71z" />
    <glyph glyph-name="uni2463" unicode="&#x2463;" horiz-adv-x="807" 
d="M404 -15q-154 2 -260.5 102t-106.5 269q0 153 97.5 243.5t267.5 115.5q154 -2 260.5 -102t106.5 -269q0 -153 -97.5 -243.5t-267.5 -115.5zM402 30q125 0 213 85.5t88 228.5q0 80 -29.5 145t-75 103t-96 58t-98.5 20q-125 0 -213 -85.5t-88 -228.5q0 -80 29.5 -145
t75 -103t96 -58t98.5 -20zM384 164v92h-148l-26 42l196 251h74v-36l-210 -207l31 12h83v54l64 53h18v-107h72v-62h-72v-92h-82z" />
    <glyph glyph-name="uni2464" unicode="&#x2464;" horiz-adv-x="807" 
d="M404 -15q-154 2 -260.5 102t-106.5 269q0 153 97.5 243.5t267.5 115.5q154 -2 260.5 -102t106.5 -269q0 -153 -97.5 -243.5t-267.5 -115.5zM402 30q125 0 213 85.5t88 228.5q0 80 -29.5 145t-75 103t-96 58t-98.5 20q-125 0 -213 -85.5t-88 -228.5q0 -80 29.5 -145
t75 -103t96 -58t98.5 -20zM282 157v76h134q28 27 28 63q0 28 -16.5 45t-49.5 17q-24 0 -59 -14l-20 -9l-17 14l25 193h231v-27l-20 -43h-185l-14 -100l93 43q60 0 95 -25t35 -71q0 -19 -7.5 -35.5t-16.5 -27.5t-29.5 -24.5t-33 -20.5t-41.5 -21l-62 -33h-70z" />
    <glyph glyph-name="uni2465" unicode="&#x2465;" horiz-adv-x="807" 
d="M402 715q154 -2 260.5 -102t106.5 -269q0 -153 -97.5 -243.5t-267.5 -115.5q-154 2 -260.5 102t-106.5 269q0 153 97.5 243.5t267.5 115.5zM402 30q125 0 213 85.5t88 228.5q0 80 -29.5 145t-75 103t-96 58t-98.5 20q-125 0 -213 -85.5t-88 -228.5q0 -80 29.5 -145
t75 -103t96 -58t98.5 -20zM426 413q58 0 89 -34.5t31 -80.5q0 -34 -12 -58.5t-37.5 -40t-50.5 -24.5t-64 -18q-63 0 -99.5 41.5t-36.5 112.5q0 172 245 251l9 -31q-81 -29 -114 -66.5t-38 -110.5zM401 192q48 0 48 82q0 34 -11 54.5t-28 20.5q-14 0 -45 -20l-18 -12
q0 -125 54 -125z" />
    <glyph glyph-name="uni2466" unicode="&#x2466;" horiz-adv-x="807" 
d="M404 -15q-154 2 -260.5 102t-106.5 269q0 153 97.5 243.5t267.5 115.5q154 -2 260.5 -102t106.5 -269q0 -153 -97.5 -243.5t-267.5 -115.5zM402 30q125 0 213 85.5t88 228.5q0 80 -29.5 145t-75 103t-96 58t-98.5 20q-125 0 -213 -85.5t-88 -228.5q0 -80 29.5 -145
t75 -103t96 -58t98.5 -20zM313 150v39l187 282l-18 -12h-201v76h269l20 -22l-181 -363h-76z" />
    <glyph glyph-name="uni2467" unicode="&#x2467;" horiz-adv-x="807" 
d="M402 715q154 -2 260.5 -102t106.5 -269q0 -153 -97.5 -243.5t-267.5 -115.5q-154 2 -260.5 102t-106.5 269q0 153 97.5 243.5t267.5 115.5zM402 30q125 0 213 85.5t88 228.5q0 80 -29.5 145t-75 103t-96 58t-98.5 20q-125 0 -213 -85.5t-88 -228.5q0 -80 29.5 -145
t75 -103t96 -58t98.5 -20zM454 376q98 -51 98 -110q0 -44 -37 -69.5t-118 -47.5q-61 0 -101 28.5t-40 72.5q0 30 19.5 52t68.5 40q-80 46 -80 104q0 72 141 104q60 0 97.5 -25t37.5 -62q0 -59 -86 -87zM401 515q-41 0 -41 -45q0 -44 58 -75q29 22 29 64q0 23 -12.5 39.5
t-33.5 16.5zM403 184q21 0 35.5 15t14.5 42q0 15 -6.5 27.5t-19.5 23t-23 16.5t-26 14l-3 2q-26 -28 -26 -72q0 -30 15.5 -49t38.5 -19z" />
    <glyph glyph-name="uni2468" unicode="&#x2468;" horiz-adv-x="807" 
d="M402 715q154 -2 260.5 -102t106.5 -269q0 -153 -97.5 -243.5t-267.5 -115.5q-154 2 -260.5 102t-106.5 269q0 153 97.5 243.5t267.5 115.5zM402 30q125 0 213 85.5t88 228.5q0 80 -29.5 145t-75 103t-96 58t-98.5 20q-125 0 -213 -85.5t-88 -228.5q0 -80 29.5 -145
t75 -103t96 -58t98.5 -20zM423 546q64 0 100.5 -42t36.5 -113q0 -171 -245 -250l-9 31q81 29 114 66.5t38 109.5l-79 -58q-58 0 -88.5 34.5t-30.5 80.5q0 34 12 58.5t37 40t50 24.5t64 18zM396 354q15 0 44 20l19 13q-2 124 -54 124q-49 0 -49 -82q0 -34 11.5 -54.5
t28.5 -20.5z" />
    <glyph glyph-name="lozenge" unicode="&#x25ca;" 
d="M286 -16l-239 346l242 365l45 20l239 -346l-242 -365zM327 92l147 227l-173 259l-7 35l-147 -227l173 -259z" />
    <glyph glyph-name="uniF8FF" unicode="&#xf8ff;" horiz-adv-x="685" 
d="M492 -29l-30 1l-24 18h-14l-8 8l7 76l-4 47l-61 1l-3 -52l-2 -56v-20l-15 -6l-8 6l-30 -10h-32l-1 11l11 11l50 21l-6 96l-98 -6l-147 140l-4 115l-13 10l-10 36v26l15 8l-3 78l92 -62l9 47l10 36l22 35l28 35l39 29l78 29h22l-68 22l4 17h7l79 -20l-4 51l16 12h32l19 -5
l29 -25l32 -8l32 -10l15 -13v-20l-20 -31l30 -28l28 -32l18 -34l15 -41l9 -54l-3 -41l-8 -35l-12 -31l-3 -156l-21 -7l-50 70l-27 -7l-19 -140l-32 4l-7 -4l-4 -94l30 -19l16 -14zM238 540h5l36 24h32l18 -12l8 3l4 14l7 5l10 -4v-18h8l10 22l11 8l-5 6l-3 8l1 21l-30 -10
l-10 -8l-8 5l4 21l14 10l11 11l38 -2l12 13l-4 8h-49l-45 -13l-53 -26l-29 -23l-25 -34l29 12l13 -15l-17 -20l-10 -3zM418 608l3 17l-7 17l-8 -9v-19zM466 564h13l6 6l-9 18l17 28l-15 9v5l-25 7v-20l-13 -5v-9l-9 -6l-3 -12l5 -6l19 11l8 -2zM545 406l18 12h23l6 11l-18 6
l-5 9l9 42h7l14 -20l17 -1l-8 37l-19 50l-20 36l-23 28l-34 21h-11l17 -19l25 -10l11 -11l3 -33l-25 13l-15 -29l12 -8v-19l15 3l-12 26l15 -5l10 -20l-5 -12l-8 -7h-23l-3 11l-12 2l1 -22h-14l14 -18l-7 -10l-21 5l-3 -27l41 6l8 17l22 -2l6 -28l-16 -13v-15zM491 514l2 7
l-2 9l-8 -4v-9zM214 498l59 12l-4 12zM396 491l3 4l-48 25l-4 -12zM102 254v180l57 -32l7 10l-68 38v18l59 -34l43 -28l28 -14l3 10l-103 64l-13 7l-41 33l2 -78l19 -17v-5h-21l19 -14l1 -11l-20 7l18 -18l-4 -7l3 -97zM257 432l11 5l16 12l6 12l2 13l-22 -4l6 -10l-12 -13
l-14 -1l-6 8l1 4l14 2l-13 6l2 7l-20 -1l3 -19l14 -15zM359 430l18 10l6 9l5 20l-30 2l7 -5l1 -11l-7 -11h-12l-5 7l11 8l-15 2v6l-23 4l3 -17l8 -14l20 -9zM231 130l18 4l2 40l41 -3l3 9l-44 6v16l48 -6l1 9l-47 7l1 22l43 -3l3 6l-45 9l3 94h74l11 10h-79l2 9h74l8 7h-82
l2 22l117 4l140 -4v11l-4 7h-205l-66 -3l-7 -9l-6 -44l-48 20l-11 -4l57 -27l1 -45l-5 -73v-91zM559 386h5l5 7v7l-10 -4v-10zM380 336h53l4 30l-54 5zM203 231l-1 60l4 40l-66 39v-7l-2 -13l1 -27v-48zM540 300l8 2l20 15l13 13l11 18l-7 5h-14l-10 3l-14 7l-17 -3l-6 -48z
M467 346l44 4l4 9h-48v-13zM479 142l12 79l4 36l-15 3l-1 8l20 1l5 3l-28 16l2 5l30 -6l-30 15l5 5l21 -5l4 10l3 19l-54 1l-1 -24v-6l-2 -31l19 -3l-8 -61l-48 3l-8 -6l51 -5l-2 -9h-49l-4 -5l53 -7l-6 -35zM321 302h73v10h-73v-10zM589 234v78l-6 -3l-33 -27zM394 271v10
l-72 7l-6 -13zM316 250h68v6l-68 4v-10zM202 189l4 14l-74 50l20 -23zM380 161v53l-64 4v-51z" />
    <glyph glyph-name="Jacute" horiz-adv-x="334" 
d="M242 768l63 134h131l-139 -134h-55zM-81 -175l19 92h105q22 32 33.5 68t19.5 98l90 565l-88 13l11 40l144 -3l139 3l-2 -40l-83 -13l-88 -553q-10 -64 -33 -103.5t-68 -74.5l-117 -92h-82z" />
    <glyph glyph-name="jacute" horiz-adv-x="282" 
d="M173 553l76 157h117l-144 -157h-49zM-117 -235l17 95h116q29 36 39 94l82 462l-88 -31l-13 29l170 75l41 -40l-83 -467q-15 -89 -89 -137l-121 -80h-71z" />
    <glyph glyph-name="zero.zero" horiz-adv-x="574" 
d="M258 -15q-96 0 -154.5 58.5t-58.5 148.5q0 202 218 274l69 23q96 0 154 -58.5t58 -148.5q0 -202 -217 -274zM175 152l211 225q-35 45 -83 57q-64 -23 -100.5 -83.5t-36.5 -143.5q0 -29 9 -55zM287 40q64 23 100 83.5t36 143.5q0 39 -17 73l-214 -230q32 -57 95 -70z" />
    <glyph glyph-name="zero.tf" 
d="M273 -15q-96 0 -154.5 58.5t-58.5 148.5q0 202 218 274l69 23q95 0 153.5 -58.5t58.5 -148.5q0 -202 -217 -274zM302 40q64 23 100 83.5t36 143.5q0 64 -36 110.5t-84 56.5q-64 -23 -100.5 -83.5t-36.5 -143.5q0 -64 34.5 -109.5t86.5 -57.5z" />
    <glyph glyph-name="one.tf" 
d="M60 -1l2 40l161 16l55 310l10 21l-42 -16l-123 -29l-10 37l244 105h55l-75 -428l157 -16l-12 -40l-209 3z" />
    <glyph glyph-name="two.tf" 
d="M48 0l-23 46l146 100q47 32 67 46t53 40.5t46.5 43.5t25 40.5t11.5 46.5q0 71 -69 71l-67 -19l-39 -91h-93l12 100l223 65q77 0 118 -30.5t41 -81.5q0 -32 -19 -65t-45 -57.5t-67 -51t-70 -42t-69 -35.5l-115 -57l188 32h216v-36l-35 -65h-436z" />
    <glyph glyph-name="three.tf" 
d="M28 -235l17 97h220q89 57 89 140q0 116 -158 116l-7 31l48 20q146 60 146 173q0 39 -20.5 64t-55.5 28l-58 -19l-41 -100h-90l12 109l213 65q81 0 120 -37t39 -98q0 -118 -178 -180q76 -5 116 -46.5t40 -102.5q0 -46 -18.5 -81.5t-63.5 -64t-69.5 -40t-86.5 -35.5
q-11 -5 -17 -7l-82 -32h-115z" />
    <glyph glyph-name="four.tf" 
d="M545 76l-14 -79h-138l-40 -227h-105l40 227h-261l-29 50l387 427h113l-8 -44l-414 -373l57 19h169l15 83l93 68h24l-27 -151h138z" />
    <glyph glyph-name="five.tf" 
d="M22 -235l17 97h221q44 32 68.5 75.5t24.5 87.5q0 56 -29.5 90.5t-87.5 34.5q-44 0 -100 -30l-35 -19l-21 25l103 348h355l-6 -36l-38 -64h-287l-64 -205l132 67q103 0 152 -50t49 -117q0 -54 -21 -98t-59 -76.5t-77 -54t-90 -41.5l-84 -34h-123z" />
    <glyph glyph-name="six.tf" 
d="M384 460q67 0 115 -55.5t48 -130.5q0 -92 -53 -162.5t-148 -103.5l-69 -24q-91 0 -145 61t-54 170q0 176 138 319.5t344 181.5l14 -40q-127 -28 -218.5 -112t-128.5 -204zM309 36q56 21 85 77.5t29 122.5q0 67 -21.5 101t-51.5 34q-38 0 -100 -42l-38 -25q-9 -48 -9 -100
q0 -70 27.5 -115.5t78.5 -52.5z" />
    <glyph glyph-name="seven.tf" 
d="M86 -230l3 43l394 574l-34 -19h-337l18 106h433l21 -26l-404 -678h-94z" />
    <glyph glyph-name="eight.tf" 
d="M394 387q28 -20 40 -28.5t35 -28.5t32.5 -35t18.5 -38t9 -48q0 -141 -217 -211l-51 -16q-81 0 -139 44.5t-58 114.5q0 145 196 217q-51 36 -79 70.5t-28 84.5q0 63 46 110t124 73l65 20q82 0 133.5 -34.5t51.5 -92.5q0 -74 -48 -119.5t-131 -82.5zM353 666
q-78 -33 -78 -121q0 -69 84 -133q93 64 93 153q0 91 -99 101zM297 33q106 46 106 145q0 50 -28 84.5t-81 71.5q-109 -74 -109 -169q0 -58 33.5 -93t78.5 -39z" />
    <glyph glyph-name="nine.tf" 
d="M343 489q91 0 144.5 -62t53.5 -169q0 -175 -137 -319t-345 -182l-14 40q133 32 222.5 115t125.5 202l-158 -101q-67 0 -115 55.5t-48 130.5q0 96 54.5 165t146.5 101zM367 141l39 28q8 50 8 95q0 74 -27 120t-77 53q-54 -20 -84 -76.5t-30 -125.5q0 -61 20 -97.5
t54 -36.5q38 0 97 40z" />
    <glyph glyph-name="zero.tf.zero" 
d="M273 -15q-95 0 -154 58.5t-59 148.5q0 202 218 274l69 23q96 0 154.5 -58.5t58.5 -148.5q0 -202 -218 -274zM190 152l212 225q-35 46 -84 57q-64 -23 -100 -83.5t-36 -143.5q0 -32 8 -55zM302 40q64 23 100 83.5t36 143.5q0 38 -16 73l-215 -230q34 -58 95 -70z" />
    <glyph glyph-name="dollar.tf" 
d="M484 612q-40 33 -87 47l-42 -235l65 -52q30 -24 48 -43t33 -53t15 -75q0 -60 -39.5 -108t-108.5 -74l-89 -33l-12 -66h-42l11 63q-115 7 -187 60l25 148h66v-84q39 -42 107 -63l45 261l-72 57q-42 35 -64 69.5t-22 80.5q0 111 155 172l75 28l12 69h42l-11 -64
q103 -5 165 -52l-26 -145h-56zM319 454l37 213h-10q-96 -31 -96 -103q0 -34 17 -58t52 -52zM399 156q0 40 -17.5 65.5t-52.5 53.5l-42 -239h12q50 15 75 46t25 74z" />
    <glyph glyph-name="cent.tf" 
d="M332 68q66 29 115 61l20 -26q-60 -47 -130 -88l-37 -22l-11 -73h-62l10 73q-55 16 -88.5 64t-33.5 120q0 94 52.5 166.5t151.5 115.5l8 4l15 87h63l-10 -62q55 -7 108 -37l-57 -93q-52 37 -119 63q-97 -59 -97 -203q0 -120 102 -150z" />
    <glyph glyph-name="sterling.tf" 
d="M433 55l54 100h60l-53 -155l-331 3l-138 -3l2 35l101 45l41 235h-87l4 21l39 37h54l27 154q22 125 185 173l61 18q70 -20 119 -57l-63 -78q-20 21 -56.5 45t-60.5 29q-55 -31 -71 -126l-28 -158h170l-10 -58h-170l-31 -180q-8 -42 -52 -83z" />
    <glyph glyph-name="florin.tf" 
d="M30 -232l19 98h112q30 31 40 82l80 458h-97l5 20l41 36h61l7 48q16 94 74 128l123 76h97l-18 -88h-127q-14 -13 -25 -35.5t-13 -41.5l-16 -90h113l-12 -53h-111l-74 -431q-15 -80 -89 -130l-118 -77h-72z" />
    <glyph glyph-name="yen.tf" 
d="M632 698l81 3l-1 -40l-52 -12l-242 -365l-2 -12h156l-9 -47h-154l-8 -50h154l-9 -48h-152l-12 -75l111 -13l-11 -40l-171 3l-169 -3l1 40l118 13l12 75h-142l8 48h141l8 50h-140l8 47h139l2 12l-153 365l-56 12l11 40l122 -3l138 3v-40l-82 -13l110 -271v-47l203 318
l-80 13l11 40z" />
    <glyph glyph-name="Euro.tf" 
d="M440 658q-70 -19 -122.5 -75t-79.5 -135h308l-43 -61h-281q-7 -42 -7 -74h244l-43 -61h-197q11 -84 55.5 -136.5t115.5 -52.5q64 0 170 57l22 -35q-31 -22 -91.5 -52.5t-126.5 -49.5q-123 0 -194.5 75t-80.5 194h-75l10 61h64q2 40 10 74h-60l10 61h69q38 91 116.5 154
t186.5 94l73 22q75 -14 161 -74l-56 -76q-26 25 -75 54t-83 36z" />
    <glyph glyph-name="percent.tf" 
d="M26 -5l538 710h67l-538 -710h-67zM175 349q-43 0 -71 33t-28 97q0 74 39.5 133.5t113.5 81.5l20 6q43 0 71 -32.5t28 -97.5q0 -73 -39.5 -131.5t-111.5 -81.5zM195 392q36 0 54.5 64t18.5 127q0 75 -37 75t-56 -63.5t-19 -127.5q0 -75 39 -75zM417 0q-42 0 -69.5 33
t-27.5 96q0 73 39 133t113 83l20 6q44 0 71.5 -33t27.5 -97q0 -74 -39.5 -133t-111.5 -81zM438 42q36 0 55 64t19 127q0 75 -37 75q-38 0 -57 -63t-19 -127q0 -76 39 -76z" />
    <glyph glyph-name="perthousand.tf" 
d="M182 416q-44 0 -74 28t-30 83q0 61 35 106.5t104 62.5l19 4q45 0 75 -28t30 -83q0 -60 -34.5 -105.5t-102.5 -62.5zM224 666q-20 0 -35 -15t-22 -39t-10.5 -46t-3.5 -43q0 -72 43 -72q19 0 33.5 15t22 38.5t11 46t3.5 43.5q0 72 -42 72zM539 532l-16 -66l-469 -238l16 65
zM484 285q45 0 74.5 -28.5t29.5 -83.5q0 -60 -34 -105.5t-102 -61.5l-22 -6q-61 0 -89 48q-34 -31 -83 -42l-22 -6q-44 0 -74 28.5t-30 82.5q0 59 34.5 104t103.5 65l20 5q64 0 90 -51q32 29 85 46zM250 34q25 0 42 27t22.5 57.5t5.5 59.5q0 73 -42 73q-26 0 -43.5 -27.5
t-23 -57.5t-5.5 -59q0 -73 44 -73zM514 178q1 73 -42 73q-37 0 -55 -48.5t-17 -95.5q0 -73 45 -73q25 0 41.5 27t22 57.5t5.5 59.5z" />
    <glyph glyph-name="Aogonek.ss01" horiz-adv-x="678" 
d="M582 50l70 -11l-10 -40l-96 3l-70 -2l-52 -68l-3 -13q-7 -32 15 -49t76 -17l-6 -37q-102 0 -143.5 25.5t-28.5 75.5l4 19l116 84l-18 211h-222l-97 -179l81 -13l-11 -40l-105 3l-103 -3v40l72 11l369 644l95 24zM242 282h189l-21 244l3 70z" />
    <glyph glyph-name="Ccedilla.ss01" horiz-adv-x="630" 
d="M375 660q-95 -44 -144.5 -134t-49.5 -214q0 -125 56.5 -194.5t141.5 -76.5q67 27 111 67l60 117h60l-42 -176l-230 -66l-13 -16q74 -7 74 -49q0 -48 -86 -77l-51 -18h-59l29 43h76q25 12 25 36q0 34 -74 34l39 48q-116 11 -182.5 91.5t-66.5 211.5q0 130 67.5 239.5
t213.5 160.5l94 33q125 0 211 -74l-11 -155h-58l-16 97q-51 53 -175 72z" />
    <glyph glyph-name="Eogonek.ss01" horiz-adv-x="600" 
d="M527 646l-234 3l-40 -258l128 4l62 106h36l-36 -134l-8 -134h-37l-25 106l-128 4l-47 -292l259 3l78 135h45l-46 -190l-74 1l-52 -68l-3 -13q-7 -32 15 -49t76 -17l-6 -37q-102 0 -143.5 25.5t-28.5 75.5l4 19l88 64l-284 2l-136 -3l1 40l86 13l95 597l-83 13l11 39
l137 -3l378 3v-178h-42z" />
    <glyph glyph-name="Gcommaaccent.ss01" horiz-adv-x="671" 
d="M319 -18q-132 0 -208.5 79t-76.5 219q0 61 17 120t52 115.5t96.5 102.5t141.5 73l83 27q65 0 119.5 -22t85.5 -51l-9 -149h-58l-17 93q-25 28 -71.5 49t-96.5 22q-210 -98 -210 -351q0 -126 54 -193.5t139 -74.5q52 16 91 43l30 191l-82 13l11 39l136 -1l120 3v-41
l-64 -13l-34 -220zM243 -174l-33 12l48 65l-39 26l6 35h111l-12 -68z" />
    <glyph glyph-name="Iogonek.ss01" horiz-adv-x="328" 
d="M243 698l136 3l-1 -40l-83 -13l-96 -596l79 -13l-11 -40l-110 2l-53 -69l-3 -13q-7 -32 15 -49t76 -17l-6 -37q-102 0 -143.5 25.5t-28.5 75.5l4 19l90 66l-117 -3l2 40l85 13l95 596l-82 13l11 40z" />
    <glyph glyph-name="Kcommaaccent.ss01" horiz-adv-x="701" 
d="M-10 -1l2 40l86 13l94 596l-82 13l11 40l141 -3l126 3l-1 -40l-73 -13l-42 -263l28 16l271 247l-65 13l8 40l116 -3l106 3v-40l-86 -13l-292 -259l30 -17l244 -319l50 -14l-11 -40l-77 3l-84 -3l-228 332l-13 33l-50 -312l69 -13l-11 -40l-128 3zM314 -174l-33 12l48 65
l-39 26l6 35h111l-12 -68z" />
    <glyph glyph-name="Lcommaaccent.ss01" horiz-adv-x="565" 
d="M-10 -1l1 40l86 13l95 596l-83 13l12 40l132 -3l148 3l-1 -40l-87 -13l-95 -597l223 3l93 139h45l-61 -194l-372 3zM220 -174l-33 12l48 65l-39 26l6 35h111l-12 -68z" />
    <glyph glyph-name="Ncommaaccent.ss01" horiz-adv-x="704" 
d="M-10 -1l1 40l85 13l94 591l-79 18l11 40l91 -3l88 3l239 -463l15 -89l72 499l-78 13l11 40l104 -3l116 3l-1 -40l-87 -13l-102 -648h-73l-259 516l-11 92l-85 -556l83 -13l-11 -40l-111 3zM297 -174l-33 12l48 65l-39 26l6 35h111l-12 -68z" />
    <glyph glyph-name="Eng.ss01" horiz-adv-x="704" 
d="M347 -170l15 86h82l44 51l50 33h-38l-262 516l-11 92l-85 -556l83 -13l-11 -40l-111 3l-113 -3l1 40l85 13l94 591l-79 18l11 40l91 -3l85 3l242 -463l15 -89l72 499l-78 13l11 40l104 -3l116 3l-1 -40l-87 -13l-102 -648l-99 -170h-124z" />
    <glyph glyph-name="Rcommaaccent.ss01" horiz-adv-x="657" 
d="M570 52l52 -14l-8 -39l-92 3l-69 -3l-136 308l-12 11h-64l-43 -266l90 -13l-11 -40l-150 3l-137 -3l1 40l86 13l96 599l-84 10l12 40l137 -3l177 3q90 1 144.5 -40t54.5 -109q0 -71 -45 -117t-137 -82l-55 -20l76 -42zM295 655l-45 -273h132q102 50 102 157
q0 53 -28 83.5t-84 32.5h-77zM258 -71l6 35h111l-12 -68l-81 -70l-33 12l48 65z" />
    <glyph glyph-name="Scedilla.ss01" horiz-adv-x="514" 
d="M312 667q-96 -31 -96 -103q0 -35 18.5 -60t57.5 -56l94 -76q30 -24 48 -43t33 -53t15 -75q0 -60 -39.5 -108t-108.5 -74l-98 -36l-12 -16q74 -7 74 -49q0 -48 -86 -77l-51 -18h-59l29 43h76q25 12 25 36q0 34 -74 34l39 47q-114 10 -182 60l25 148h66v-84
q26 -28 71 -49.5t88 -21.5q50 15 75 46t25 74q0 30 -12 54t-25.5 37.5t-40.5 34.5l-101 80q-42 35 -64 69.5t-22 80.5q0 111 155 172l91 34q122 0 192 -53l-26 -145h-56l-6 92q-63 54 -138 55z" />
    <glyph glyph-name="Scommaaccent.ss01" horiz-adv-x="514" 
d="M234 -18q-136 0 -219 61l25 148h66v-84q26 -28 71 -49.5t88 -21.5q50 15 75 46t25 74q0 30 -12 54t-25.5 37.5t-40.5 34.5l-101 80q-42 35 -64 69.5t-22 80.5q0 111 155 172l91 34q122 0 192 -53l-26 -145h-56l-6 92q-63 54 -138 55q-96 -31 -96 -103q0 -35 18.5 -60
t57.5 -56l94 -76q30 -24 48 -43t33 -53t15 -75q0 -60 -39.5 -108t-108.5 -74zM194 -174l-33 12l48 65l-39 26l6 35h111l-12 -68z" />
    <glyph glyph-name="uni0162.ss01" horiz-adv-x="601" 
d="M377 698l278 3l-27 -187h-45l-24 133l-131 3l-96 -598l87 -13l-11 -40l-126 3l-27 -35q74 -7 74 -49q0 -48 -86 -77l-51 -18h-59l29 43h76q25 12 25 36q0 34 -74 34l54 66l-126 -3l1 40l93 13l95 598l-129 -3l-66 -133h-45l28 187z" />
    <glyph glyph-name="uni021A.ss01" horiz-adv-x="601" 
d="M117 -1l1 40l93 13l95 598l-129 -3l-66 -133h-45l28 187l283 -3l278 3l-27 -187h-45l-24 133l-131 3l-96 -598l87 -13l-11 -40l-146 3zM225 -174l-33 12l48 65l-39 26l6 35h111l-12 -68z" />
    <glyph glyph-name="Uogonek.ss01" horiz-adv-x="677" 
d="M614 698l123 3l-1 -40l-88 -13l-65 -410q-13 -85 -51 -138.5t-122 -84.5l-64 -83l-3 -13q-7 -32 15 -49t76 -17l-6 -37q-102 0 -143.5 25.5t-28.5 75.5l4 19l80 58l-45 -12q-241 0 -200 260l65 406l-82 13l11 40l134 -3l145 3l-1 -40l-82 -13l-70 -421
q-13 -76 27.5 -129.5t124.5 -53.5q63 25 93.5 64t44.5 125l67 415l-88 13l11 40z" />
    <glyph glyph-name="Aacute.ss02" horiz-adv-x="678" 
d="M650 850l-136 -100h-66l84 100h118zM582 50l70 -11l-10 -40l-147 3l-124 -3l1 40l81 13l-16 179h-223l-97 -179l81 -13l-11 -40l-105 3l-103 -3v40l72 11l369 644l95 24zM242 282h190l-22 244l3 70z" />
    <glyph glyph-name="Abreve.ss02" horiz-adv-x="678" 
d="M495 740q-99 0 -134 102l30 13q41 -49 103 -49q61 0 124 49l24 -13q-1 -1 -8.5 -10t-10 -11.5t-10.5 -11t-13 -12.5t-14 -11.5t-18 -12.5t-20.5 -11t-24.5 -11.5t-28 -10.5zM582 50l70 -11l-10 -40l-147 3l-124 -3l1 40l81 13l-16 179h-223l-97 -179l81 -13l-11 -40
l-105 3l-103 -3v40l72 11l369 644l95 24zM242 282h190l-22 244l3 70z" />
    <glyph glyph-name="Acircumflex.ss02" horiz-adv-x="678" 
d="M486 803l-96 -53h-69l124 100h94l91 -100h-68zM582 50l70 -11l-10 -40l-147 3l-124 -3l1 40l81 13l-16 179h-223l-97 -179l81 -13l-11 -40l-105 3l-103 -3v40l72 11l369 644l95 24zM242 282h190l-22 244l3 70z" />
    <glyph glyph-name="Adieresis.ss02" horiz-adv-x="678" 
d="M633 755l-42 -5l-51 5l4 53l19 40l40 5l49 -5l-1 -48zM409 752h-70l-10 35l12 44l16 19h69l13 -29l-11 -49zM515 718l67 -668l70 -11l-10 -40l-147 3l-124 -3l1 40l81 13l-16 179h-223l-97 -179l81 -13l-11 -40l-105 3l-103 -3v40l72 11l369 644zM242 282h190l-22 244
l3 70z" />
    <glyph glyph-name="Agrave.ss02" horiz-adv-x="678" 
d="M509 750h-53l-66 100h100zM582 50l70 -11l-10 -40l-147 3l-124 -3l1 40l81 13l-16 179h-223l-97 -179l81 -13l-11 -40l-105 3l-103 -3v40l72 11l369 644l95 24zM242 282h190l-22 244l3 70z" />
    <glyph glyph-name="Amacron.ss02" horiz-adv-x="678" 
d="M633 828l-10 -59h-285l10 59h285zM582 50l70 -11l-10 -40l-147 3l-124 -3l1 40l81 13l-16 179h-223l-97 -179l81 -13l-11 -40l-105 3l-103 -3v40l72 11l369 644l95 24zM242 282h190l-22 244l3 70z" />
    <glyph glyph-name="Aring.ss02" horiz-adv-x="678" 
d="M476 723q-31 0 -55 16.5t-24 49.5q0 21 13 35t27 20t39 13q31 0 55 -16.5t24 -49.5q0 -30 -20 -44t-59 -24zM476 828q-17 0 -28.5 -10.5t-11.5 -26.5q0 -17 11.5 -27.5t28.5 -10.5t28.5 10.5t11.5 27.5q0 16 -11.5 26.5t-28.5 10.5zM582 50l70 -11l-10 -40l-147 3
l-124 -3l1 40l81 13l-16 179h-223l-97 -179l81 -13l-11 -40l-105 3l-103 -3v40l72 11l369 644l95 24zM242 282h190l-22 244l3 70z" />
    <glyph glyph-name="Atilde.ss02" horiz-adv-x="678" 
d="M394 801l-45 -56h-26l42 86l71 20l148 -56l46 56h26l-44 -91l-69 -15zM515 718l67 -668l70 -11l-10 -40l-147 3l-124 -3l1 40l81 13l-16 179h-223l-97 -179l81 -13l-11 -40l-105 3l-103 -3v40l72 11l369 644zM242 282h190l-22 244l3 70z" />
    <glyph glyph-name="AEacute.ss02" horiz-adv-x="890" 
d="M610 750l84 100h118l-136 -100h-66zM-25 -1l2 40l72 11l415 651l89 -3l352 3v-174h-39l-45 118l-214 3l-45 -284l108 4l63 116h31l-38 -145l-9 -148h-30l-26 117l-107 4l-40 -261l229 3l78 139h42l-46 -194l-375 2l-132 -2l1 40l86 13l41 261h-158l-161 -261l81 -13
l-12 -40l-109 3zM308 362h138l48 293z" />
    <glyph glyph-name="Cacute.ss02" horiz-adv-x="630" 
d="M422 750l84 100h118l-136 -100h-66zM333 -18q-131 0 -207.5 82t-76.5 223q0 130 67.5 239.5t213.5 160.5l94 33q125 0 211 -74l-11 -155h-58l-16 97q-51 53 -175 72q-95 -44 -144.5 -134t-49.5 -214q0 -125 56.5 -194.5t141.5 -76.5q67 27 111 67l60 117h60l-42 -176z
" />
    <glyph glyph-name="Ccaron.ss02" horiz-adv-x="630" 
d="M398 750l-89 100h69l73 -53l97 53h68l-124 -100h-94zM333 -18q-131 0 -207.5 82t-76.5 223q0 130 67.5 239.5t213.5 160.5l94 33q125 0 211 -74l-11 -155h-58l-16 97q-51 53 -175 72q-95 -44 -144.5 -134t-49.5 -214q0 -125 56.5 -194.5t141.5 -76.5q67 27 111 67l60 117
h60l-42 -176z" />
    <glyph glyph-name="Ccircumflex.ss02" horiz-adv-x="630" 
d="M295 750l124 100h94l91 -100h-68l-76 53l-96 -53h-69zM333 -18q-131 0 -207.5 82t-76.5 223q0 130 67.5 239.5t213.5 160.5l94 33q125 0 211 -74l-11 -155h-58l-16 97q-51 53 -175 72q-95 -44 -144.5 -134t-49.5 -214q0 -125 56.5 -194.5t141.5 -76.5q67 27 111 67
l60 117h60l-42 -176z" />
    <glyph glyph-name="Cdotaccent.ss02" horiz-adv-x="630" 
d="M456 749l-55 5l4 52l19 42l43 5l50 -5l-1 -50l-19 -44zM333 -18q-131 0 -207.5 82t-76.5 223q0 130 67.5 239.5t213.5 160.5l94 33q125 0 211 -74l-11 -155h-58l-16 97q-51 53 -175 72q-95 -44 -144.5 -134t-49.5 -214q0 -125 56.5 -194.5t141.5 -76.5q67 27 111 67
l60 117h60l-42 -176z" />
    <glyph glyph-name="Dcaron.ss02" horiz-adv-x="681" 
d="M329 750l-89 100h69l73 -53l97 53h68l-124 -100h-94zM-9 -1v40l85 13l96 600l-84 10l11 39l141 -3l166 3q126 1 199.5 -79.5t73.5 -214.5q0 -78 -28.5 -148.5t-96 -134t-167.5 -97.5l-80 -28l-178 3zM199 61h162q80 45 132.5 131t52.5 200q0 121 -52 189t-131 72h-70z
" />
    <glyph glyph-name="Eacute.ss02" horiz-adv-x="600" 
d="M372 750l84 100h118l-136 -100h-66zM-10 -1l1 40l86 13l95 597l-83 13l11 39l137 -3l378 3v-178h-42l-46 123l-234 3l-40 -258l128 4l62 106h36l-36 -134l-8 -134h-37l-25 106l-128 4l-47 -292l259 3l78 135h45l-46 -190l-408 3z" />
    <glyph glyph-name="Ebreve.ss02" horiz-adv-x="600" 
d="M419 740q-99 0 -134 102l30 13q41 -49 103 -49q61 0 124 49l24 -13q-1 -1 -8.5 -10t-10 -11.5t-10.5 -11t-13 -12.5t-14 -11.5t-18 -12.5t-20.5 -11t-24.5 -11.5t-28 -10.5zM-10 -1l1 40l86 13l95 597l-83 13l11 39l137 -3l378 3v-178h-42l-46 123l-234 3l-40 -258l128 4
l62 106h36l-36 -134l-8 -134h-37l-25 106l-128 4l-47 -292l259 3l78 135h45l-46 -190l-408 3z" />
    <glyph glyph-name="Ecaron.ss02" horiz-adv-x="600" 
d="M348 750l-89 100h69l73 -53l97 53h68l-124 -100h-94zM-10 -1l1 40l86 13l95 597l-83 13l11 39l137 -3l378 3v-178h-42l-46 123l-234 3l-40 -258l128 4l62 106h36l-36 -134l-8 -134h-37l-25 106l-128 4l-47 -292l259 3l78 135h45l-46 -190l-408 3z" />
    <glyph glyph-name="Ecircumflex.ss02" horiz-adv-x="600" 
d="M245 750l124 100h94l91 -100h-68l-76 53l-96 -53h-69zM-10 -1l1 40l86 13l95 597l-83 13l11 39l137 -3l378 3v-178h-42l-46 123l-234 3l-40 -258l128 4l62 106h36l-36 -134l-8 -134h-37l-25 106l-128 4l-47 -292l259 3l78 135h45l-46 -190l-408 3z" />
    <glyph glyph-name="Edieresis.ss02" horiz-adv-x="600" 
d="M515 750l-51 5l4 53l19 40l40 5l49 -5l-1 -48l-18 -45zM263 752l-10 35l12 44l16 19h69l13 -29l-11 -49l-19 -20h-70zM-10 -1l1 40l86 13l95 597l-83 13l11 39l137 -3l378 3v-178h-42l-46 123l-234 3l-40 -258l128 4l62 106h36l-36 -134l-8 -134h-37l-25 106l-128 4
l-47 -292l259 3l78 135h45l-46 -190l-408 3z" />
    <glyph glyph-name="Edotaccent.ss02" horiz-adv-x="600" 
d="M406 749l-55 5l4 52l19 42l43 5l50 -5l-1 -50l-19 -44zM-10 -1l1 40l86 13l95 597l-83 13l11 39l137 -3l378 3v-178h-42l-46 123l-234 3l-40 -258l128 4l62 106h36l-36 -134l-8 -134h-37l-25 106l-128 4l-47 -292l259 3l78 135h45l-46 -190l-408 3z" />
    <glyph glyph-name="Egrave.ss02" horiz-adv-x="600" 
d="M380 750l-66 100h100l19 -100h-53zM-10 -1l1 40l86 13l95 597l-83 13l11 39l137 -3l378 3v-178h-42l-46 123l-234 3l-40 -258l128 4l62 106h36l-36 -134l-8 -134h-37l-25 106l-128 4l-47 -292l259 3l78 135h45l-46 -190l-408 3z" />
    <glyph glyph-name="Emacron.ss02" horiz-adv-x="600" 
d="M262 769l10 59h285l-10 -59h-285zM-10 -1l1 40l86 13l95 597l-83 13l11 39l137 -3l378 3v-178h-42l-46 123l-234 3l-40 -258l128 4l62 106h36l-36 -134l-8 -134h-37l-25 106l-128 4l-47 -292l259 3l78 135h45l-46 -190l-408 3z" />
    <glyph glyph-name="Gbreve.ss02" horiz-adv-x="671" 
d="M469 740q-99 0 -134 102l30 13q41 -49 103 -49q61 0 124 49l24 -13q-1 -1 -8.5 -10t-10 -11.5t-10.5 -11t-13 -12.5t-14 -11.5t-18 -12.5t-20.5 -11t-24.5 -11.5t-28 -10.5zM319 -18q-132 0 -208.5 79t-76.5 219q0 61 17 120t52 115.5t96.5 102.5t141.5 73l83 27
q65 0 119.5 -22t85.5 -51l-9 -149h-58l-17 93q-25 28 -71.5 49t-96.5 22q-210 -98 -210 -351q0 -126 54 -193.5t139 -74.5q52 16 91 43l30 191l-82 13l11 39l136 -1l120 3v-41l-64 -13l-34 -220z" />
    <glyph glyph-name="Gcircumflex.ss02" horiz-adv-x="671" 
d="M295 750l124 100h94l91 -100h-68l-76 53l-96 -53h-69zM319 -18q-132 0 -208.5 79t-76.5 219q0 61 17 120t52 115.5t96.5 102.5t141.5 73l83 27q65 0 119.5 -22t85.5 -51l-9 -149h-58l-17 93q-25 28 -71.5 49t-96.5 22q-210 -98 -210 -351q0 -126 54 -193.5t139 -74.5
q52 16 91 43l30 191l-82 13l11 39l136 -1l120 3v-41l-64 -13l-34 -220z" />
    <glyph glyph-name="Gdotaccent.ss02" horiz-adv-x="671" 
d="M456 749l-55 5l4 52l19 42l43 5l50 -5l-1 -50l-19 -44zM319 -18q-132 0 -208.5 79t-76.5 219q0 61 17 120t52 115.5t96.5 102.5t141.5 73l83 27q65 0 119.5 -22t85.5 -51l-9 -149h-58l-17 93q-25 28 -71.5 49t-96.5 22q-210 -98 -210 -351q0 -126 54 -193.5t139 -74.5
q52 16 91 43l30 191l-82 13l11 39l136 -1l120 3v-41l-64 -13l-34 -220z" />
    <glyph glyph-name="Hcircumflex.ss02" horiz-adv-x="709" 
d="M306 750l124 100h94l91 -100h-68l-76 53l-96 -53h-69zM-10 -1l1 40l85 13l95 596l-82 13l11 40l141 -3l134 3l-1 -40l-80 -13l-42 -259h261l41 259l-78 13l11 40l138 -3l136 3l-1 -40l-83 -13l-95 -596l79 -13l-11 -40l-135 3l-140 -3l1 40l83 13l46 284h-261l-45 -284
l76 -13l-11 -40l-134 3z" />
    <glyph glyph-name="Iacute.ss02" horiz-adv-x="328" 
d="M230 750l84 100h118l-136 -100h-66zM-9 -1l2 40l85 13l95 596l-82 13l11 40l141 -3l136 3l-1 -40l-83 -13l-96 -596l79 -13l-11 -40l-138 3z" />
    <glyph glyph-name="Ibreve.ss02" horiz-adv-x="328" 
d="M277 740q-99 0 -134 102l30 13q41 -49 103 -49q61 0 124 49l24 -13q-1 -1 -8.5 -10t-10 -11.5t-10.5 -11t-13 -12.5t-14 -11.5t-18 -12.5t-20.5 -11t-24.5 -11.5t-28 -10.5zM-9 -1l2 40l85 13l95 596l-82 13l11 40l141 -3l136 3l-1 -40l-83 -13l-96 -596l79 -13l-11 -40
l-138 3z" />
    <glyph glyph-name="Icircumflex.ss02" horiz-adv-x="328" 
d="M103 750l124 100h94l91 -100h-68l-76 53l-96 -53h-69zM-9 -1l2 40l85 13l95 596l-82 13l11 40l141 -3l136 3l-1 -40l-83 -13l-96 -596l79 -13l-11 -40l-138 3z" />
    <glyph glyph-name="Idieresis.ss02" horiz-adv-x="328" 
d="M373 750l-51 5l4 53l19 40l40 5l49 -5l-1 -48l-18 -45zM121 752l-10 35l12 44l16 19h69l13 -29l-11 -49l-19 -20h-70zM-9 -1l2 40l85 13l95 596l-82 13l11 40l141 -3l136 3l-1 -40l-83 -13l-96 -596l79 -13l-11 -40l-138 3z" />
    <glyph glyph-name="Idotaccent.ss02" horiz-adv-x="328" 
d="M264 749l-55 5l4 52l19 42l43 5l50 -5l-1 -50l-19 -44zM-9 -1l2 40l85 13l95 596l-82 13l11 40l141 -3l136 3l-1 -40l-83 -13l-96 -596l79 -13l-11 -40l-138 3z" />
    <glyph glyph-name="Igrave.ss02" horiz-adv-x="328" 
d="M238 750l-66 100h100l19 -100h-53zM-9 -1l2 40l85 13l95 596l-82 13l11 40l141 -3l136 3l-1 -40l-83 -13l-96 -596l79 -13l-11 -40l-138 3z" />
    <glyph glyph-name="Imacron.ss02" horiz-adv-x="328" 
d="M120 769l10 59h285l-10 -59h-285zM-9 -1l2 40l85 13l95 596l-82 13l11 40l141 -3l136 3l-1 -40l-83 -13l-96 -596l79 -13l-11 -40l-138 3z" />
    <glyph glyph-name="Itilde.ss02" horiz-adv-x="328" 
d="M105 745l42 86l71 20l148 -56l46 56h26l-44 -91l-69 -15l-149 56l-45 -56h-26zM-9 -1l2 40l85 13l95 596l-82 13l11 40l141 -3l136 3l-1 -40l-83 -13l-96 -596l79 -13l-11 -40l-138 3z" />
    <glyph glyph-name="Jcircumflex.ss02" horiz-adv-x="334" 
d="M119 750l124 100h94l91 -100h-68l-76 53l-96 -53h-69zM-81 -175l19 92h105q22 32 33.5 68t19.5 98l90 565l-88 13l11 40l144 -3l139 3l-2 -40l-83 -13l-88 -553q-10 -64 -33 -103.5t-68 -74.5l-117 -92h-82z" />
    <glyph glyph-name="Lacute.ss02" horiz-adv-x="565" 
d="M224 750l84 100h118l-136 -100h-66zM-10 -1l1 40l86 13l95 596l-83 13l12 40l132 -3l148 3l-1 -40l-87 -13l-95 -597l223 3l93 139h45l-61 -194l-372 3z" />
    <glyph glyph-name="Nacute.ss02" horiz-adv-x="704" 
d="M406 750l84 100h118l-136 -100h-66zM-10 -1l1 40l85 13l94 591l-79 18l11 40l91 -3l88 3l239 -463l15 -89l72 499l-78 13l11 40l104 -3l116 3l-1 -40l-87 -13l-102 -648h-73l-259 516l-11 92l-85 -556l83 -13l-11 -40l-111 3z" />
    <glyph glyph-name="Ncaron.ss02" horiz-adv-x="704" 
d="M382 750l-89 100h69l73 -53l97 53h68l-124 -100h-94zM-10 -1l1 40l85 13l94 591l-79 18l11 40l91 -3l88 3l239 -463l15 -89l72 499l-78 13l11 40l104 -3l116 3l-1 -40l-87 -13l-102 -648h-73l-259 516l-11 92l-85 -556l83 -13l-11 -40l-111 3z" />
    <glyph glyph-name="Ntilde.ss02" horiz-adv-x="704" 
d="M281 745l42 86l71 20l148 -56l46 56h26l-44 -91l-69 -15l-149 56l-45 -56h-26zM-10 -1l1 40l85 13l94 591l-79 18l11 40l91 -3l88 3l239 -463l15 -89l72 499l-78 13l11 40l104 -3l116 3l-1 -40l-87 -13l-102 -648h-73l-259 516l-11 92l-85 -556l83 -13l-11 -40l-111 3z
" />
    <glyph glyph-name="Oacute.ss02" horiz-adv-x="707" 
d="M423 750l84 100h118l-136 -100h-66zM327 -18q-129 0 -203.5 82.5t-74.5 223.5q0 62 16 121t49.5 114.5t91.5 100t134 68.5l83 26q129 0 203.5 -82.5t74.5 -223.5q0 -62 -16 -121t-49.5 -114.5t-91.5 -100t-134 -68.5zM367 39q95 39 148 135.5t53 223.5q0 118 -51 184
t-135 79q-95 -39 -148 -135.5t-53 -223.5q0 -118 51 -184t135 -79z" />
    <glyph glyph-name="Obreve.ss02" horiz-adv-x="707" 
d="M470 740q-99 0 -134 102l30 13q41 -49 103 -49q61 0 124 49l24 -13q-1 -1 -8.5 -10t-10 -11.5t-10.5 -11t-13 -12.5t-14 -11.5t-18 -12.5t-20.5 -11t-24.5 -11.5t-28 -10.5zM327 -18q-129 0 -203.5 82.5t-74.5 223.5q0 62 16 121t49.5 114.5t91.5 100t134 68.5l83 26
q129 0 203.5 -82.5t74.5 -223.5q0 -62 -16 -121t-49.5 -114.5t-91.5 -100t-134 -68.5zM367 39q95 39 148 135.5t53 223.5q0 118 -51 184t-135 79q-95 -39 -148 -135.5t-53 -223.5q0 -118 51 -184t135 -79z" />
    <glyph glyph-name="Ocircumflex.ss02" horiz-adv-x="707" 
d="M296 750l124 100h94l91 -100h-68l-76 53l-96 -53h-69zM327 -18q-129 0 -203.5 82.5t-74.5 223.5q0 62 16 121t49.5 114.5t91.5 100t134 68.5l83 26q129 0 203.5 -82.5t74.5 -223.5q0 -62 -16 -121t-49.5 -114.5t-91.5 -100t-134 -68.5zM367 39q95 39 148 135.5t53 223.5
q0 118 -51 184t-135 79q-95 -39 -148 -135.5t-53 -223.5q0 -118 51 -184t135 -79z" />
    <glyph glyph-name="Odieresis.ss02" horiz-adv-x="707" 
d="M566 750l-51 5l4 53l19 40l40 5l49 -5l-1 -48l-18 -45zM314 752l-10 35l12 44l16 19h69l13 -29l-11 -49l-19 -20h-70zM327 -18q-129 0 -203.5 82.5t-74.5 223.5q0 62 16 121t49.5 114.5t91.5 100t134 68.5l83 26q129 0 203.5 -82.5t74.5 -223.5q0 -62 -16 -121
t-49.5 -114.5t-91.5 -100t-134 -68.5zM367 39q95 39 148 135.5t53 223.5q0 118 -51 184t-135 79q-95 -39 -148 -135.5t-53 -223.5q0 -118 51 -184t135 -79z" />
    <glyph glyph-name="Ograve.ss02" horiz-adv-x="707" 
d="M431 750l-66 100h100l19 -100h-53zM327 -18q-129 0 -203.5 82.5t-74.5 223.5q0 62 16 121t49.5 114.5t91.5 100t134 68.5l83 26q129 0 203.5 -82.5t74.5 -223.5q0 -62 -16 -121t-49.5 -114.5t-91.5 -100t-134 -68.5zM367 39q95 39 148 135.5t53 223.5q0 118 -51 184
t-135 79q-95 -39 -148 -135.5t-53 -223.5q0 -118 51 -184t135 -79z" />
    <glyph glyph-name="Ohungarumlaut.ss02" horiz-adv-x="707" 
d="M306 750l84 100h118l-136 -100h-66zM481 750l84 100h118l-136 -100h-66zM327 -18q-129 0 -203.5 82.5t-74.5 223.5q0 62 16 121t49.5 114.5t91.5 100t134 68.5l83 26q129 0 203.5 -82.5t74.5 -223.5q0 -62 -16 -121t-49.5 -114.5t-91.5 -100t-134 -68.5zM367 39
q95 39 148 135.5t53 223.5q0 118 -51 184t-135 79q-95 -39 -148 -135.5t-53 -223.5q0 -118 51 -184t135 -79z" />
    <glyph glyph-name="Omacron.ss02" horiz-adv-x="707" 
d="M313 769l10 59h285l-10 -59h-285zM327 -18q-129 0 -203.5 82.5t-74.5 223.5q0 62 16 121t49.5 114.5t91.5 100t134 68.5l83 26q129 0 203.5 -82.5t74.5 -223.5q0 -62 -16 -121t-49.5 -114.5t-91.5 -100t-134 -68.5zM367 39q95 39 148 135.5t53 223.5q0 118 -51 184
t-135 79q-95 -39 -148 -135.5t-53 -223.5q0 -118 51 -184t135 -79z" />
    <glyph glyph-name="Oslashacute.ss02" horiz-adv-x="707" 
d="M624 850l-136 -100h-66l84 100h118zM714 715l-78 -91q65 -80 65 -212q0 -62 -16 -121t-49.5 -114.5t-91.5 -100t-134 -68.5l-83 -26q-116 0 -188 67l-56 -64h-61l86 99q-59 81 -59 204q0 62 16 121t49.5 114.5t91.5 100t134 68.5l83 26q109 0 181 -61l51 58h59zM181 302
q0 -62 16 -115l330 380q-49 79 -145 94q-95 -39 -148 -135.5t-53 -223.5zM568 398q0 71 -20 125l-330 -382q48 -87 149 -102q95 39 148 135.5t53 223.5z" />
    <glyph glyph-name="Otilde.ss02" horiz-adv-x="707" 
d="M298 745l42 86l71 20l148 -56l46 56h26l-44 -91l-69 -15l-149 56l-45 -56h-26zM327 -18q-129 0 -203.5 82.5t-74.5 223.5q0 62 16 121t49.5 114.5t91.5 100t134 68.5l83 26q129 0 203.5 -82.5t74.5 -223.5q0 -62 -16 -121t-49.5 -114.5t-91.5 -100t-134 -68.5zM367 39
q95 39 148 135.5t53 223.5q0 118 -51 184t-135 79q-95 -39 -148 -135.5t-53 -223.5q0 -118 51 -184t135 -79z" />
    <glyph glyph-name="Racute.ss02" horiz-adv-x="657" 
d="M539 850l-136 -100h-66l84 100h118zM570 52l52 -14l-8 -39l-92 3l-69 -3l-136 308l-12 11h-64l-43 -266l90 -13l-11 -40l-150 3l-137 -3l1 40l86 13l96 599l-84 10l12 40l137 -3l177 3q90 1 144.5 -40t54.5 -109q0 -71 -45 -117t-137 -82l-55 -20l76 -42zM295 655
l-45 -273h132q102 50 102 157q0 53 -28 83.5t-84 32.5h-77z" />
    <glyph glyph-name="Rcaron.ss02" horiz-adv-x="657" 
d="M407 750h-94l-89 100h69l73 -53l97 53h68zM570 52l52 -14l-8 -39l-92 3l-69 -3l-136 308l-12 11h-64l-43 -266l90 -13l-11 -40l-150 3l-137 -3l1 40l86 13l96 599l-84 10l12 40l137 -3l177 3q90 1 144.5 -40t54.5 -109q0 -71 -45 -117t-137 -82l-55 -20l76 -42zM295 655
l-45 -273h132q102 50 102 157q0 53 -28 83.5t-84 32.5h-77z" />
    <glyph glyph-name="Sacute.ss02" horiz-adv-x="514" 
d="M335 750l84 100h118l-136 -100h-66zM234 -18q-136 0 -219 61l25 148h66v-84q26 -28 71 -49.5t88 -21.5q50 15 75 46t25 74q0 30 -12 54t-25.5 37.5t-40.5 34.5l-101 80q-42 35 -64 69.5t-22 80.5q0 111 155 172l91 34q122 0 192 -53l-26 -145h-56l-6 92q-63 54 -138 55
q-96 -31 -96 -103q0 -35 18.5 -60t57.5 -56l94 -76q30 -24 48 -43t33 -53t15 -75q0 -60 -39.5 -108t-108.5 -74z" />
    <glyph glyph-name="Scaron.ss02" horiz-adv-x="514" 
d="M311 750l-89 100h69l73 -53l97 53h68l-124 -100h-94zM234 -18q-136 0 -219 61l25 148h66v-84q26 -28 71 -49.5t88 -21.5q50 15 75 46t25 74q0 30 -12 54t-25.5 37.5t-40.5 34.5l-101 80q-42 35 -64 69.5t-22 80.5q0 111 155 172l91 34q122 0 192 -53l-26 -145h-56l-6 92
q-63 54 -138 55q-96 -31 -96 -103q0 -35 18.5 -60t57.5 -56l94 -76q30 -24 48 -43t33 -53t15 -75q0 -60 -39.5 -108t-108.5 -74z" />
    <glyph glyph-name="Scircumflex.ss02" horiz-adv-x="514" 
d="M208 750l124 100h94l91 -100h-68l-76 53l-96 -53h-69zM234 -18q-136 0 -219 61l25 148h66v-84q26 -28 71 -49.5t88 -21.5q50 15 75 46t25 74q0 30 -12 54t-25.5 37.5t-40.5 34.5l-101 80q-42 35 -64 69.5t-22 80.5q0 111 155 172l91 34q122 0 192 -53l-26 -145h-56l-6 92
q-63 54 -138 55q-96 -31 -96 -103q0 -35 18.5 -60t57.5 -56l94 -76q30 -24 48 -43t33 -53t15 -75q0 -60 -39.5 -108t-108.5 -74z" />
    <glyph glyph-name="Tcaron.ss02" horiz-adv-x="601" 
d="M343 750l-89 100h69l73 -53l97 53h68l-124 -100h-94zM117 -1l1 40l93 13l95 598l-129 -3l-66 -133h-45l28 187l283 -3l278 3l-27 -187h-45l-24 133l-131 3l-96 -598l87 -13l-11 -40l-146 3z" />
    <glyph glyph-name="Uacute.ss02" horiz-adv-x="677" 
d="M419 750l84 100h118l-136 -100h-66zM295 -18q-241 0 -200 260l65 406l-82 13l11 40l134 -3l145 3l-1 -40l-82 -13l-70 -421q-13 -76 27.5 -129.5t124.5 -53.5q63 25 93.5 64t44.5 125l67 415l-88 13l11 40l119 -3l123 3l-1 -40l-88 -13l-65 -410q-15 -94 -60 -150
t-151 -85z" />
    <glyph glyph-name="Ubreve.ss02" horiz-adv-x="677" 
d="M466 740q-99 0 -134 102l30 13q41 -49 103 -49q61 0 124 49l24 -13q-1 -1 -8.5 -10t-10 -11.5t-10.5 -11t-13 -12.5t-14 -11.5t-18 -12.5t-20.5 -11t-24.5 -11.5t-28 -10.5zM295 -18q-241 0 -200 260l65 406l-82 13l11 40l134 -3l145 3l-1 -40l-82 -13l-70 -421
q-13 -76 27.5 -129.5t124.5 -53.5q63 25 93.5 64t44.5 125l67 415l-88 13l11 40l119 -3l123 3l-1 -40l-88 -13l-65 -410q-15 -94 -60 -150t-151 -85z" />
    <glyph glyph-name="Ucircumflex.ss02" horiz-adv-x="677" 
d="M292 750l124 100h94l91 -100h-68l-76 53l-96 -53h-69zM295 -18q-241 0 -200 260l65 406l-82 13l11 40l134 -3l145 3l-1 -40l-82 -13l-70 -421q-13 -76 27.5 -129.5t124.5 -53.5q63 25 93.5 64t44.5 125l67 415l-88 13l11 40l119 -3l123 3l-1 -40l-88 -13l-65 -410
q-15 -94 -60 -150t-151 -85z" />
    <glyph glyph-name="Udieresis.ss02" horiz-adv-x="677" 
d="M562 750l-51 5l4 53l19 40l40 5l49 -5l-1 -48l-18 -45zM310 752l-10 35l12 44l16 19h69l13 -29l-11 -49l-19 -20h-70zM295 -18q-241 0 -200 260l65 406l-82 13l11 40l134 -3l145 3l-1 -40l-82 -13l-70 -421q-13 -76 27.5 -129.5t124.5 -53.5q63 25 93.5 64t44.5 125
l67 415l-88 13l11 40l119 -3l123 3l-1 -40l-88 -13l-65 -410q-15 -94 -60 -150t-151 -85z" />
    <glyph glyph-name="Ugrave.ss02" horiz-adv-x="677" 
d="M427 750l-66 100h100l19 -100h-53zM295 -18q-241 0 -200 260l65 406l-82 13l11 40l134 -3l145 3l-1 -40l-82 -13l-70 -421q-13 -76 27.5 -129.5t124.5 -53.5q63 25 93.5 64t44.5 125l67 415l-88 13l11 40l119 -3l123 3l-1 -40l-88 -13l-65 -410q-15 -94 -60 -150
t-151 -85z" />
    <glyph glyph-name="Uhungarumlaut.ss02" horiz-adv-x="677" 
d="M305 750l84 100h118l-136 -100h-66zM480 750l84 100h118l-136 -100h-66zM295 -18q-241 0 -200 260l65 406l-82 13l11 40l134 -3l145 3l-1 -40l-82 -13l-70 -421q-13 -76 27.5 -129.5t124.5 -53.5q63 25 93.5 64t44.5 125l67 415l-88 13l11 40l119 -3l123 3l-1 -40
l-88 -13l-65 -410q-15 -94 -60 -150t-151 -85z" />
    <glyph glyph-name="Umacron.ss02" horiz-adv-x="677" 
d="M309 769l10 59h285l-10 -59h-285zM295 -18q-241 0 -200 260l65 406l-82 13l11 40l134 -3l145 3l-1 -40l-82 -13l-70 -421q-13 -76 27.5 -129.5t124.5 -53.5q63 25 93.5 64t44.5 125l67 415l-88 13l11 40l119 -3l123 3l-1 -40l-88 -13l-65 -410q-15 -94 -60 -150t-151 -85
z" />
    <glyph glyph-name="Uring.ss02" horiz-adv-x="677" 
d="M447 723q-31 0 -55 16.5t-24 49.5q0 21 13 35t27 20t39 13q31 0 55 -16.5t24 -49.5q0 -30 -20 -44t-59 -24zM447 753q17 0 28.5 10.5t11.5 27.5q0 16 -11.5 26.5t-28.5 10.5t-28.5 -10.5t-11.5 -26.5q0 -17 11.5 -27.5t28.5 -10.5zM295 -18q-241 0 -200 260l65 406
l-82 13l11 40l134 -3l145 3l-1 -40l-82 -13l-70 -421q-13 -76 27.5 -129.5t124.5 -53.5q63 25 93.5 64t44.5 125l67 415l-88 13l11 40l119 -3l123 3l-1 -40l-88 -13l-65 -410q-15 -94 -60 -150t-151 -85z" />
    <glyph glyph-name="Utilde.ss02" horiz-adv-x="677" 
d="M294 745l42 86l71 20l148 -56l46 56h26l-44 -91l-69 -15l-149 56l-45 -56h-26zM295 -18q-241 0 -200 260l65 406l-82 13l11 40l134 -3l145 3l-1 -40l-82 -13l-70 -421q-13 -76 27.5 -129.5t124.5 -53.5q63 25 93.5 64t44.5 125l67 415l-88 13l11 40l119 -3l123 3l-1 -40
l-88 -13l-65 -410q-15 -94 -60 -150t-151 -85z" />
    <glyph glyph-name="Wacute.ss02" horiz-adv-x="938" 
d="M541 750l84 100h118l-136 -100h-66zM252 -18l-106 668l-70 11l11 40l147 -3l105 3l-1 -40l-67 -13l65 -480l-12 -63l172 436l-16 109l-55 11l11 40l132 -3l122 3l-1 -40l-84 -13l65 -480l-12 -63l220 543l-87 13l11 40l117 -3l81 3l-1 -40l-50 -11l-279 -644l-84 -24
l-69 440l5 57l-186 -473z" />
    <glyph glyph-name="Wcircumflex.ss02" horiz-adv-x="938" 
d="M414 750l124 100h94l91 -100h-68l-76 53l-96 -53h-69zM252 -18l-106 668l-70 11l11 40l147 -3l105 3l-1 -40l-67 -13l65 -480l-12 -63l172 436l-16 109l-55 11l11 40l132 -3l122 3l-1 -40l-84 -13l65 -480l-12 -63l220 543l-87 13l11 40l117 -3l81 3l-1 -40l-50 -11
l-279 -644l-84 -24l-69 440l5 57l-186 -473z" />
    <glyph glyph-name="Wdieresis.ss02" horiz-adv-x="938" 
d="M684 750l-51 5l4 53l19 40l40 5l49 -5l-1 -48l-18 -45zM432 752l-10 35l12 44l16 19h69l13 -29l-11 -49l-19 -20h-70zM252 -18l-106 668l-70 11l11 40l147 -3l105 3l-1 -40l-67 -13l65 -480l-12 -63l172 436l-16 109l-55 11l11 40l132 -3l122 3l-1 -40l-84 -13l65 -480
l-12 -63l220 543l-87 13l11 40l117 -3l81 3l-1 -40l-50 -11l-279 -644l-84 -24l-69 440l5 57l-186 -473z" />
    <glyph glyph-name="Wgrave.ss02" horiz-adv-x="938" 
d="M549 750l-66 100h100l19 -100h-53zM252 -18l-106 668l-70 11l11 40l147 -3l105 3l-1 -40l-67 -13l65 -480l-12 -63l172 436l-16 109l-55 11l11 40l132 -3l122 3l-1 -40l-84 -13l65 -480l-12 -63l220 543l-87 13l11 40l117 -3l81 3l-1 -40l-50 -11l-279 -644l-84 -24
l-69 440l5 57l-186 -473z" />
    <glyph glyph-name="Yacute.ss02" horiz-adv-x="640" 
d="M399 750l84 100h118l-136 -100h-66zM132 -1l1 40l118 13l36 232l-153 365l-56 12l10 40l123 -3l138 3v-40l-82 -13l110 -271v-47l202 318l-79 13l10 40l112 -3l81 3l-1 -40l-53 -12l-241 -366l-36 -231l110 -13l-11 -40l-170 3z" />
    <glyph glyph-name="Ycircumflex.ss02" horiz-adv-x="640" 
d="M272 750l124 100h94l91 -100h-68l-76 53l-96 -53h-69zM132 -1l1 40l118 13l36 232l-153 365l-56 12l10 40l123 -3l138 3v-40l-82 -13l110 -271v-47l202 318l-79 13l10 40l112 -3l81 3l-1 -40l-53 -12l-241 -366l-36 -231l110 -13l-11 -40l-170 3z" />
    <glyph glyph-name="Ydieresis.ss02" horiz-adv-x="640" 
d="M542 750l-51 5l4 53l19 40l40 5l49 -5l-1 -48l-18 -45zM290 752l-10 35l12 44l16 19h69l13 -29l-11 -49l-19 -20h-70zM132 -1l1 40l118 13l36 232l-153 365l-56 12l10 40l123 -3l138 3v-40l-82 -13l110 -271v-47l202 318l-79 13l10 40l112 -3l81 3l-1 -40l-53 -12
l-241 -366l-36 -231l110 -13l-11 -40l-170 3z" />
    <glyph glyph-name="Ygrave.ss02" horiz-adv-x="640" 
d="M407 750l-66 100h100l19 -100h-53zM132 -1l1 40l118 13l36 232l-153 365l-56 12l10 40l123 -3l138 3v-40l-82 -13l110 -271v-47l202 318l-79 13l10 40l112 -3l81 3l-1 -40l-53 -12l-241 -366l-36 -231l110 -13l-11 -40l-170 3z" />
    <glyph glyph-name="Zacute.ss02" horiz-adv-x="541" 
d="M339 750l84 100h118l-136 -100h-66zM-11 0l-1 44l426 571l58 38l-279 -8l-68 -129h-41l30 184h456l16 -42l-429 -573l-54 -35l291 5l101 152h45l-68 -207h-483z" />
    <glyph glyph-name="Zcaron.ss02" horiz-adv-x="541" 
d="M315 750l-89 100h69l73 -53l97 53h68l-124 -100h-94zM-11 0l-1 44l426 571l58 38l-279 -8l-68 -129h-41l30 184h456l16 -42l-429 -573l-54 -35l291 5l101 152h45l-68 -207h-483z" />
    <glyph glyph-name="Zdotaccent.ss02" horiz-adv-x="541" 
d="M373 749l-55 5l4 52l19 42l43 5l50 -5l-1 -50l-19 -44zM-11 0l-1 44l426 571l58 38l-279 -8l-68 -129h-41l30 184h456l16 -42l-429 -573l-54 -35l291 5l101 152h45l-68 -207h-483z" />
    <glyph glyph-name="aogonek.ss01" horiz-adv-x="506" 
d="M321 -81q-7 -32 15 -49t76 -17l-6 -37q-102 0 -143.5 25.5t-28.5 75.5l4 19l87 64l-38 19l10 57l19 46l-152 -137q-128 33 -128 189q0 188 184 278l76 37q63 -1 171 -42l-68 -385l82 52l19 -26l-122 -86l-54 -70zM311 156l42 237q-20 13 -54.5 21.5t-62.5 8.5
q-86 -81 -86 -216q0 -91 57 -133z" />
    <glyph glyph-name="ccedilla.ss01" horiz-adv-x="426" 
d="M209 -15h-1l-14 -18q74 -7 74 -49q0 -48 -86 -77l-51 -18h-59l29 43h76q25 12 25 36q0 34 -74 34l44 53q-60 14 -97.5 63t-37.5 125q0 94 52.5 166.5t151.5 115.5l66 30q58 -4 118 -38l-57 -93q-52 37 -119 63q-97 -59 -97 -203q0 -120 102 -150q66 29 115 61l20 -26
q-60 -47 -130 -88z" />
    <glyph glyph-name="eogonek.ss01" horiz-adv-x="442" 
d="M407 292l-256 -79v-3q0 -55 28.5 -95.5t72.5 -46.5q67 26 125 63l19 -27q-69 -51 -147 -92l-13 -7l-56 -73l-3 -13q-7 -32 15 -49t76 -17l-6 -37q-102 0 -143.5 25.5t-28.5 75.5l4 19l75 54q-60 15 -96 63.5t-36 117.5q0 100 54 178t145 111l80 29q107 -21 107 -110
q0 -35 -16 -87zM260 435q-42 -20 -70.5 -70t-36.5 -116l148 59q10 34 10 57q0 61 -51 70z" />
    <glyph glyph-name="f.ss01" horiz-adv-x="332" 
d="M-116 -175l18 95h112q30 32 40 86l70 401h-96l5 19l42 37h59l8 46q16 95 74 131l125 75h93l-17 -86h-126q-29 -27 -38 -78l-16 -92h111l-11 -52h-110l-64 -370q-16 -85 -90 -135l-118 -77h-71z" />
    <glyph glyph-name="g.ss01" horiz-adv-x="498" 
d="M32 -175l17 95h192q42 44 58 127l10 48l19 47l-164 -139q-53 17 -86.5 64.5t-33.5 123.5q0 177 180 261l77 37q36 0 87.5 -12.5t91.5 -32.5l-77 -403q-7 -41 -36.5 -76t-87.5 -74l-96 -66h-151zM220 93l104 78l42 221q-48 33 -121 33q-41 -30 -63.5 -86.5t-22.5 -117.5
q0 -84 61 -128z" />
    <glyph glyph-name="gbreve.ss01" horiz-adv-x="498" 
d="M325 553q-55 0 -89 40t-45 91l36 23q37 -79 103 -79q62 0 119 79l26 -23q-18 -29 -30 -44.5t-43.5 -41t-76.5 -45.5zM32 -175l17 95h192q42 44 58 127l10 48l19 47l-164 -139q-53 17 -86.5 64.5t-33.5 123.5q0 177 180 261l77 37q36 0 87.5 -12.5t91.5 -32.5l-77 -403
q-7 -41 -36.5 -76t-87.5 -74l-96 -66h-151zM220 93l104 78l42 221q-48 33 -121 33q-41 -30 -63.5 -86.5t-22.5 -117.5q0 -84 61 -128z" />
    <glyph glyph-name="gcircumflex.ss01" horiz-adv-x="498" 
d="M180 553l121 156h77l60 -156h-48l-65 82l-96 -82h-49zM32 -175l17 95h192q42 44 58 127l10 48l19 47l-164 -139q-53 17 -86.5 64.5t-33.5 123.5q0 177 180 261l77 37q36 0 87.5 -12.5t91.5 -32.5l-77 -403q-7 -41 -36.5 -76t-87.5 -74l-96 -66h-151zM220 93l104 78
l42 221q-48 33 -121 33q-41 -30 -63.5 -86.5t-22.5 -117.5q0 -84 61 -128z" />
    <glyph glyph-name="gcommaaccent.ss01" horiz-adv-x="498" 
d="M266 550l14 80l88 104l41 -10l-42 -99l17 -35l-7 -40h-111zM32 -175l17 95h192q42 44 58 127l10 48l19 47l-164 -139q-53 17 -86.5 64.5t-33.5 123.5q0 177 180 261l77 37q36 0 87.5 -12.5t91.5 -32.5l-77 -403q-7 -41 -36.5 -76t-87.5 -74l-96 -66h-151zM220 93l104 78
l42 221q-48 33 -121 33q-41 -30 -63.5 -86.5t-22.5 -117.5q0 -84 61 -128z" />
    <glyph glyph-name="gdotaccent.ss01" horiz-adv-x="498" 
d="M335 580l-69 6l4 54l19 48l34 5l62 -5v-55l-19 -47zM32 -175l17 95h192q42 44 58 127l10 48l19 47l-164 -139q-53 17 -86.5 64.5t-33.5 123.5q0 177 180 261l77 37q36 0 87.5 -12.5t91.5 -32.5l-77 -403q-7 -41 -36.5 -76t-87.5 -74l-96 -66h-151zM220 93l104 78l42 221
q-48 33 -121 33q-41 -30 -63.5 -86.5t-22.5 -117.5q0 -84 61 -128z" />
    <glyph glyph-name="ij.ss01" horiz-adv-x="579" 
d="M233 575l-71 6l3 57l21 49l35 6l64 -6v-57l-19 -49zM523 575l-71 6l3 57l21 49l35 6l64 -6v-57l-19 -49zM130 -15l-67 35l70 396l-89 -31l-12 29l170 75l41 -40l-68 -386l82 52l19 -26zM191 -175l17 95h116q29 38 39 94l71 402l-88 -31l-13 29l170 75l41 -40l-72 -407
q-15 -89 -90 -137l-120 -80h-71z" />
    <glyph glyph-name="iogonek.ss01" horiz-adv-x="297" 
d="M221 693l64 -6v-57l-19 -49l-33 -6l-71 6l3 57l21 49zM106 -68l-3 -13q-7 -32 15 -49t76 -17l-6 -37q-102 0 -143.5 25.5t-28.5 75.5l4 19l85 62l-42 22l70 396l-89 -31l-12 29l170 75l41 -40l-68 -386l82 52l19 -26l-109 -77z" />
    <glyph glyph-name="j.ss01" horiz-adv-x="282" 
d="M226 575l-71 6l3 57l21 49l35 6l64 -6v-57l-19 -49zM-106 -175l17 95h116q29 38 39 94l71 402l-88 -31l-13 29l170 75l41 -40l-72 -407q-15 -89 -90 -137l-120 -80h-71z" />
    <glyph glyph-name="uni0237.ss01" horiz-adv-x="282" 
d="M-106 -175l17 95h116q29 38 39 94l71 402l-88 -31l-13 29l170 75l41 -40l-72 -407q-15 -89 -90 -137l-120 -80h-71z" />
    <glyph glyph-name="kcommaaccent.ss01" horiz-adv-x="505" 
d="M352 -15l-53 26l-107 247l-45 -258h-105l114 652l-94 -26l-12 32l185 58l32 -28l-71 -405l20 4l176 192h108l-24 -108h-73q-47 -11 -93 -47l-58 -48l45 -15l104 -198l75 48l19 -26zM185 -174l-33 12l48 65l-39 26l6 35h111l-12 -68z" />
    <glyph glyph-name="lcommaaccent.ss01" horiz-adv-x="284" 
d="M119 -15l-68 35l111 630l-93 -25l-12 33l184 57l32 -28l-110 -624l83 52l19 -26zM74 -174l-33 12l48 65l-39 26l6 35h111l-12 -68z" />
    <glyph glyph-name="ncommaaccent.ss01" horiz-adv-x="548" 
d="M393 -15l-68 34l56 316q11 60 -29 60q-35 0 -84 -34l-46 -30l-59 -331h-104l73 415l-88 -30l-12 29l170 75l41 -39l-9 -44l-15 -32l174 115q59 0 84 -32.5t16 -86.5l-55 -308l83 52l18 -26zM212 -174l-33 12l48 65l-39 26l6 35h111l-12 -68z" />
    <glyph glyph-name="eng.ss01" horiz-adv-x="547" 
d="M149 -175l17 89h104q41 33 52 94l59 327q11 60 -29 60q-35 0 -84 -34l-46 -30l-59 -331h-104l73 415l-88 -30l-12 29l170 75l41 -39l-9 -44l-15 -32l174 115q59 0 84 -32.5t16 -86.5l-63 -335q-15 -82 -91 -133l-117 -77h-73z" />
    <glyph glyph-name="p.ss01" horiz-adv-x="522" 
d="M30 -170l103 585l-88 -30l-12 29l169 75l41 -37l-7 -46l-19 -46l150 129q62 -14 98 -60t36 -125q0 -95 -48 -172.5t-135 -113.5l-75 -33q-54 8 -82 21l-4 -57l-22 -119h-105zM299 52q44 25 65.5 85t21.5 124q0 57 -17 91.5t-44 45.5l-104 -73l-41 -235q66 -38 119 -38z
" />
    <glyph glyph-name="thorn.ss01" horiz-adv-x="520" 
d="M30 -170l143 820l-94 -25l-12 33l184 57l32 -28l-49 -283l-19 -46l148 131q62 -13 99 -59t37 -126q0 -95 -47.5 -172t-134.5 -114l-73 -33q-52 8 -83 21l-6 -59l-21 -117h-104zM297 51q43 25 65 85.5t22 124.5q0 56 -17.5 90t-44.5 45l-102 -76l-41 -230q65 -39 118 -39z
" />
    <glyph glyph-name="q.ss01" horiz-adv-x="489" 
d="M261 -170l41 237l21 51l-149 -133q-63 13 -100 59t-37 126q0 94 49 171t138 115l73 33q99 -2 177 -41l-109 -618h-104zM214 78l104 76l43 246q-45 25 -122 25q-43 -26 -65 -87t-22 -125q0 -56 17.5 -90t44.5 -45z" />
    <glyph glyph-name="rcommaaccent.ss01" horiz-adv-x="403" 
d="M58 0l74 415l-88 -30l-12 29l170 75l34 -34l-13 -81l-33 -113l139 218h86l-25 -110h-50q-49 -30 -96 -86l-39 -47l-42 -236h-105zM68 -174l-33 12l48 65l-39 26l6 35h111l-12 -68z" />
    <glyph glyph-name="scedilla.ss01" horiz-adv-x="386" 
d="M285 245q49 -43 49 -97q0 -89 -103 -126l-67 -24l-24 -31q74 -7 74 -49q0 -48 -86 -77l-51 -18h-59l29 43h76q25 12 25 36q0 34 -74 34l43 53q-75 26 -112 49l50 84q83 -47 145 -77q39 13 39 53q0 37 -37 68l-89 77q-45 40 -45 92q0 40 28.5 69.5t94.5 55.5l68 29
q36 -6 121 -45l-50 -86q-59 39 -133 71q-36 -13 -36 -47q0 -31 39 -65z" />
    <glyph glyph-name="scommaaccent.ss01" horiz-adv-x="386" 
d="M129 -15q-26 8 -67.5 25.5t-56.5 27.5l50 84q83 -47 145 -77q39 13 39 53q0 37 -37 68l-89 77q-45 40 -45 92q0 40 28.5 69.5t94.5 55.5l68 29q36 -6 121 -45l-50 -86q-59 39 -133 71q-36 -13 -36 -47q0 -31 39 -65l85 -72q49 -43 49 -97q0 -89 -103 -126zM110 -174
l-33 12l48 65l-39 26l6 35h111l-12 -68z" />
    <glyph glyph-name="germandbls.ss01" horiz-adv-x="552" 
d="M-106 -191l18 95h98q31 36 41 87l72 416h-97l5 19l42 37h60l7 42q15 96 73 131l132 80q177 -4 177 -119q0 -76 -97 -142l-57 -42q-7 -9 -7 -27q0 -23 14 -43.5t48 -49.5t49.5 -44t31.5 -44t16 -60q0 -47 -25.5 -78.5t-84.5 -51.5l-93 -32q-67 25 -108 60l54 77
q64 -52 113 -77q47 13 47 61q0 9 -2 18.5t-4.5 16t-8.5 15.5t-9.5 14t-13 14.5l-13.5 13.5t-15.5 15t-15.5 14q-36 34 -52.5 60t-16.5 59t15 55l50 45q74 67 74 137q0 42 -22.5 62t-51.5 20l-16 -12q-60 -42 -73 -113l-89 -516q-16 -86 -90 -136l-118 -77h-57z" />
    <glyph glyph-name="uni0163.ss01" horiz-adv-x="357" 
d="M354 406h-120l-59 -343l130 52l15 -28l-182 -97l-17 -23q74 -7 74 -49q0 -48 -86 -77l-51 -18h-59l29 43h76q25 12 25 36q0 34 -74 34l50 61l-43 19l68 390h-94l5 19l41 38h57l12 64l89 76h29l-26 -144h122z" />
    <glyph glyph-name="uni021B.ss01" horiz-adv-x="357" 
d="M130 -15l-68 31l68 390h-94l5 19l41 38h57l12 64l89 76h29l-26 -144h122l-11 -53h-120l-59 -343l130 52l15 -28zM91 -174l-33 12l48 65l-39 26l6 35h111l-12 -68z" />
    <glyph glyph-name="uogonek.ss01" horiz-adv-x="543" 
d="M348 -81q-7 -32 15 -49t76 -17l-6 -37q-102 0 -143.5 25.5t-28.5 75.5l4 19l88 64l-31 15l8 58l17 35l-173 -123q-58 0 -83.5 34t-16.5 85l55 312l-88 -31l-12 29l170 75l40 -39l-54 -314q-11 -57 29 -57q22 0 82 39l45 30l56 326h105l-73 -412l82 52l19 -26l-129 -91
l-50 -65z" />
    <glyph glyph-name="y.ss01" horiz-adv-x="482" 
d="M27 -175l18 105h95l91 84l-82 -12l-57 410l-82 -29l-15 27l150 79l56 -33l45 -408l164 290l-74 92l97 59l44 -53l-22 -126l-177 -296l-114 -189h-137z" />
    <glyph glyph-name="yacute.ss01" horiz-adv-x="482" 
d="M272 553l76 157h117l-144 -157h-49zM27 -175l18 105h95l91 84l-82 -12l-57 410l-82 -29l-15 27l150 79l56 -33l45 -408l164 290l-74 92l97 59l44 -53l-22 -126l-177 -296l-114 -189h-137z" />
    <glyph glyph-name="ycircumflex.ss01" horiz-adv-x="482" 
d="M172 553l121 156h77l60 -156h-48l-65 82l-96 -82h-49zM27 -175l18 105h95l91 84l-82 -12l-57 410l-82 -29l-15 27l150 79l56 -33l45 -408l164 290l-74 92l97 59l44 -53l-22 -126l-177 -296l-114 -189h-137z" />
    <glyph glyph-name="ydieresis.ss01" horiz-adv-x="482" 
d="M214 576l-51 6l4 51l19 42l40 6l45 -6l-1 -49l-19 -44zM400 576l-51 6l4 51l19 42l39 6l46 -6l-1 -49l-18 -44zM27 -175l18 105h95l91 84l-82 -12l-57 410l-82 -29l-15 27l150 79l56 -33l45 -408l164 290l-74 92l97 59l44 -53l-22 -126l-177 -296l-114 -189h-137z" />
    <glyph glyph-name="ygrave.ss01" horiz-adv-x="482" 
d="M286 553l-79 157h113l11 -157h-45zM27 -175l18 105h95l91 84l-82 -12l-57 410l-82 -29l-15 27l150 79l56 -33l45 -408l164 290l-74 92l97 59l44 -53l-22 -126l-177 -296l-114 -189h-137z" />
    <glyph glyph-name="hcircumflex.ss02" horiz-adv-x="532" 
d="M78 750l124 100h94l91 -100h-68l-76 53l-96 -53h-69zM378 -15l-67 35l55 315q11 60 -30 60q-35 0 -84 -34l-46 -30l-59 -331h-105l115 651l-93 -26l-12 33l184 57l32 -28l-49 -280l-16 -34l175 116q60 0 85 -32.5t15 -86.5l-55 -307l82 52l19 -26z" />
    <glyph glyph-name="lacute.ss02" horiz-adv-x="284" 
d="M209 750l84 100h118l-136 -100h-66zM119 -15l-68 35l111 630l-93 -25l-12 33l184 57l32 -28l-110 -624l83 52l19 -26z" />
    <glyph glyph-name="f_b.ss01.liga" horiz-adv-x="789" 
d="M-118 -175l19 95h112q31 36 39 86l71 401h-97l5 19l42 37h60l7 46q18 96 74 131l125 75h183l33 -28l-49 -279l-20 -47l150 128q61 -12 97.5 -58t36.5 -125q0 -96 -48 -174t-135 -114l-77 -33q-98 7 -174 47l108 618l-74 -21h-80q-32 -29 -38 -78l-16 -92h111l-11 -52
h-110l-64 -370q-16 -86 -91 -135l-117 -77h-72zM569 52q43 25 65 85t22 124q0 57 -17.5 92t-43.5 46l-103 -73l-42 -235q62 -39 119 -39z" />
    <glyph glyph-name="f_f.ss01.liga" horiz-adv-x="618" 
d="M-118 -175l19 95h112q31 36 39 86l71 401h-97l5 19l42 37h59l8 46q16 95 74 131l125 75h163l-128 -86h-84q-31 -28 -39 -78l-16 -92h185l8 50q16 95 74 131l125 75h93l-17 -86h-125q-30 -26 -39 -78l-16 -92h112l-11 -52h-110l-65 -370q-14 -84 -90 -135l-118 -77h-66
l19 95h107q31 36 39 86l71 401h-185l-65 -370q-16 -85 -90 -135l-118 -77h-71z" />
    <glyph glyph-name="f_f_b.ss01.liga" horiz-adv-x="1082" 
d="M-113 -175l19 95h112q31 36 39 86l71 401h-96l5 19l41 37h60l7 46q18 96 75 131l124 75h164l-129 -86h-84q-32 -29 -38 -78l-16 -92h184l8 50q16 95 74 131l125 75h183l32 -28l-48 -279l-20 -47l149 128q62 -12 98.5 -58t36.5 -125q0 -96 -48 -174t-135 -114l-77 -33
q-97 7 -175 47l108 618l-73 -21h-80q-32 -29 -38 -78l-16 -92h111l-11 -52h-110l-65 -370q-14 -84 -90 -135l-117 -77h-66l18 95h107q31 36 39 86l71 401h-185l-64 -370q-16 -86 -91 -135l-117 -77h-72zM862 52q43 25 65 85t22 124q0 57 -17.5 92t-43.5 46l-104 -73
l-41 -235q62 -39 119 -39z" />
    <glyph glyph-name="f_f_h.ss01.liga" horiz-adv-x="1112" 
d="M-113 -175l19 95h112q31 36 39 86l71 401h-96l5 19l41 37h60l7 46q18 96 75 131l124 75h163l-128 -86h-84q-32 -29 -38 -78l-16 -92h184l8 50q18 96 74 131l125 75h183l33 -28l-49 -280l-16 -34l175 116q59 0 84 -32.5t16 -86.5l-55 -307l82 52l18 -26l-145 -104l-67 35
l55 315q11 60 -30 60q-35 0 -84 -34l-47 -30l-58 -331h-105l115 650l-74 -21h-80q-29 -27 -38 -78l-16 -92h111l-11 -52h-110l-65 -370q-14 -84 -90 -135l-117 -77h-66l18 95h107q31 36 39 86l71 401h-185l-64 -370q-16 -86 -91 -135l-117 -77h-72z" />
    <glyph glyph-name="f_f_i.ss01.liga" horiz-adv-x="862" 
d="M-112 -175l18 95h112q30 32 40 86l70 401h-96l5 19l42 37h59l8 46q16 95 74 131l125 75h163l-128 -86h-85q-29 -27 -38 -78l-16 -92h184l9 50q16 96 74 131l124 75h227l-17 -86h-259q-28 -25 -39 -78l-16 -92h170l68 30l42 -40l-68 -386l82 52l18 -26l-145 -104l-67 35
l70 396l-52 -9h-127l-64 -370q-16 -86 -91 -135l-117 -77h-66l18 95h107q30 34 40 86l70 401h-185l-64 -370q-16 -85 -90 -135l-118 -77h-71z" />
    <glyph glyph-name="f_f_j.ss01.liga" horiz-adv-x="837" 
d="M-118 -175l19 95h112q31 36 39 86l71 401h-97l5 19l42 37h60l7 46q18 96 74 131l125 75h163l-128 -86h-84q-32 -29 -38 -78l-16 -92h184l8 50q16 95 74 131l125 75h227l-17 -86h-259q-30 -26 -39 -78l-16 -92h170l68 30l41 -40l-72 -407q-15 -89 -90 -137l-120 -80h-56
l16 95h101q30 38 40 94l71 402l-52 -9h-126l-65 -370q-14 -84 -90 -135l-118 -77h-66l19 95h107q31 36 39 86l71 401h-185l-64 -370q-16 -86 -91 -135l-117 -77h-72z" />
    <glyph glyph-name="f_f_k.ss01.liga" horiz-adv-x="1085" 
d="M-113 -175l19 95h112q31 36 39 86l71 401h-96l5 19l41 37h60l7 46q16 95 75 131l124 75h163l-128 -86h-84q-32 -29 -38 -78l-16 -92h184l8 50q18 96 74 131l125 75h183l33 -28l-71 -404l19 4l176 192h108l-23 -108h-73q-48 -11 -94 -47l-57 -48l44 -15l104 -198l76 48
l18 -26l-143 -100l-52 26l-108 247l-45 -258h-104l114 650l-74 -21h-80q-29 -27 -38 -78l-16 -92h111l-11 -52h-110l-65 -370q-14 -84 -90 -135l-117 -77h-66l18 95h107q31 36 39 86l71 401h-185l-64 -370q-16 -86 -91 -135l-117 -77h-72z" />
    <glyph glyph-name="f_f_l.ss01.liga" horiz-adv-x="859" 
d="M-112 -175l18 95h112q30 32 40 86l70 401h-96l5 19l42 37h59l8 46q16 95 74 131l125 75h163l-129 -86h-84q-29 -27 -38 -78l-16 -92h184l9 50q16 96 74 131l124 75h183l33 -28l-110 -624l82 52l19 -26l-146 -104l-67 35l67 387h-174l-64 -370q-16 -86 -91 -135l-117 -77
h-66l18 95h107q30 34 40 86l70 401h-185l-64 -370q-16 -85 -90 -135l-118 -77h-71zM528 459h175l34 191l-74 -21h-80q-28 -25 -39 -78z" />
    <glyph glyph-name="f_h.ss01.liga" horiz-adv-x="819" 
d="M-118 -175l19 95h112q31 36 39 86l71 401h-97l5 19l42 37h59l8 46q16 95 74 131l125 75h183l33 -28l-50 -280l-16 -34l176 116q60 0 85 -32.5t15 -86.5l-55 -307l82 52l18 -26l-145 -104l-67 35l55 315q11 60 -30 60q-35 0 -84 -34l-47 -30l-59 -331h-104l115 650
l-74 -21h-80q-31 -28 -39 -78l-16 -92h112l-11 -52h-110l-65 -370q-16 -85 -90 -135l-118 -77h-71z" />
    <glyph glyph-name="f_j.ss01.liga" horiz-adv-x="550" 
d="M-118 -175l19 95h112q31 36 39 86l71 401h-97l5 19l42 37h60l7 46q18 96 74 131l125 75h227l-17 -86h-259q-32 -29 -38 -78l-16 -92h169l68 30l42 -40l-72 -407q-15 -89 -90 -137l-120 -80h-71l17 95h116q29 38 39 94l71 402l-52 -9h-127l-64 -370q-16 -86 -91 -135
l-117 -77h-72z" />
    <glyph glyph-name="f_k.ss01.liga" horiz-adv-x="792" 
d="M-118 -175l19 95h112q31 36 39 86l71 401h-97l5 19l42 37h59l8 46q16 95 74 131l125 75h183l33 -28l-72 -404l21 4l175 192h108l-24 -108h-72q-48 -11 -94 -47l-57 -48l44 -15l104 -198l76 48l19 -26l-144 -100l-53 26l-107 247l-45 -258h-104l114 650l-74 -21h-80
q-31 -28 -39 -78l-16 -92h112l-11 -52h-110l-65 -370q-16 -85 -90 -135l-118 -77h-71z" />
    <glyph glyph-name="f_t.ss01.liga" 
d="M-118 -175l19 95h112q31 36 39 86l71 401h-97l5 19l42 37h59l8 46q16 95 74 131l125 75h173l-112 -86h-110q-31 -28 -39 -78l-16 -92h167l13 68l88 76h30l-27 -144h123l-11 -53h-120l-59 -343l130 52l15 -28l-190 -102l-68 31l67 391h-167l-65 -370q-16 -85 -90 -135
l-118 -77h-71z" />
    <glyph glyph-name="f_u.ss01.liga" horiz-adv-x="808" 
d="M-118 -175l19 95h112q31 36 39 86l71 401h-97l5 19l42 37h59l8 46q16 95 74 131l125 75h93l-17 -86h-125q-31 -28 -39 -78l-16 -92h159l68 30l41 -39l-54 -314q-11 -57 30 -57q21 0 81 39l45 30l56 326h105l-73 -412l83 52l18 -26l-146 -103l-62 30l9 58l16 35l-173 -123
q-58 0 -83.5 34t-16.5 85l55 312l-53 -9h-114l-65 -370q-16 -85 -90 -135l-118 -77h-71z" />
    <glyph glyph-name="f_y.ss01.liga" horiz-adv-x="727" 
d="M-118 -175l19 95h112q31 36 39 86l71 401h-97l5 19l42 37h60l7 46q18 96 74 131l125 75h93l-17 -86h-125q-32 -29 -38 -78l-16 -92h89l68 30l54 -38l44 -403l164 290l-74 92l97 59l44 -53l-21 -126l-292 -485h-137l18 105h95l91 84l-82 -12l-58 413l-49 -8h-61l-64 -370
q-16 -86 -91 -135l-117 -77h-72z" />
    <glyph glyph-name="fi.ss01.liga" horiz-adv-x="569" 
d="M-118 -175l19 95h112q31 36 39 86l71 401h-97l5 19l42 37h60l7 46q18 96 74 131l125 75h227l-17 -86h-259q-32 -29 -38 -78l-16 -92h169l68 30l42 -40l-68 -386l82 52l18 -26l-145 -104l-67 35l70 396l-52 -9h-127l-64 -370q-16 -86 -91 -135l-117 -77h-72z" />
    <glyph glyph-name="fl.ss01.liga" horiz-adv-x="566" 
d="M-118 -175l19 95h112q31 36 39 86l71 401h-97l5 19l42 37h60l7 46q18 96 74 131l125 75h183l33 -28l-110 -624l83 52l18 -26l-146 -104l-68 35l68 387h-174l-64 -370q-16 -86 -91 -135l-117 -77h-72zM236 459h174l34 191l-74 -21h-80q-32 -29 -38 -78z" />
    <glyph glyph-name="k_y.ss01.liga" horiz-adv-x="952" 
d="M497 -175l18 105h95l91 84l-82 -12l-62 445h-40l-55 -76h-59q-47 -11 -93 -47l-58 -48l45 -15l104 -198l75 48l19 -26l-143 -100l-53 26l-107 247l-45 -258h-105l114 652l-94 -26l-12 32l185 58l32 -28l-71 -405l20 4l176 192h242l37 -23l45 -408l163 290l-73 92l97 59
l44 -53l-21 -126l-292 -485h-137z" />
    <glyph glyph-name="t_y.ss01.liga" horiz-adv-x="779" 
d="M324 -175l18 105h95l91 84l-82 -12l-58 413l-51 -9h-103l-59 -343l105 42l19 -29l-169 -91l-68 31l68 390h-94l5 19l41 38h57l12 64l89 76h29l-26 -144h134l68 30l54 -38l44 -403l164 290l-74 92l96 59l45 -53l-22 -126l-174 -292l-117 -193h-137z" />
    <glyph glyph-name="A.sc" horiz-adv-x="600" 
d="M502 42l55 -8l-8 -35l-129 2l-99 -2l1 35l63 9l-15 124h-185l-73 -124l64 -9l-8 -35l-84 2l-82 -2v35l54 8l291 464l91 21zM209 207h157l-22 183l2 50z" />
    <glyph glyph-name="Aacute.sc" horiz-adv-x="600" 
d="M576 710l-146 -147h-50l76 147h120zM438 527l64 -485l55 -8l-8 -35l-129 2l-99 -2l1 35l63 9l-15 124h-185l-73 -124l64 -9l-8 -35l-84 2l-82 -2v35l54 8l291 464zM209 207h157l-22 183l2 50z" />
    <glyph glyph-name="Abreve.sc" horiz-adv-x="600" 
d="M419 564q-58 0 -92.5 37t-40.5 82l36 22q10 -19 19.5 -31.5t30.5 -24t49 -11.5q25 0 50.5 12t38.5 23.5t33 31.5l29 -22q-54 -75 -153 -119zM438 527l64 -485l55 -8l-8 -35l-129 2l-99 -2l1 35l63 9l-15 124h-185l-73 -124l64 -9l-8 -35l-84 2l-82 -2v35l54 8l291 464z
M209 207h157l-22 183l2 50z" />
    <glyph glyph-name="Acircumflex.sc" horiz-adv-x="600" 
d="M392 622l-84 -59h-58l141 147h74l80 -147h-58l-59 59l-14 20zM502 42l55 -8l-8 -35l-129 2l-99 -2l1 35l63 9l-15 124h-185l-73 -124l64 -9l-8 -35l-84 2l-82 -2v35l54 8l291 464l91 21zM209 207h157l-22 183l2 50z" />
    <glyph glyph-name="Adieresis.sc" horiz-adv-x="600" 
d="M366 590l-65 -5l-27 5l6 53l19 44l67 5l26 -5l-5 -52zM551 692l27 -5l-6 -52l-20 -45l-66 -5l-26 5l6 53l19 44zM438 527l64 -485l55 -8l-8 -35l-129 2l-99 -2l1 35l63 9l-15 124h-185l-73 -124l64 -9l-8 -35l-84 2l-82 -2v35l54 8l291 464zM209 207h157l-22 183l2 50z
" />
    <glyph glyph-name="Agrave.sc" horiz-adv-x="600" 
d="M433 563h-51l-84 147h119zM502 42l55 -8l-8 -35l-129 2l-99 -2l1 35l63 9l-15 124h-185l-73 -124l64 -9l-8 -35l-84 2l-82 -2v35l54 8l291 464l91 21zM209 207h157l-22 183l2 50z" />
    <glyph glyph-name="Amacron.sc" horiz-adv-x="600" 
d="M568 665l-13 -64h-286l14 64h285zM438 527l64 -485l55 -8l-8 -35l-129 2l-99 -2l1 35l63 9l-15 124h-185l-73 -124l64 -9l-8 -35l-84 2l-82 -2v35l54 8l291 464zM209 207h157l-22 183l2 50z" />
    <glyph glyph-name="Aogonek.sc" horiz-adv-x="600" 
d="M502 42l55 -8l-8 -35l-73 2l-77 -2l-68 -109l-6 -33q-5 -32 17 -49t75 -17l-7 -37q-101 0 -141 25t-31 76l11 60l131 109l-14 143h-181l-73 -124l64 -9l-8 -35l-84 2l-82 -2v35l54 8l291 464l91 21zM209 207h153l-18 183l2 50z" />
    <glyph glyph-name="Aring.sc" horiz-adv-x="600" 
d="M406 546q-89 0 -89 69q0 22 8 39t18 27t29 18.5t32 12.5t36 10q89 0 89 -69q0 -22 -8 -39t-18 -27t-29 -18.5t-32 -12.5t-36 -10zM433 684q-27 0 -45.5 -17t-18.5 -44q0 -39 44 -39q28 0 46.5 17t18.5 43q0 19 -12.5 29.5t-32.5 10.5zM502 42l55 -8l-8 -35l-129 2l-99 -2
l1 35l63 9l-15 124h-185l-73 -124l64 -9l-8 -35l-84 2l-82 -2v35l54 8l291 464l91 21zM209 207h157l-22 183l2 50z" />
    <glyph glyph-name="Atilde.sc" horiz-adv-x="600" 
d="M326 623l-36 -46h-31l45 96l75 20l146 -50l37 47h31l-47 -102l-72 -14zM438 527l64 -485l55 -8l-8 -35l-129 2l-99 -2l1 35l63 9l-15 124h-185l-73 -124l64 -9l-8 -35l-84 2l-82 -2v35l54 8l291 464zM209 207h157l-22 183l2 50z" />
    <glyph glyph-name="AE.sc" horiz-adv-x="759" 
d="M-7 -1l1 35l54 8l330 473l77 -2l291 2l3 -132h-35l-40 86l-167 2l-31 -202l84 3l50 83h28l-29 -107l-4 -108h-28l-24 83l-83 3l-25 -184l180 3l60 95h36l-34 -141l-310 2l-107 -2v35l67 9l28 185h-131l-126 -185l64 -9l-10 -35l-86 2zM257 266h114l34 215z" />
    <glyph glyph-name="AEacute.sc" horiz-adv-x="759" 
d="M492 563l76 147h120l-146 -147h-50zM-7 -1l1 35l54 8l330 473l77 -2l291 2l3 -132h-35l-40 86l-167 2l-31 -202l84 3l50 83h28l-29 -107l-4 -108h-28l-24 83l-83 3l-25 -184l180 3l60 95h36l-34 -141l-310 2l-107 -2v35l67 9l28 185h-131l-126 -185l64 -9l-10 -35l-86 2z
M257 266h114l34 215z" />
    <glyph glyph-name="B.sc" horiz-adv-x="536" 
d="M12 -1v35l68 9l67 430l-64 8l8 34l104 -2l153 2q71 1 110.5 -30.5t39.5 -75.5q0 -41 -30 -72.5t-85 -45.5l-47 -12q71 -6 112.5 -39.5t41.5 -79.5q0 -53 -36.5 -85t-101.5 -53l-75 -23l-159 2zM228 288h39q53 0 86.5 34.5t33.5 77.5q0 33 -20 54.5t-59 21.5h-50zM191 47
h122q69 39 69 107q0 44 -26.5 70.5t-79.5 26.5h-53z" />
    <glyph glyph-name="C.sc" horiz-adv-x="562" 
d="M294 -13q-111 0 -175.5 61t-64.5 167q0 93 54.5 170t169.5 116l81 28q103 0 172 -53l-5 -123h-50l-15 71q-48 42 -142 54q-72 -31 -109 -93.5t-37 -146.5q0 -92 45.5 -143t112.5 -58q58 23 91 53l46 83h52l-32 -136z" />
    <glyph glyph-name="Cacute.sc" horiz-adv-x="562" 
d="M352 563l76 147h120l-146 -147h-50zM294 -13q-111 0 -175.5 61t-64.5 167q0 93 54.5 170t169.5 116l81 28q103 0 172 -53l-5 -123h-50l-15 71q-48 42 -142 54q-72 -31 -109 -93.5t-37 -146.5q0 -92 45.5 -143t112.5 -58q58 23 91 53l46 83h52l-32 -136z" />
    <glyph glyph-name="Ccaron.sc" horiz-adv-x="562" 
d="M266 710h58l59 -59l14 -20l22 20l83 59h59l-142 -147h-73zM294 -13q-111 0 -175.5 61t-64.5 167q0 93 54.5 170t169.5 116l81 28q103 0 172 -53l-5 -123h-50l-15 71q-48 42 -142 54q-72 -31 -109 -93.5t-37 -146.5q0 -92 45.5 -143t112.5 -58q58 23 91 53l46 83h52
l-32 -136z" />
    <glyph glyph-name="Ccedilla.sc" horiz-adv-x="562" 
d="M319 478q-72 -31 -109 -93.5t-37 -146.5q0 -92 45.5 -143t112.5 -58q58 23 91 53l46 83h52l-32 -136l-179 -46l-31 -38q34 0 57.5 -17.5t23.5 -49.5q0 -73 -107 -111l-51 -18h-59l29 43h78q33 20 33 60q0 31 -23.5 45.5t-55.5 14.5l59 68q-97 9 -152.5 69t-55.5 158
q0 93 54.5 170t169.5 116l81 28q103 0 172 -53l-5 -123h-50l-15 71q-48 42 -142 54z" />
    <glyph glyph-name="Ccircumflex.sc" horiz-adv-x="562" 
d="M222 563l141 147h74l80 -147h-58l-59 59l-14 20l-22 -20l-84 -59h-58zM294 -13q-111 0 -175.5 61t-64.5 167q0 93 54.5 170t169.5 116l81 28q103 0 172 -53l-5 -123h-50l-15 71q-48 42 -142 54q-72 -31 -109 -93.5t-37 -146.5q0 -92 45.5 -143t112.5 -58q58 23 91 53
l46 83h52l-32 -136z" />
    <glyph glyph-name="Cdotaccent.sc" horiz-adv-x="562" 
d="M365 579l-34 6l6 61l22 51l73 5l33 -6l-7 -60l-23 -51zM294 -13q-111 0 -175.5 61t-64.5 167q0 93 54.5 170t169.5 116l81 28q103 0 172 -53l-5 -123h-50l-15 71q-48 42 -142 54q-72 -31 -109 -93.5t-37 -146.5q0 -92 45.5 -143t112.5 -58q58 23 91 53l46 83h52l-32 -136
z" />
    <glyph glyph-name="D.sc" horiz-adv-x="601" 
d="M12 -1l1 35l66 9l67 430l-66 8l10 34l119 -2l134 2q105 0 167.5 -61t62.5 -158q0 -88 -57.5 -161.5t-176.5 -113.5l-65 -22l-146 2zM190 48h125q60 32 99 92.5t39 141.5q0 87 -42 139t-103 54h-51z" />
    <glyph glyph-name="Eth.sc" horiz-adv-x="586" 
d="M343 515q105 0 167.5 -61t62.5 -158q0 -88 -57.5 -161.5t-176.5 -113.5l-65 -22l-146 2l-116 -2l1 35l66 9l32 203h-67l8 41h65l29 186l-66 8l10 34l119 -2zM315 48q60 32 99 92.5t39 141.5q0 87 -42 139t-103 54h-51l-29 -188h92l-8 -41h-91l-31 -198h125z" />
    <glyph glyph-name="Dcaron.sc" horiz-adv-x="601" 
d="M210 710h58l59 -59l14 -20l22 20l83 59h59l-142 -147h-73zM12 -1l1 35l66 9l67 430l-66 8l10 34l119 -2l134 2q105 0 167.5 -61t62.5 -158q0 -88 -57.5 -161.5t-176.5 -113.5l-65 -22l-146 2zM190 48h125q60 32 99 92.5t39 141.5q0 87 -42 139t-103 54h-51z" />
    <glyph glyph-name="Dcroat.sc" horiz-adv-x="586" 
d="M343 515q105 0 167.5 -61t62.5 -158q0 -88 -57.5 -161.5t-176.5 -113.5l-65 -22l-146 2l-116 -2l1 35l66 9l32 203h-67l8 41h65l29 186l-66 8l10 34l119 -2zM315 48q60 32 99 92.5t39 141.5q0 87 -42 139t-103 54h-51l-29 -188h92l-8 -41h-91l-31 -198h125z" />
    <glyph glyph-name="E.sc" horiz-adv-x="535" 
d="M12 -1l1 35l66 9l67 428l-64 9l8 35l110 -2l315 2l3 -139h-38l-41 93l-183 3l-28 -181l99 2l49 79h33l-28 -103l-4 -101h-34l-22 78l-99 3l-33 -207l205 3l63 99h40l-36 -145l-339 2z" />
    <glyph glyph-name="Eacute.sc" horiz-adv-x="535" 
d="M312 563l76 147h120l-146 -147h-50zM12 -1l1 35l66 9l67 428l-64 9l8 35l110 -2l315 2l3 -139h-38l-41 93l-183 3l-28 -181l99 2l49 79h33l-28 -103l-4 -101h-34l-22 78l-99 3l-33 -207l205 3l63 99h40l-36 -145l-339 2z" />
    </font>
</defs>
</svg>
